<svg xmlns="http://www.w3.org/2000/svg" viewBox="0 0 280.84 929.26"><defs><style>.cls-1{fill:#d74127;}.cls-2{fill:#f6f6f7;stroke:#8f9093;stroke-miterlimit:10;}.cls-3{isolation:isolate;}.cls-4{fill:#216393;}</style></defs><title>all-overview-2</title><g id="bottom"><path class="cls-1" d="M140.3,760.48a53.69,53.69,0,0,0-53.69,53.69h.13a53.63,53.63,0,1,0,53.56-53.69Zm.16,88.47h0a34.78,34.78,0,1,1,34.78-34.78A34.79,34.79,0,0,1,140.46,849Z" transform="translate(0 0)"/><path class="cls-1" d="M269.2,657.21a11.58,11.58,0,0,0-11.58,11.56v0a28.92,28.92,0,0,1-29,28.84H198.2v-5.71a5.79,5.79,0,0,0,0-11.57H180.84a5.79,5.79,0,0,0,0,11.57v5.71H101v3.84c3.19,0,5.78,3.45,5.78,7.78a6.42,6.42,0,0,1-7,5.78h-18a6.08,6.08,0,0,1-6.43-5.73c0-4.25,2.59-7.78,5.78-7.78v-3.89H52.08a28.92,28.92,0,0,1-28.94-28.84,11.57,11.57,0,0,0-23.14,0A51.13,51.13,0,0,0,24.69,712V900.34a28.92,28.92,0,0,0,28.93,28.92h173.6a28.91,28.91,0,0,0,29-28.89V712a51.16,51.16,0,0,0,24.59-43.18A11.57,11.57,0,0,0,269.2,657.21ZM140.28,876.42a62.25,62.25,0,1,1,62.25-62.25A62.25,62.25,0,0,1,140.28,876.42Z" transform="translate(0 0)"/></g><g id="_1.2" data-name="1.2"><path class="cls-2" d="M13.3,517.59a5.78,5.78,0,0,1,5.78,5.78h5.77v-28.9a28.9,28.9,0,0,1,28.88-28.92H81.54v3.83c-3.19,0-5.78,3.45-5.78,7.78a6.09,6.09,0,0,0,6.35,5.78H100a6.44,6.44,0,0,0,6.95-5.78c0-4.25-2.6-7.78-5.78-7.78v-3.83H181v-5.78a5.78,5.78,0,0,1,0-11.56h17.34a5.78,5.78,0,0,1,0,11.56h0v5.78h28.93a28.89,28.89,0,0,1,28.89,28.9h0v27.78h-3.83c0-3.19-3.45-5.78-7.78-5.78a6.1,6.1,0,0,0-5.78,6.35v17.93a6.43,6.43,0,0,0,5.78,6.95c4.25,0,7.78-2.59,7.78-5.78h3.83v79.8h5.78a5.78,5.78,0,0,1,11.56-.05v17.44a5.78,5.78,0,0,1-11.56,0h-5.78V668h0a28.89,28.89,0,0,1-28.74,29H199.43v-3.83c3.19,0,5.78-3.45,5.78-7.78a6.1,6.1,0,0,0-6.35-5.78H181A6.43,6.43,0,0,0,174,685.4c0,4.25,2.59,7.78,5.78,7.78h0V697H100v5.78a5.78,5.78,0,0,1,0,11.56H82.65a5.78,5.78,0,0,1,0-11.56h0V697H53.73A28.9,28.9,0,0,1,24.8,668.14h0v-28h3.84c0,3.19,3.44,5.78,7.77,5.78a6.09,6.09,0,0,0,5.78-6.35h0V621.67a6.42,6.42,0,0,0-5.78-6.94c-4.25,0-7.77,2.59-7.77,5.78H24.8V540.73H19a5.78,5.78,0,0,1-11.56,0V523.37a5.78,5.78,0,0,1,5.78-5.78Z" transform="translate(0 0)"/><g class="cls-3"><path class="cls-4" d="M109.25,542.49a39.41,39.41,0,0,1,1.12-6v-19a12.44,12.44,0,0,1,.11-1.46c.08-.58.14-1.06.19-1.46l-.07-1.2a4.88,4.88,0,0,0-2.18.75c-.35.2-.68.37-1,.52a2.2,2.2,0,0,1-.93.23q-1.35,0-1.35-5.69l.08-4.27a6.76,6.76,0,0,0,3-1.35,28,28,0,0,0,4.12-3.33,15.07,15.07,0,0,0,3-3.7,30.36,30.36,0,0,1,4.64.48c1.94.33,3,.59,3.07.79a17.21,17.21,0,0,1,.29,3.22,19.87,19.87,0,0,1-.37,3.59,31.76,31.76,0,0,0-.3,3.44c0,.9.05,1.93.15,3.07s.18,2,.23,2.4a46.19,46.19,0,0,1,.37,5.46c0,.95,0,2.37-.15,4.27-.15,1.5-.22,3-.22,4.41,0,.65,0,1.68.15,3.07a24.41,24.41,0,0,1,.22,3.22q0,16.69-1.72,16.69l-.9-.3a50.24,50.24,0,0,0-5.76.38c-2.4.2-4.15.3-5.24.3a1.6,1.6,0,0,1-1-.23,1,1,0,0,1-.23-.74v-.6A64.39,64.39,0,0,1,109.25,542.49Zm.52-38.7a8.36,8.36,0,0,0-2.13,1.2,2.18,2.18,0,0,0-.71,1.79h.82l5.76-3.52a5.42,5.42,0,0,0-1.57.3l-.37-.67A9.38,9.38,0,0,1,109.77,503.79Zm5.92,3.18a25.16,25.16,0,0,0-6,2.28c-1.72.95-2.58,2-2.58,3.07a7.72,7.72,0,0,0,2.29-.71c1.12-.47,2.2-1,3.25-1.46a19,19,0,0,1,3.37-1.42,11.23,11.23,0,0,0,3.11-1.24q1.68-.93,1.68-1.38A22.79,22.79,0,0,0,115.69,507Zm-6.82,1.87a12.47,12.47,0,0,0,1.8-.79,6.52,6.52,0,0,0,1.31-1.12,20.75,20.75,0,0,1,2-1.72,2.78,2.78,0,0,1,1.58-.67,5.77,5.77,0,0,0,2.54-.94c1.1-.62,1.65-1.06,1.65-1.31a14.33,14.33,0,0,0-4.12,1.35,68.25,68.25,0,0,0-8.16,4.41v1.35C107.65,509.3,108.13,509.12,108.87,508.84Zm5.69,38.29v1l1.57-.67a.68.68,0,0,1-.22.56,3,3,0,0,1-.86.41,1.54,1.54,0,0,0-.86.6H115a31.61,31.61,0,0,0,3.26-.22c1.37-.15,2.06-.3,2.06-.45v-2.32a2.22,2.22,0,0,1-1.13.86,5.35,5.35,0,0,0-1.12.56l-.3-.37c.3-.25.71-.58,1.24-1a5.73,5.73,0,0,0,1.19-1.16,2.76,2.76,0,0,0,.49-1.46,22.42,22.42,0,0,1-9.73,2l-.6,3.22.6.68Zm-3-4.79a8.8,8.8,0,0,0,2.62-.49,3.6,3.6,0,0,0,1.94-1.16l4.2-2-.3-.3-3.9.6v-.3a4.87,4.87,0,0,1-1.42.45c-.85.2-1.67.38-2.47.53A4.52,4.52,0,0,0,111.57,542.34Zm.9,1.79a23.12,23.12,0,0,0,5.09-.75c2.09-.49,3.14-1,3.14-1.57v-1.27l-9.13,3.52Zm-.12-22.94c.08,1,.17,1.81.27,2.36h.3l5.83-2.55a1.55,1.55,0,0,1,.64-.59L120,520a6.82,6.82,0,0,0-1.87.3c-.7.2-1.15.33-1.35.37a9.54,9.54,0,0,1-3.07.68c-.3,0-.45-.13-.45-.38,1.1-1.89,3.44-3.39,7-4.49l.37-.37a35.45,35.45,0,0,0-4.9,1.16c-2.37.67-3.56,1.28-3.56,1.83C112.24,519.48,112.28,520.17,112.35,521.19ZM118.64,536c-.67.3-1.4.59-2.17.86l-1.53.57c-.35.15-.84.32-1.46.52a4.77,4.77,0,0,0-1.24.52h.68a37.61,37.61,0,0,0,4.52-.6,16.92,16.92,0,0,0,3.56-.74v-4.57a10.65,10.65,0,0,0-3.07,1.09,7.25,7.25,0,0,0-2.69,1.61,12.15,12.15,0,0,1,3.81-.9c.4,0,.6.25.6.74C119.65,535.37,119.32,535.67,118.64,536Zm-6.4,1.13,1.87-.49a7.72,7.72,0,0,0,2-.79l-3.51.68C112.37,536.5,112.24,536.7,112.24,537.1Zm.3-11.08.08.52c1.59-.1,3.94-1.09,7-3a8.13,8.13,0,0,0-2.39.45l-1.65.52c-1.3.4-2.2.65-2.69.75C112.67,525.32,112.54,525.57,112.54,526Zm3.78,3.63c2.07-.92,3.18-1.54,3.33-1.83a19.45,19.45,0,0,0-2.84.44l-1.72.38a12.29,12.29,0,0,1-2.47.3V531A16.34,16.34,0,0,0,116.32,529.65Zm-.41,2.43a17.67,17.67,0,0,0-3.29.83v2.32l6.73-2.92a1.78,1.78,0,0,1,.6-.49,1.1,1.1,0,0,0,.53-.49C119.23,531.48,117.71,531.73,115.91,532.08Zm-1-21.44c-1.35.42-2,.86-2,1.31v4.56l1.79-.9c2.7-1.29,4-2.12,4-2.47a27.7,27.7,0,0,0-3.33.23c-1.22.15-1.91.22-2.06.22a1.74,1.74,0,0,1,.72-1.49,6.33,6.33,0,0,1,2-.9,6.66,6.66,0,0,0,1.2-.53c.35-.19.52-.42.52-.67A11,11,0,0,0,114.94,510.64Zm4.19,16.58,1.57-.38.3-3.29q-.3.6-5.17,2.84c-.44.2-.92.43-1.42.68l-1.49.75v.37A32.72,32.72,0,0,0,119.13,527.22Zm-5.62-2.92.15.15c.1.1.18.15.23.15.6-.25,1.58-.59,3-1s2.43-.74,3.18-.94h.67a1.18,1.18,0,0,0,.07-.37c0-.5-.27-.75-.82-.75a7.45,7.45,0,0,0-2.47.82c-1.2.55-1.9.87-2.09,1a13.35,13.35,0,0,1-1.88.9Zm.68,7.41a25,25,0,0,0,3.07-.53c1.69-.35,2.84-.62,3.44-.82v-2c-.6.15-3,1.23-7.19,3.22ZM120,499.07a2.48,2.48,0,0,1-.9,1l-2.09,1a34.12,34.12,0,0,1-3.07,1.5l.3.07a14.33,14.33,0,0,0,3.37-.59,11.16,11.16,0,0,1,3.44-.68l.3.3v-1.64a.84.84,0,0,1-.6-.68,2,2,0,0,1,.07-.56,2,2,0,0,0,.08-.56C120.6,498.25,120.3,498.52,120,499.07Zm-2.17,5.5a12.76,12.76,0,0,0-3.59,2.14l1.94-.45A18.38,18.38,0,0,0,120,505.1a2.42,2.42,0,0,0,1.5-2A15.61,15.61,0,0,0,117.78,504.57Zm.38,10.26a37.42,37.42,0,0,1-4,2,15.63,15.63,0,0,0,4.11-.9c.3-.1.68-.21,1.13-.33a14,14,0,0,1,1.57-.34c0-.75,0-1.87-.15-3.37a26,26,0,0,1-.22-3.37l.07-1-1.31.63a7.48,7.48,0,0,0-1.61,1l2.25.3v1a11.57,11.57,0,0,0-2.55,1.2c-.5.3-1.17.65-2,1.05a20.32,20.32,0,0,0,2.1-.15,20,20,0,0,1,2.09-.15c.45,0,.68.18.68.52C120.33,513.34,119.6,514,118.16,514.83Zm-2.1-15.76a12.78,12.78,0,0,0-.52,1.57,8.49,8.49,0,0,0,3.89-2.17,9.52,9.52,0,0,0-2.7-.37C116.53,498.1,116.31,498.42,116.06,499.07Zm1.83,19.43a5.88,5.88,0,0,0-2.06,1.53,12.33,12.33,0,0,0,2.51-.52,8.35,8.35,0,0,0,2.36-.75v-1.57A23.49,23.49,0,0,0,117.89,518.5Z" transform="translate(0 0)"/><path class="cls-4" d="M132.6,547.73c0-.85-.07-1.73-.07-2.62a12.1,12.1,0,0,1,.37-2.47,8.22,8.22,0,0,0,.3-1.73,1.2,1.2,0,0,0-.6-1.19l.6-.15q4.11.23,6.14.22a3.08,3.08,0,0,1,.86.26,3.69,3.69,0,0,0,1.46.27l1.34-.08a1.83,1.83,0,0,1,1.28.37,2.48,2.48,0,0,1,.37,1.65c0,.45-.12.67-.37.67l.07,3.67a4.66,4.66,0,0,1-.37,2.21,2,2,0,0,1-1.39.86c-.67.15-2,.32-3.93.53l-2.17.22a.63.63,0,0,0-.67-.37,6.29,6.29,0,0,0-.86.33,3.26,3.26,0,0,1-1.16.34.55.55,0,0,1-.26-.15.91.91,0,0,0-.56-.15A18.48,18.48,0,0,1,132.6,547.73Zm1.5-5.77a6,6,0,0,0-.08,1,5.41,5.41,0,0,0,.23,1.35,27,27,0,0,1,2.47-1.27,7.29,7.29,0,0,0,3-1.65V541h-5.54A5.9,5.9,0,0,1,134.1,542Zm.3,5.2a5.53,5.53,0,0,1,.15.64l1.49-.9q1.13-.67,2.4-1.35a3.77,3.77,0,0,1,1.16-.44,14.62,14.62,0,0,0,1.53-.49,1.6,1.6,0,0,0,.9-.71l-.75-.08a17.62,17.62,0,0,0-3.63.9,9.36,9.36,0,0,0-3.4,1.5A3.69,3.69,0,0,0,134.4,547.16Zm.75,1.61a2.92,2.92,0,0,1,.89-.3.81.81,0,0,1,.19,0,1,1,0,0,0,.34,0,8.72,8.72,0,0,0,4.15-.9,3,3,0,0,0,1.69-2.77l-1.13.45C137.14,547.18,135.1,548.32,135.15,548.77Zm4.34-6.36c-.75.35-1.48.71-2.17,1.09s-1.08.68-1.13.93a19.59,19.59,0,0,1,3-.9c.95-.2,1.83-.42,2.65-.67s1.24-.5,1.24-.75a1.15,1.15,0,0,0-.15-.45l-1.65-.67-.3.67Z" transform="translate(0 0)"/><path class="cls-4" d="M149.4,551.62a.45.45,0,0,1-.26-.38c0-.1.08-.22.23-.37a70.5,70.5,0,0,0,7.78-11.38q1-2.18,4.72-8.53.45-.75,2.58-4.57t3.4-6.66a2.29,2.29,0,0,0,.68-1.8,22.23,22.23,0,0,0-.56-4.11,20.35,20.35,0,0,0-1.65-4.87c-.72-1.44-1.64-2.17-2.73-2.17a6.9,6.9,0,0,0-3.63,1.13,38.68,38.68,0,0,0-4,2.84,3.43,3.43,0,0,0-1.87,1.87,3.48,3.48,0,0,1-.71,1,1.47,1.47,0,0,1-1,.3,23.11,23.11,0,0,1-.9-3.6q-.22-1.56-.48-2.58a6.68,6.68,0,0,0-.86-1.91,1.34,1.34,0,0,1,.26-.86,4,4,0,0,1,.86-.75,7.57,7.57,0,0,0,1.12-.93,11,11,0,0,1,5.8-4.75,23,23,0,0,1,8.27-1.46,11.93,11.93,0,0,1,6.89,2.58,24.56,24.56,0,0,1,5.84,5.8c.05.25.12.77.22,1.57a14.29,14.29,0,0,0,1.05,3.37,4.78,4.78,0,0,1,.07,1.35,28.46,28.46,0,0,1-.59,4.64l-.45,2.09-3.52,10.56c-1.2,2.14-2.6,4.48-4.19,7s-2.77,4.28-3.52,5.27c1.89,0,3.74-.07,5.54-.22q3.43-.15,5.46-.15a3.46,3.46,0,0,1,2.55.67,8.16,8.16,0,0,0-.08,1.27c0,.65.05,1.63.15,2.92a19.22,19.22,0,0,1,.23,3,4.71,4.71,0,0,1-.23,1.68c-.15.38-.52.56-1.12.56a11.23,11.23,0,0,1-1.54-.11,11.92,11.92,0,0,0-1.31-.11,16.7,16.7,0,0,0-2.77-.23,13.79,13.79,0,0,0-1.45.08,3.69,3.69,0,0,0-1.31.37q-2.47,0-6.82.15-4.93.15-8.38.15l-6.06-.07a2.72,2.72,0,0,1,.9-.83,5,5,0,0,1,1.08-.37,9.89,9.89,0,0,0,1.24-.37c.64,0,1.67.07,3.07.07,2.09,0,4.29-.06,6.58-.19s3.92-.23,4.87-.33v-.45a11.8,11.8,0,0,1,.9-1.09,5.62,5.62,0,0,0,1-1.53,28.41,28.41,0,0,1-3.25,1.68,8.45,8.45,0,0,1-3,.94.93.93,0,0,1-.52-.11,1.86,1.86,0,0,1-.38-.57l4.19-4.26a.71.71,0,0,0,.34-.11l.34-.19-.15-.3a8.45,8.45,0,0,0-3.48.75,27.61,27.61,0,0,0-3.86,2.17,43.31,43.31,0,0,1-4.15,2.21,8.4,8.4,0,0,1-3.41.71,1.81,1.81,0,0,0-1.19.41,25.89,25.89,0,0,0-2.17,2.13l-.3.08A.93.93,0,0,1,149.4,551.62Zm7.41-43.9a36.15,36.15,0,0,1,5.21-2c1.79-.59,3.09-1.07,3.89-1.42a1.32,1.32,0,0,0-1-.37,25.15,25.15,0,0,0-5.43,1.53,47,47,0,0,0-5.88,2.36c-.25.15-.37.52-.37,1.12a14.93,14.93,0,0,0,.07,1.8A9.14,9.14,0,0,1,156.81,507.72Zm-1-1.8a3.82,3.82,0,0,0,.94-.71,4.49,4.49,0,0,1,1.42-.9,62.26,62.26,0,0,1,8.08-1.65,7.23,7.23,0,0,0,2.25-.59,12.58,12.58,0,0,1,3.07-.6l.07.6q0,.23-.3.3l-3.82,1.57-.37.37a13.22,13.22,0,0,0,2.47-.52A23.43,23.43,0,0,1,174,503a1.53,1.53,0,0,1,.6.08,1.92,1.92,0,0,0-2-1,2.2,2.2,0,0,0-.71-1.24c-.47-.52-.86-.78-1.16-.78a.84.84,0,0,0-.41.18.84.84,0,0,1-.34.19,2.54,2.54,0,0,1-.89-.41c-.45-.28-.88-.56-1.28-.86a.92.92,0,0,0-.67.3,45.72,45.72,0,0,0-4.64,1.94c-1.9.85-3.53,1.53-4.9,2a29.71,29.71,0,0,1-4.31,1.2l1.35,1.57A2.34,2.34,0,0,0,155.84,505.92Zm3.74-6.17A8.59,8.59,0,0,0,155,503a3.92,3.92,0,0,0,1.76-.38,22.77,22.77,0,0,0,2.13-1.19,16,16,0,0,1,1.76-1,3.29,3.29,0,0,1,1.46-.34v.3a4.64,4.64,0,0,1,2.17-.9,5.33,5.33,0,0,0,2-.75l-.52-.07A19.2,19.2,0,0,0,159.58,499.75Zm4.87,41.91c-1,.6-2.51,1.45-4.6,2.55l-2,1A14.62,14.62,0,0,0,155,547.8a12.94,12.94,0,0,0,3.11-1q1.46-.68,3.63-2c1.79-1,3-1.62,3.51-1.87a2.07,2.07,0,0,1,.38-1.35l7.71-10.93v-.45a37.18,37.18,0,0,0-4.9,2.25,47.29,47.29,0,0,0-5.06,2.7v.37a7.43,7.43,0,0,0,1.72-.37,15.17,15.17,0,0,1,2.92-.6q.9,0,.9.6c0,.49-.67,1.17-2,2a36,36,0,0,1-4.42,2.35,10.11,10.11,0,0,1-3.21,1.09,2.13,2.13,0,0,0-1.72,1c.34-.35,1.69-.73,4-1.16a36.51,36.51,0,0,1,4.34-.63C165.91,540.46,165.42,541.06,164.45,541.66Zm-8.87,3.59a11.28,11.28,0,0,0,3.82-1.6,11.84,11.84,0,0,0,3.59-2.59l-.45-.07a11.4,11.4,0,0,0-3.44.9,24.91,24.91,0,0,1-2.55.75l.38.67h-.68l-1,1.94Zm8.53-14.89-1.12.37a27,27,0,0,0-2.1,4.34q-2.23,4.73-2.39,5l3.89-1.65a3.32,3.32,0,0,1,1.72-1.12l.83-.34a1.83,1.83,0,0,0,1-.78,16.39,16.39,0,0,1-3.22.3l-.82-.45a.74.74,0,0,1-.15-.38c0-.54.57-1.14,1.72-1.79s2.79-1.47,4.94-2.47a12.2,12.2,0,0,0,2.69-1.35c-.4.1-1,.22-1.72.37s-1.35.26-1.8.3l-1.45-.18-1.46-.19Zm2.47-.3a25.53,25.53,0,0,0,8-1.65,6.62,6.62,0,0,1,.19-1.87,7.7,7.7,0,0,1,.63-1.42,6.79,6.79,0,0,0,1.13-2.17,9.83,9.83,0,0,1-3.22,3l-8.38,3.82A8.09,8.09,0,0,0,166.58,530.06Zm-1.35-1.65h.38a18,18,0,0,0,4.3-1.83A27.28,27.28,0,0,0,174,524.3a1.47,1.47,0,0,0-.67-.15,16,16,0,0,0-4,.82,9.4,9.4,0,0,1-1.65.37l-1-.07A14.27,14.27,0,0,0,165.23,528.41Zm5.32,14.86a3.3,3.3,0,0,0-.75.15,2.12,2.12,0,0,0-.67.49c-.45.4-1.09,1-1.91,1.87s-1.36,1.42-1.61,1.72v.3c.5-.2,1.15-.5,1.94-.9s1.45-.75,1.95-1a13.62,13.62,0,0,0,1.42-1.12,3,3,0,0,1,1.8-.9.46.46,0,0,0-.37-.48,3.64,3.64,0,0,0-1-.12C171.1,543.23,170.85,543.25,170.55,543.27Zm-4.12-37.2a1.05,1.05,0,0,0,.6.11,7.67,7.67,0,0,0,3.74-1.27,25.66,25.66,0,0,0-2.58.11,7.15,7.15,0,0,0-1.91.49C166.28,505.81,166.33,506,166.43,506.07Zm7,15.31c-3.69,1.69-5.54,2.67-5.54,2.92a27,27,0,0,0,4.68-.75,24.41,24.41,0,0,0,4.38-1.5v-2.32Zm-5-12.54a4.63,4.63,0,0,1,.15,1,13.53,13.53,0,0,0,1.94-1,27.48,27.48,0,0,0,3.22-2l-1.12-.08a13.52,13.52,0,0,0-2.69.34c-1.1.22-1.65.46-1.65.71A4.63,4.63,0,0,0,168.38,508.84Zm7.18,7.37a20.2,20.2,0,0,0-5.39,2.92l-1.34,3.52a49.7,49.7,0,0,0,7.71-4.12c-.5.1-1.92.25-4.27.45A23.08,23.08,0,0,0,176.8,517a5.78,5.78,0,0,0,2.36-2.77C178.86,514.77,177.66,515.42,175.56,516.21Zm-.67-8.53A17.75,17.75,0,0,1,172,509.1c-.95.4-1.67.74-2.17,1s-.75.59-.75.94a.43.43,0,0,0,.08.3l1.31-.19a10.28,10.28,0,0,1,1.31-.11,12.88,12.88,0,0,0,3.29-.6,20.26,20.26,0,0,1,3.22-.52,10.12,10.12,0,0,0-.94-3.75c-.62-1.49-1.31-2.24-2.06-2.24l-5.46,2.24a12.83,12.83,0,0,0,2.77-.37,18.08,18.08,0,0,1,2.69-.3c.45,0,.68.2.68.6A1.9,1.9,0,0,1,174.89,507.68ZM169.58,513a1.06,1.06,0,0,0,.22.56,44.79,44.79,0,0,1,5.46-2.17l-1.19-.07c-2.95,0-4.47.37-4.57,1.12A4,4,0,0,0,169.58,513Zm5.83,2.29c1.5-.9,2.42-1.43,2.77-1.58-.6.15-1.54.33-2.84.53q-.6.15-2.4.48a25.14,25.14,0,0,0-3.14.79l.37,2.32Q171.3,517.86,175.41,515.32Zm-3.14-1.73-1.8.68a21.76,21.76,0,0,0,2.81-.3,18.9,18.9,0,0,0,3.63-.9q1.65-.6,1.65-1.35l-.08-.67Q176.09,512.17,172.27,513.59Zm3.29,29.87c-.64.55-1.57,1.45-2.77,2.69l-2,2h.6a50.74,50.74,0,0,1,6.21-2.92,12.42,12.42,0,0,0,1.76-.82.91.91,0,0,0,.49-.82c0-.3-.3-.54-.9-.71a5.35,5.35,0,0,0-1.5-.26A3,3,0,0,0,175.56,543.46Zm3.33,5.65c.63.17,1.06.29,1.31.34a4.05,4.05,0,0,0-.11-.9,4.57,4.57,0,0,1-.11-.75,4.72,4.72,0,0,1-.23-1.5,3.13,3.13,0,0,1,.08-.75c-.15.15-.79.64-1.91,1.46s-2,1.44-2.66,1.84A16.44,16.44,0,0,1,178.89,549.11Z" transform="translate(0 0)"/></g><g class="cls-3"><path d="M83.15,589.89a15.31,15.31,0,0,1-.86,5.26,11.71,11.71,0,0,1-2.44,4,10.92,10.92,0,0,1-3.77,2.58,13.38,13.38,0,0,1-9.7,0,10.88,10.88,0,0,1-3.76-2.58,11.73,11.73,0,0,1-2.45-4,16.1,16.1,0,0,1,0-10.5,11.73,11.73,0,0,1,2.45-4A10.9,10.9,0,0,1,66.38,578a12.48,12.48,0,0,1,4.83-.92,12.72,12.72,0,0,1,4.87.91,10.81,10.81,0,0,1,3.77,2.59,11.76,11.76,0,0,1,2.44,4A15.28,15.28,0,0,1,83.15,589.89Zm-1.87,0a14.09,14.09,0,0,0-.73-4.7,10,10,0,0,0-2-3.54,8.7,8.7,0,0,0-3.18-2.22,10.5,10.5,0,0,0-4.12-.77,10.36,10.36,0,0,0-4.07.77A8.83,8.83,0,0,0,64,581.65a10.06,10.06,0,0,0-2.07,3.54,15.56,15.56,0,0,0,0,9.42A10.06,10.06,0,0,0,64,598.13a8.83,8.83,0,0,0,3.19,2.22,10.73,10.73,0,0,0,4.07.76,10.87,10.87,0,0,0,4.12-.76,8.7,8.7,0,0,0,3.18-2.22,10,10,0,0,0,2-3.52A14.13,14.13,0,0,0,81.28,589.89Z" transform="translate(0 0)"/><path d="M88.19,608.64V584.81h.92a.71.71,0,0,1,.38.1.48.48,0,0,1,.16.35L89.8,588a9.38,9.38,0,0,1,2.74-2.53,6.73,6.73,0,0,1,3.51-.94,6.12,6.12,0,0,1,5.06,2.25c1.2,1.5,1.8,3.74,1.8,6.74a12.24,12.24,0,0,1-.5,3.6,8.73,8.73,0,0,1-1.48,2.9,7,7,0,0,1-2.4,1.94,7.27,7.27,0,0,1-3.28.71,6.83,6.83,0,0,1-3.11-.66,6.21,6.21,0,0,1-2.26-1.94v8.59Zm7.38-22.76a5.72,5.72,0,0,0-3.17.91,8.67,8.67,0,0,0-2.52,2.53v9.24a6,6,0,0,0,2.23,2.14,6.73,6.73,0,0,0,5.53,0,5.33,5.33,0,0,0,2-1.6,7.17,7.17,0,0,0,1.18-2.47,11.78,11.78,0,0,0,.4-3.18c0-2.62-.48-4.54-1.44-5.78A5,5,0,0,0,95.57,585.88Z" transform="translate(0 0)"/><path d="M116.82,587a.44.44,0,0,1-.39.25,1,1,0,0,1-.51-.23,7.72,7.72,0,0,0-.81-.49,7.08,7.08,0,0,0-1.24-.5,6.58,6.58,0,0,0-1.79-.22,5.14,5.14,0,0,0-1.75.28,4.2,4.2,0,0,0-1.34.73,3.31,3.31,0,0,0-.87,1.07,2.83,2.83,0,0,0-.31,1.27,2.13,2.13,0,0,0,.43,1.38,3.55,3.55,0,0,0,1.11.94,9.15,9.15,0,0,0,1.57.67l1.79.56c.62.19,1.21.4,1.8.63a6.88,6.88,0,0,1,1.56.86,4.05,4.05,0,0,1,1.12,1.25,3.64,3.64,0,0,1,.42,1.81,5.62,5.62,0,0,1-.41,2.14,4.81,4.81,0,0,1-1.21,1.71,5.6,5.6,0,0,1-1.93,1.15,7.38,7.38,0,0,1-2.62.43,8,8,0,0,1-3.2-.59,9,9,0,0,1-2.41-1.55l.41-.6a.7.7,0,0,1,.19-.22.6.6,0,0,1,.3-.07,1,1,0,0,1,.57.29,6.89,6.89,0,0,0,.88.61,7.07,7.07,0,0,0,1.34.61,6,6,0,0,0,2,.28,5.6,5.6,0,0,0,2-.31,4.05,4.05,0,0,0,1.42-.84,3.5,3.5,0,0,0,.86-1.25,4,4,0,0,0,.29-1.51,2.39,2.39,0,0,0-.43-1.47,3.56,3.56,0,0,0-1.11-1,7.82,7.82,0,0,0-1.57-.69l-1.8-.56c-.62-.19-1.22-.4-1.8-.62a6.72,6.72,0,0,1-1.57-.85,4,4,0,0,1-1.11-1.25,3.54,3.54,0,0,1-.43-1.83,4.16,4.16,0,0,1,.41-1.8,4.64,4.64,0,0,1,1.16-1.53,5.8,5.8,0,0,1,1.83-1,7.06,7.06,0,0,1,2.42-.39,8.17,8.17,0,0,1,2.86.47,7,7,0,0,1,2.29,1.42Z" transform="translate(0 0)"/><path d="M140,584.53a5.9,5.9,0,0,1,2.48.53,5.75,5.75,0,0,1,2,1.55,7.54,7.54,0,0,1,1.33,2.52,11.1,11.1,0,0,1,.49,3.47,1.09,1.09,0,0,1-.09.53.37.37,0,0,1-.33.14H134.17a12.55,12.55,0,0,0,.43,3.48,7.29,7.29,0,0,0,1.2,2.52,5.05,5.05,0,0,0,1.87,1.52,5.73,5.73,0,0,0,2.44.51,7,7,0,0,0,2.14-.29,7.82,7.82,0,0,0,1.49-.64,6.88,6.88,0,0,0,.94-.63.93.93,0,0,1,.51-.3.46.46,0,0,1,.39.18l.42.53a4.41,4.41,0,0,1-1.06,1,7.18,7.18,0,0,1-1.45.79,9.79,9.79,0,0,1-1.69.52,8.44,8.44,0,0,1-1.81.2,6.63,6.63,0,0,1-4-1.22,7.29,7.29,0,0,1-2.5-3.65,6.09,6.09,0,0,1-1.11,2.3,6.57,6.57,0,0,1-1.7,1.52,7,7,0,0,1-2,.84,8.78,8.78,0,0,1-2,.26,7.15,7.15,0,0,1-2.07-.28,4.55,4.55,0,0,1-1.67-.85,4,4,0,0,1-1.11-1.51,5.45,5.45,0,0,1-.41-2.21,4,4,0,0,1,.64-2.13,5.43,5.43,0,0,1,2-1.76,12.8,12.8,0,0,1,3.49-1.24,26.64,26.64,0,0,1,5.12-.55V591a5.9,5.9,0,0,0-1.06-3.77,3.73,3.73,0,0,0-3.12-1.34,5.83,5.83,0,0,0-2.17.36,8.78,8.78,0,0,0-1.51.79,9,9,0,0,0-1,.79,1.07,1.07,0,0,1-.65.36.53.53,0,0,1-.32-.09.78.78,0,0,1-.21-.23l-.3-.51a10.17,10.17,0,0,1,2.84-2.09,7.69,7.69,0,0,1,3.37-.71,5.07,5.07,0,0,1,3.5,1.14,5.56,5.56,0,0,1,1.68,3.13,7.13,7.13,0,0,1,2.42-3.11A6.57,6.57,0,0,1,140,584.53Zm-7.37,8.78a27.74,27.74,0,0,0-4.33.44,11.72,11.72,0,0,0-3,.94,4.41,4.41,0,0,0-1.73,1.37,2.92,2.92,0,0,0-.56,1.72,4.49,4.49,0,0,0,.29,1.69,2.94,2.94,0,0,0,.82,1.14,3.61,3.61,0,0,0,1.26.66,5.72,5.72,0,0,0,1.59.21,6.17,6.17,0,0,0,2.2-.39,5.14,5.14,0,0,0,3-3,6.5,6.5,0,0,0,.45-2.49Zm7.34-7.52a5.41,5.41,0,0,0-2.29.46,5,5,0,0,0-1.75,1.29,6.2,6.2,0,0,0-1.15,2,9.58,9.58,0,0,0-.54,2.63h10.57a9.4,9.4,0,0,0-.35-2.7,6.29,6.29,0,0,0-1-2,4.3,4.3,0,0,0-1.53-1.26A4.44,4.44,0,0,0,139.94,585.79Z" transform="translate(0 0)"/><path d="M155.59,602.7a3.74,3.74,0,0,1-2.77-1,4.13,4.13,0,0,1-1-3.06v-12h-2.53a.47.47,0,0,1-.31-.11.35.35,0,0,1-.13-.3v-.65l3-.22.42-6.29a.55.55,0,0,1,.13-.29.41.41,0,0,1,.31-.12h.78v6.72H159v1.26H153.5v11.94a3.87,3.87,0,0,0,.19,1.25,2.38,2.38,0,0,0,.51.85,2.05,2.05,0,0,0,.77.5,2.76,2.76,0,0,0,1,.16,2.85,2.85,0,0,0,1.1-.19,4.84,4.84,0,0,0,.79-.4,5.23,5.23,0,0,0,.55-.41.62.62,0,0,1,.34-.19.39.39,0,0,1,.28.18l.46.74a4.88,4.88,0,0,1-1.71,1.2A5.31,5.31,0,0,1,155.59,602.7Z" transform="translate(0 0)"/><path d="M163.41,602.42V584.81h.92a.48.48,0,0,1,.53.45l.16,2.65a9.92,9.92,0,0,1,2.81-2.45,6.93,6.93,0,0,1,3.56-.93A6.57,6.57,0,0,1,174,585a4.81,4.81,0,0,1,1.83,1.33,5.77,5.77,0,0,1,1.09,2.09,9.33,9.33,0,0,1,.38,2.75v11.26h-1.69V591.16a6,6,0,0,0-1.13-3.88,4.17,4.17,0,0,0-3.47-1.4,6.07,6.07,0,0,0-3.21.89,9.3,9.3,0,0,0-2.66,2.45v13.2Z" transform="translate(0 0)"/><path d="M185.47,578.75a1.31,1.31,0,0,1-.13.59,2.09,2.09,0,0,1-.35.49,1.51,1.51,0,0,1-.49.33,1.47,1.47,0,0,1-1.21,0,1.63,1.63,0,0,1-.49-.33,2,2,0,0,1-.34-.49,1.45,1.45,0,0,1-.12-.59,1.54,1.54,0,0,1,.12-.61,1.69,1.69,0,0,1,.34-.51,1.63,1.63,0,0,1,.49-.33,1.47,1.47,0,0,1,1.21,0,1.51,1.51,0,0,1,.49.33,1.71,1.71,0,0,1,.35.51A1.39,1.39,0,0,1,185.47,578.75Zm-.74,6.06v17.61h-1.68V584.81Z" transform="translate(0 0)"/><path d="M191,602.42V584.81h.92a.48.48,0,0,1,.53.45l.16,2.65a10.05,10.05,0,0,1,2.81-2.45,6.93,6.93,0,0,1,3.56-.93,6.57,6.57,0,0,1,2.56.46,4.66,4.66,0,0,1,1.83,1.33,6,6,0,0,1,1.1,2.09,9.68,9.68,0,0,1,.37,2.75v11.26h-1.68V591.16a6,6,0,0,0-1.14-3.88,4.16,4.16,0,0,0-3.46-1.4,6.08,6.08,0,0,0-3.22.89,9.44,9.44,0,0,0-2.66,2.45v13.2Z" transform="translate(0 0)"/><path d="M215.9,584.51a7.67,7.67,0,0,1,2.13.29,6.56,6.56,0,0,1,1.76.79h4.51v.59c0,.29-.17.45-.5.47l-2.67.2a5,5,0,0,1,.76,1.51,5.85,5.85,0,0,1,.27,1.8,5.74,5.74,0,0,1-.46,2.31,5.26,5.26,0,0,1-1.28,1.76,5.84,5.84,0,0,1-2,1.14,7.32,7.32,0,0,1-2.54.41,7.76,7.76,0,0,1-2.76-.46,3.66,3.66,0,0,0-1.17,1,2,2,0,0,0-.43,1.13,1.37,1.37,0,0,0,.54,1.17,3.4,3.4,0,0,0,1.4.59,11.42,11.42,0,0,0,2,.24l2.28.12c.77,0,1.53.11,2.28.22a6.89,6.89,0,0,1,2,.56,3.4,3.4,0,0,1,1.41,1.11,3.15,3.15,0,0,1,.53,1.9,4.34,4.34,0,0,1-.55,2.11,5.51,5.51,0,0,1-1.58,1.78,8.36,8.36,0,0,1-2.5,1.25,10.91,10.91,0,0,1-3.3.47,12.61,12.61,0,0,1-3.25-.38,7.9,7.9,0,0,1-2.34-1,4.58,4.58,0,0,1-1.43-1.49,3.63,3.63,0,0,1-.48-1.81,3.45,3.45,0,0,1,.92-2.4,6.06,6.06,0,0,1,2.53-1.56,3.28,3.28,0,0,1-1.4-.87,2.49,2.49,0,0,1-.38-2.35,2.93,2.93,0,0,1,.42-.8,4.82,4.82,0,0,1,.68-.76,5.4,5.4,0,0,1,.93-.63A5.24,5.24,0,0,1,210.3,593a5.45,5.45,0,0,1-.7-2.81,5.73,5.73,0,0,1,.45-2.31,5.14,5.14,0,0,1,1.27-1.78,5.75,5.75,0,0,1,2-1.15A7.86,7.86,0,0,1,215.9,584.51Zm6.52,19.09a2,2,0,0,0-.43-1.33,2.88,2.88,0,0,0-1.16-.79,6.93,6.93,0,0,0-1.67-.4c-.63-.08-1.29-.13-2-.17l-2.08-.1a16.12,16.12,0,0,1-1.95-.22,8.93,8.93,0,0,0-1.24.61,4.61,4.61,0,0,0-1,.78,3.32,3.32,0,0,0-.63,1,2.85,2.85,0,0,0,.17,2.58,3.45,3.45,0,0,0,1.16,1.15,6.72,6.72,0,0,0,1.89.77,10.39,10.39,0,0,0,2.56.28,10,10,0,0,0,2.51-.3,6.8,6.8,0,0,0,2-.85,4.34,4.34,0,0,0,1.35-1.31A3,3,0,0,0,222.42,603.6Zm-6.52-9a5.73,5.73,0,0,0,2-.33,4.07,4.07,0,0,0,1.49-.91,3.86,3.86,0,0,0,.91-1.39,5.36,5.36,0,0,0,0-3.62,3.78,3.78,0,0,0-.93-1.41,4.17,4.17,0,0,0-1.48-.9,6.38,6.38,0,0,0-4,0,4.17,4.17,0,0,0-1.5.9,4,4,0,0,0-.93,1.41,5.44,5.44,0,0,0,0,3.62,4,4,0,0,0,.93,1.39,4.19,4.19,0,0,0,1.5.91A5.67,5.67,0,0,0,215.9,594.63Z" transform="translate(0 0)"/></g></g><g id="_1.1" data-name="1.1"><path class="cls-2" d="M13.3,284.91a5.78,5.78,0,0,1,5.78,5.78h5.77V261.8a28.92,28.92,0,0,1,28.88-28.93H81.54v3.84c-3.19,0-5.78,3.44-5.78,7.77a6.08,6.08,0,0,0,6.35,5.78H100a6.43,6.43,0,0,0,6.95-5.78c0-4.25-2.6-7.77-5.78-7.77v-3.84H181v-5.78a5.78,5.78,0,0,1,0-11.56h17.34a5.78,5.78,0,1,1,0,11.56h0v5.78h28.93a28.89,28.89,0,0,1,28.89,28.9h0v27.78h-3.83c0-3.18-3.45-5.78-7.78-5.78a6.1,6.1,0,0,0-5.78,6.35v17.94A6.42,6.42,0,0,0,244.5,315c4.25,0,7.78-2.59,7.78-5.78h3.83V389h5.78a5.78,5.78,0,0,1,11.56,0v17.44a5.78,5.78,0,0,1-11.56,0h-5.78v28.88h0a28.9,28.9,0,0,1-28.74,29H199.43V460.5c3.19,0,5.78-3.44,5.78-7.77a6.08,6.08,0,0,0-6.35-5.78H181a6.42,6.42,0,0,0-6.94,5.78c0,4.25,2.59,7.77,5.78,7.77h0v3.84H100v5.78a5.78,5.78,0,0,1,0,11.56H82.65a5.78,5.78,0,0,1,0-11.56h0v-5.78H53.73A28.91,28.91,0,0,1,24.8,435.47h0v-28h3.84c0,3.19,3.44,5.78,7.77,5.78a6.08,6.08,0,0,0,5.78-6.35h0V389a6.42,6.42,0,0,0-5.78-6.95c-4.25,0-7.77,2.59-7.77,5.78H24.8V308.06H19a5.78,5.78,0,0,1-11.56,0V290.69a5.78,5.78,0,0,1,5.78-5.78Z" transform="translate(0 0)"/><g class="cls-3"><path class="cls-4" d="M109.25,309.81a39.73,39.73,0,0,1,1.12-6v-19a12.59,12.59,0,0,1,.11-1.46c.08-.57.14-1.06.19-1.46l-.07-1.2a4.88,4.88,0,0,0-2.18.75c-.35.2-.68.38-1,.53a2.18,2.18,0,0,1-.93.22q-1.35,0-1.35-5.69l.08-4.26a6.76,6.76,0,0,0,3-1.35,28.66,28.66,0,0,0,4.12-3.33,15.09,15.09,0,0,0,3-3.71,29.35,29.35,0,0,1,4.64.49c1.94.32,3,.59,3.07.78a17.29,17.29,0,0,1,.29,3.22,20,20,0,0,1-.37,3.6,31.37,31.37,0,0,0-.3,3.44c0,.9.05,1.92.15,3.07s.18,1.94.23,2.39a46.35,46.35,0,0,1,.37,5.47q0,1.43-.15,4.26c-.15,1.5-.22,3-.22,4.42,0,.65,0,1.67.15,3.07a24.29,24.29,0,0,1,.22,3.22q0,16.7-1.72,16.69l-.9-.3a50.05,50.05,0,0,0-5.76.37c-2.4.2-4.15.3-5.24.3a1.62,1.62,0,0,1-1-.22,1,1,0,0,1-.23-.75v-.6A64.39,64.39,0,0,1,109.25,309.81Zm.52-38.7a8.36,8.36,0,0,0-2.13,1.2,2.2,2.2,0,0,0-.71,1.8h.82l5.76-3.52a5.11,5.11,0,0,0-1.57.3l-.37-.68A9.38,9.38,0,0,1,109.77,271.11Zm5.92,3.18a25.6,25.6,0,0,0-6,2.29c-1.72.95-2.58,2-2.58,3.07a7.54,7.54,0,0,0,2.29-.72c1.12-.47,2.2-1,3.25-1.46a20,20,0,0,1,3.37-1.42,11.5,11.5,0,0,0,3.11-1.23c1.12-.63,1.68-1.09,1.68-1.39A22.79,22.79,0,0,0,115.69,274.29Zm-6.82,1.88a13.69,13.69,0,0,0,1.8-.79,6.93,6.93,0,0,0,1.31-1.12,21,21,0,0,1,2-1.73,2.85,2.85,0,0,1,1.58-.67,5.86,5.86,0,0,0,2.54-.93c1.1-.63,1.65-1.06,1.65-1.31a14.18,14.18,0,0,0-4.12,1.34,67.14,67.14,0,0,0-8.16,4.42v1.35C107.65,276.63,108.13,276.44,108.87,276.17Zm5.69,38.28v1.05l1.57-.67a.69.69,0,0,1-.22.56,3.27,3.27,0,0,1-.86.41,1.54,1.54,0,0,0-.86.6H115a32.14,32.14,0,0,0,3.26-.23c1.37-.15,2.06-.3,2.06-.45V313.4a2.17,2.17,0,0,1-1.13.86,5.78,5.78,0,0,0-1.12.57l-.3-.38c.3-.25.71-.57,1.24-1a6,6,0,0,0,1.19-1.16,2.79,2.79,0,0,0,.49-1.46,22.42,22.42,0,0,1-9.73,2l-.6,3.22.6.67Zm-3-4.79a8.5,8.5,0,0,0,2.62-.49,3.6,3.6,0,0,0,1.94-1.16l4.2-1.94-.3-.3-3.9.6v-.3a4.87,4.87,0,0,1-1.42.45c-.85.2-1.67.37-2.47.52A4.52,4.52,0,0,0,111.57,309.66Zm.9,1.8a23.12,23.12,0,0,0,5.09-.75c2.09-.5,3.14-1,3.14-1.57v-1.28l-9.13,3.52Zm-.12-22.95c.08,1,.17,1.81.27,2.36h.3l5.83-2.54a1.63,1.63,0,0,1,.64-.6c.32-.2.54-.32.64-.38a7.23,7.23,0,0,0-1.87.3l-1.35.38a9.49,9.49,0,0,1-3.07.67c-.3,0-.45-.12-.45-.37,1.1-1.9,3.44-3.39,7-4.49l.37-.38a37.05,37.05,0,0,0-4.9,1.16c-2.37.68-3.56,1.29-3.56,1.84C112.24,286.81,112.28,287.49,112.35,288.51Zm6.29,14.79c-.67.3-1.4.59-2.17.86s-1.28.46-1.53.56a14.89,14.89,0,0,1-1.46.52,4.69,4.69,0,0,0-1.24.53h.68a37.61,37.61,0,0,0,4.52-.6,17.23,17.23,0,0,0,3.56-.75v-4.57a11,11,0,0,0-3.07,1.09,7.25,7.25,0,0,0-2.69,1.61,12.15,12.15,0,0,1,3.81-.9q.6,0,.6.75C119.65,302.7,119.32,303,118.64,303.3Zm-6.4,1.12,1.87-.49a7.74,7.74,0,0,0,2-.78l-3.51.67C112.37,303.82,112.24,304,112.24,304.42Zm.3-11.08.08.53c1.59-.1,3.94-1.1,7-3a8.13,8.13,0,0,0-2.39.45l-1.65.53c-1.3.4-2.2.65-2.69.75C112.67,292.64,112.54,292.89,112.54,293.34Zm3.78,3.63q3.11-1.38,3.33-1.83a20.07,20.07,0,0,0-2.84.45l-1.72.37a12.29,12.29,0,0,1-2.47.3v2.1A16.09,16.09,0,0,0,116.32,297Zm-.41,2.44a18,18,0,0,0-3.29.82v2.32l6.73-2.92a1.9,1.9,0,0,1,.6-.49,1.1,1.1,0,0,0,.53-.48C119.23,298.81,117.71,299.06,115.91,299.41Zm-1-21.45c-1.35.43-2,.86-2,1.31v4.57l1.79-.9c2.7-1.3,4-2.12,4-2.47a27.54,27.54,0,0,0-3.33.22c-1.22.15-1.91.23-2.06.23a1.74,1.74,0,0,1,.72-1.5,6.33,6.33,0,0,1,2-.9,6.66,6.66,0,0,0,1.2-.52c.35-.2.52-.42.52-.67A11.27,11.27,0,0,0,114.94,278Zm4.19,16.58,1.57-.37.3-3.3q-.3.6-5.17,2.85c-.44.2-.92.42-1.42.67l-1.49.75v.37A32.72,32.72,0,0,0,119.13,294.54Zm-5.62-2.92.15.15c.1.1.18.15.23.15.6-.25,1.58-.58,3-1s2.43-.73,3.18-.94h.67a1.13,1.13,0,0,0,.07-.37c0-.5-.27-.75-.82-.75a7.55,7.55,0,0,0-2.47.83c-1.2.54-1.9.87-2.09,1a13.35,13.35,0,0,1-1.88.9Zm.68,7.41a24,24,0,0,0,3.07-.52c1.69-.35,2.84-.63,3.44-.83v-1.94c-.6.15-3,1.22-7.19,3.22ZM120,266.4a2.43,2.43,0,0,1-.9,1L117,268.42a34.12,34.12,0,0,1-3.07,1.5l.3.07a14.47,14.47,0,0,0,3.37-.6,11.11,11.11,0,0,1,3.44-.67l.3.3v-1.65a.61.61,0,0,1-.38-.22.64.64,0,0,1-.22-.45,2,2,0,0,1,.07-.56,2.12,2.12,0,0,0,.08-.57C120.6,265.57,120.3,265.85,120,266.4Zm-2.17,5.5a12.59,12.59,0,0,0-3.59,2.13l1.94-.45a17.79,17.79,0,0,0,3.82-1.16,2.39,2.39,0,0,0,1.5-2A15.61,15.61,0,0,0,117.78,271.9Zm.38,10.25a35.82,35.82,0,0,1-4,2,15.63,15.63,0,0,0,4.11-.9l1.13-.34c.45-.12,1-.23,1.57-.34,0-.74,0-1.87-.15-3.36a26,26,0,0,1-.22-3.37l.07-1.05-1.31.64a7.11,7.11,0,0,0-1.61,1l2.25.3v1a11.57,11.57,0,0,0-2.55,1.2,21.18,21.18,0,0,1-2,1,19.77,19.77,0,0,0,2.1-.14,20,20,0,0,1,2.09-.15c.45,0,.68.17.68.52S119.6,281.33,118.16,282.15Zm-2.1-15.75a12.24,12.24,0,0,0-.52,1.57,8.59,8.59,0,0,0,3.89-2.17,9.52,9.52,0,0,0-2.7-.38C116.53,265.42,116.31,265.75,116.06,266.4Zm1.83,19.42a6,6,0,0,0-2.06,1.53,11.54,11.54,0,0,0,2.51-.52,8.35,8.35,0,0,0,2.36-.75v-1.57A25.17,25.17,0,0,0,117.89,285.82Z" transform="translate(0 0)"/><path class="cls-4" d="M132.6,315.05c0-.85-.07-1.72-.07-2.62a12.19,12.19,0,0,1,.37-2.47,8.16,8.16,0,0,0,.3-1.72,1.21,1.21,0,0,0-.6-1.2l.6-.15q4.11.23,6.14.23a2.76,2.76,0,0,1,.86.26,3.88,3.88,0,0,0,1.46.26l1.35-.08a1.77,1.77,0,0,1,1.27.38,2.48,2.48,0,0,1,.37,1.65c0,.44-.12.67-.37.67l.07,3.67a4.72,4.72,0,0,1-.37,2.21,2,2,0,0,1-1.39.86c-.67.15-2,.32-3.93.52l-2.17.22a.63.63,0,0,0-.67-.37,5.71,5.71,0,0,0-.86.34,3.41,3.41,0,0,1-1.16.33.55.55,0,0,1-.26-.15.91.91,0,0,0-.56-.15A18.11,18.11,0,0,1,132.6,315.05Zm1.5-5.76a5.86,5.86,0,0,0-.08,1,5.41,5.41,0,0,0,.23,1.35,25.73,25.73,0,0,1,2.47-1.28,7.19,7.19,0,0,0,3-1.64v-.38h-5.54A6,6,0,0,1,134.1,309.29Zm.3,5.2a5.65,5.65,0,0,1,.15.63l1.49-.89q1.13-.68,2.4-1.35a3.72,3.72,0,0,1,1.16-.45,12.59,12.59,0,0,0,1.53-.49,1.56,1.56,0,0,0,.9-.71l-.75-.07a17.62,17.62,0,0,0-3.63.9,9.23,9.23,0,0,0-3.4,1.49A3.82,3.82,0,0,0,134.4,314.49Zm.75,1.61a2.92,2.92,0,0,1,.89-.3.5.5,0,0,1,.19,0,1.46,1.46,0,0,0,.34,0,8.72,8.72,0,0,0,4.15-.9,2.92,2.92,0,0,0,1.69-2.76l-1.13.44Q135.07,315.43,135.15,316.1Zm4.34-6.36c-.75.35-1.48.71-2.17,1.08s-1.08.69-1.13.94a19.59,19.59,0,0,1,3-.9c.95-.2,1.83-.43,2.66-.68s1.23-.49,1.23-.74a1.15,1.15,0,0,0-.15-.45l-1.65-.68-.3.68Z" transform="translate(0 0)"/><path class="cls-4" d="M154.76,309.81a38.3,38.3,0,0,1,1.12-6v-19a12.59,12.59,0,0,1,.11-1.46c.08-.57.14-1.06.19-1.46l-.08-1.2a4.85,4.85,0,0,0-2.17.75c-.35.2-.68.38-1,.53a2.18,2.18,0,0,1-.93.22q-1.35,0-1.35-5.69l.07-4.26a6.74,6.74,0,0,0,3-1.35,29.22,29.22,0,0,0,4.12-3.33,14.79,14.79,0,0,0,3-3.71,29.13,29.13,0,0,1,4.64.49c2,.32,3,.59,3.07.78a16.46,16.46,0,0,1,.3,3.22,20,20,0,0,1-.37,3.6,31.37,31.37,0,0,0-.3,3.44c0,.9,0,1.92.15,3.07s.17,1.94.22,2.39a44.44,44.44,0,0,1,.38,5.47q0,1.43-.15,4.26c-.15,1.5-.23,3-.23,4.42,0,.65.05,1.67.15,3.07a22.7,22.7,0,0,1,.23,3.22q0,16.7-1.72,16.69l-.9-.3a50.35,50.35,0,0,0-5.77.37c-2.39.2-4.14.3-5.23.3a1.62,1.62,0,0,1-1.05-.22,1,1,0,0,1-.23-.75v-.6A64.39,64.39,0,0,1,154.76,309.81Zm.52-38.7a8.36,8.36,0,0,0-2.13,1.2,2.2,2.2,0,0,0-.71,1.8h.82l5.76-3.52a5.05,5.05,0,0,0-1.57.3l-.37-.68A9.38,9.38,0,0,1,155.28,271.11Zm5.91,3.18a25.52,25.52,0,0,0-5.95,2.29c-1.72.95-2.58,2-2.58,3.07a7.42,7.42,0,0,0,2.28-.72c1.13-.47,2.21-1,3.26-1.46a19.63,19.63,0,0,1,3.37-1.42,11.44,11.44,0,0,0,3.1-1.23c1.13-.63,1.69-1.09,1.69-1.39A22.94,22.94,0,0,0,161.19,274.29Zm-6.81,1.88a13.69,13.69,0,0,0,1.8-.79,7.29,7.29,0,0,0,1.31-1.12,21,21,0,0,1,2-1.73,2.82,2.82,0,0,1,1.57-.67,5.84,5.84,0,0,0,2.55-.93c1.1-.63,1.65-1.06,1.65-1.31a14.09,14.09,0,0,0-4.12,1.34,67.14,67.14,0,0,0-8.16,4.42v1.35C153.16,276.63,153.63,276.44,154.38,276.17Zm5.69,38.28v1.05l1.57-.67a.69.69,0,0,1-.22.56,3.27,3.27,0,0,1-.86.41,1.54,1.54,0,0,0-.86.6h.82a32.14,32.14,0,0,0,3.26-.23c1.37-.15,2.05-.3,2.05-.45V313.4a2.14,2.14,0,0,1-1.12.86,5.78,5.78,0,0,0-1.12.57l-.3-.38c.3-.25.71-.57,1.23-1a5.81,5.81,0,0,0,1.2-1.16,2.79,2.79,0,0,0,.49-1.46,22.45,22.45,0,0,1-9.73,2l-.6,3.22.6.67Zm-3-4.79a8.5,8.5,0,0,0,2.62-.49,3.64,3.64,0,0,0,1.94-1.16l4.19-1.94-.3-.3-3.89.6v-.3a4.87,4.87,0,0,1-1.42.45c-.85.2-1.67.37-2.47.52A4.52,4.52,0,0,0,157.08,309.66Zm.89,1.8a23,23,0,0,0,5.09-.75c2.1-.5,3.15-1,3.15-1.57v-1.28l-9.13,3.52Zm-.11-22.95c.08,1,.16,1.81.26,2.36h.3l5.84-2.54a1.63,1.63,0,0,1,.64-.6l.63-.38a7.29,7.29,0,0,0-1.87.3l-1.34.38a9.54,9.54,0,0,1-3.07.67c-.3,0-.45-.12-.45-.37,1.09-1.9,3.44-3.39,7-4.49l.38-.38a36.69,36.69,0,0,0-4.9,1.16c-2.38.68-3.56,1.29-3.56,1.84C157.75,286.81,157.79,287.49,157.86,288.51Zm6.29,14.79c-.67.3-1.4.59-2.17.86l-1.54.56a14.55,14.55,0,0,1-1.45.52,4.69,4.69,0,0,0-1.24.53h.67a37.42,37.42,0,0,0,4.53-.6,17.23,17.23,0,0,0,3.56-.75v-4.57a11,11,0,0,0-3.07,1.09,7.43,7.43,0,0,0-2.7,1.61,12.2,12.2,0,0,1,3.82-.9q.6,0,.6.75C165.16,302.7,164.82,303,164.15,303.3Zm-6.4,1.12,1.87-.49a7.74,7.74,0,0,0,2-.78l-3.52.67C157.87,303.82,157.75,304,157.75,304.42Zm.3-11.08.07.53q2.4-.15,7-3a8.25,8.25,0,0,0-2.4.45l-1.64.53q-2,.6-2.7.75C158.17,292.64,158.05,292.89,158.05,293.34Zm3.78,3.63q3.1-1.38,3.33-1.83a20.07,20.07,0,0,0-2.84.45l-1.73.37a12.12,12.12,0,0,1-2.47.3v2.1A16.08,16.08,0,0,0,161.83,297Zm-.41,2.44a18.21,18.21,0,0,0-3.3.82v2.32l6.74-2.92a1.9,1.9,0,0,1,.6-.49,1.06,1.06,0,0,0,.52-.48C164.74,298.81,163.21,299.06,161.42,299.41Zm-1-21.45c-1.34.43-2,.86-2,1.31v4.57l1.8-.9c2.7-1.3,4-2.12,4-2.47a27.42,27.42,0,0,0-3.33.22c-1.22.15-1.91.23-2.06.23a1.76,1.76,0,0,1,.71-1.5,6.51,6.51,0,0,1,2-.9,6.26,6.26,0,0,0,1.19-.52c.35-.2.53-.42.53-.67A11.41,11.41,0,0,0,160.44,278Zm4.2,16.58,1.57-.37.3-3.3q-.3.6-5.17,2.85c-.45.2-.92.42-1.42.67l-1.5.75v.37A32.68,32.68,0,0,0,164.64,294.54ZM159,291.62l.15.15c.1.1.18.15.23.15.6-.25,1.58-.58,2.95-1s2.44-.73,3.18-.94h.68a1.13,1.13,0,0,0,.07-.37c0-.5-.27-.75-.82-.75a7.55,7.55,0,0,0-2.47.83c-1.2.54-1.9.87-2.1,1a13.17,13.17,0,0,1-1.87.9Zm.68,7.41a24,24,0,0,0,3.06-.52c1.7-.35,2.85-.63,3.45-.83v-1.94q-.9.22-7.19,3.22Zm5.76-32.63a2.43,2.43,0,0,1-.9,1l-2.09,1.05c-1.1.6-2.13,1.1-3.07,1.5l.3.07a14.41,14.41,0,0,0,3.36-.6,11.22,11.22,0,0,1,3.45-.67l.3.3v-1.65a.61.61,0,0,1-.38-.22.64.64,0,0,1-.22-.45,2,2,0,0,1,.07-.56,2.12,2.12,0,0,0,.08-.57C166.11,265.57,165.81,265.85,165.46,266.4Zm-2.17,5.5A12.42,12.42,0,0,0,159.7,274l1.94-.45a17.79,17.79,0,0,0,3.82-1.16,2.39,2.39,0,0,0,1.5-2A15.44,15.44,0,0,0,163.29,271.9Zm.37,10.25a36.64,36.64,0,0,1-4,2,15.71,15.71,0,0,0,4.11-.9l1.13-.34c.44-.12,1-.23,1.57-.34,0-.74,0-1.87-.15-3.36a26,26,0,0,1-.23-3.37l.08-1.05-1.31.64a6.89,6.89,0,0,0-1.61,1l2.24.3v1a11.73,11.73,0,0,0-2.54,1.2,21.18,21.18,0,0,1-2,1,19.46,19.46,0,0,0,2.09-.14,20.32,20.32,0,0,1,2.1-.15c.45,0,.67.17.67.52S165.11,281.33,163.66,282.15Zm-2.09-15.75A14.49,14.49,0,0,0,161,268a8.57,8.57,0,0,0,3.9-2.17,9.52,9.52,0,0,0-2.7-.38C162,265.42,161.82,265.75,161.57,266.4Zm1.83,19.42a6,6,0,0,0-2.06,1.53,11.54,11.54,0,0,0,2.51-.52,8.35,8.35,0,0,0,2.36-.75v-1.57A24.37,24.37,0,0,0,163.4,285.82Z" transform="translate(0 0)"/></g><g class="cls-3"><path d="M97.81,357.22a15.39,15.39,0,0,1-.86,5.26,11.69,11.69,0,0,1-2.45,4,10.77,10.77,0,0,1-3.76,2.59,12.76,12.76,0,0,1-4.87.91A12.59,12.59,0,0,1,81,369.1a10.81,10.81,0,0,1-3.77-2.59,11.84,11.84,0,0,1-2.45-4,16.31,16.31,0,0,1,0-10.51,11.84,11.84,0,0,1,2.45-4A10.81,10.81,0,0,1,81,345.35a12.23,12.23,0,0,1,4.83-.92,12.57,12.57,0,0,1,4.87.91,10.64,10.64,0,0,1,3.76,2.59A11.83,11.83,0,0,1,97,352,15.34,15.34,0,0,1,97.81,357.22Zm-1.87,0a14.11,14.11,0,0,0-.73-4.71,10.1,10.1,0,0,0-2-3.54A8.83,8.83,0,0,0,90,346.75a11.3,11.3,0,0,0-8.2,0A9,9,0,0,0,78.61,349a10.15,10.15,0,0,0-2.07,3.54,15.56,15.56,0,0,0,0,9.42,10.11,10.11,0,0,0,2.07,3.53,8.85,8.85,0,0,0,3.18,2.21,11.44,11.44,0,0,0,8.2,0,8.68,8.68,0,0,0,3.18-2.21,10.05,10.05,0,0,0,2-3.53A14.07,14.07,0,0,0,95.94,357.22Z" transform="translate(0 0)"/><path d="M109.35,369.74h-1.49l-7.43-17.6h1.33a.56.56,0,0,1,.39.13,1,1,0,0,1,.23.29l5.8,13.89a4.46,4.46,0,0,1,.26.78l.18.74c.06-.25.12-.5.19-.75a6.25,6.25,0,0,1,.25-.77l5.84-13.89a.83.83,0,0,1,.24-.31.61.61,0,0,1,.36-.11h1.28Z" transform="translate(0 0)"/><path d="M126.4,351.86a7.27,7.27,0,0,1,2.75.51,6.22,6.22,0,0,1,2.19,1.49,6.79,6.79,0,0,1,1.45,2.42,9.5,9.5,0,0,1,.53,3.29.84.84,0,0,1-.12.53.46.46,0,0,1-.36.14h-12.7v.34a11.78,11.78,0,0,0,.46,3.48,7,7,0,0,0,1.31,2.52,5.32,5.32,0,0,0,2,1.53,6.65,6.65,0,0,0,2.69.52,7.87,7.87,0,0,0,2.3-.3,8.5,8.5,0,0,0,1.63-.65,7.74,7.74,0,0,0,1.06-.66,1.17,1.17,0,0,1,.56-.29.43.43,0,0,1,.36.18l.46.57a5.07,5.07,0,0,1-1.13,1,7.58,7.58,0,0,1-1.56.78,11.15,11.15,0,0,1-1.83.53,10.22,10.22,0,0,1-2,.19,8.35,8.35,0,0,1-3.29-.63,7,7,0,0,1-2.55-1.83,8.23,8.23,0,0,1-1.64-2.94,12.6,12.6,0,0,1-.58-4,10.93,10.93,0,0,1,.54-3.5,8.1,8.1,0,0,1,1.55-2.76,7.15,7.15,0,0,1,2.5-1.81A8.11,8.11,0,0,1,126.4,351.86Zm0,1.25a6.46,6.46,0,0,0-2.43.43,5.36,5.36,0,0,0-1.87,1.22,6.44,6.44,0,0,0-1.27,1.91,8.58,8.58,0,0,0-.64,2.49h11.58a7.75,7.75,0,0,0-.38-2.54,5.46,5.46,0,0,0-1.1-1.9,4.68,4.68,0,0,0-1.69-1.19A5.57,5.57,0,0,0,126.42,353.11Z" transform="translate(0 0)"/><path d="M137.84,369.74v-17.6h.89a.49.49,0,0,1,.58.55l.14,3.71a8.41,8.41,0,0,1,2.27-3.35,5.14,5.14,0,0,1,3.48-1.21,5.7,5.7,0,0,1,1.47.17,5.81,5.81,0,0,1,1.28.48l-.24,1.17a.31.31,0,0,1-.35.28.88.88,0,0,1-.3-.07l-.49-.16a5.94,5.94,0,0,0-.71-.16,7,7,0,0,0-1-.07,4.56,4.56,0,0,0-3.28,1.24,9.06,9.06,0,0,0-2.08,3.58v11.44Z" transform="translate(0 0)"/><path d="M152.07,369.74V344h1.68v11.22a9.25,9.25,0,0,1,2.71-2.46,6.75,6.75,0,0,1,3.47-.9,6.14,6.14,0,0,1,5.05,2.23q1.81,2.25,1.81,6.73a12.7,12.7,0,0,1-.5,3.61,8.75,8.75,0,0,1-1.49,2.9,7.08,7.08,0,0,1-2.41,1.93,7.33,7.33,0,0,1-3.28.71,6.61,6.61,0,0,1-3.18-.72,6.51,6.51,0,0,1-2.28-2.11l-.11,2.16a.43.43,0,0,1-.47.44Zm7.38-16.54a5.8,5.8,0,0,0-3.17.9,9,9,0,0,0-2.53,2.51v9.29A5.88,5.88,0,0,0,156,368a6.88,6.88,0,0,0,5.55.05,5.4,5.4,0,0,0,1.95-1.6,7.24,7.24,0,0,0,1.19-2.48,11.73,11.73,0,0,0,.4-3.18c0-2.61-.49-4.54-1.45-5.77A5,5,0,0,0,159.45,353.2Z" transform="translate(0 0)"/><path d="M173.38,344v25.74H171.7V344Z" transform="translate(0 0)"/><path d="M182.53,346.07a1.45,1.45,0,0,1-.13.59,1.75,1.75,0,0,1-.35.49,1.77,1.77,0,0,1-.5.34,1.46,1.46,0,0,1-.6.12,1.53,1.53,0,0,1-.6-.12,1.72,1.72,0,0,1-.49-.34,1.39,1.39,0,0,1-.34-.49,1.45,1.45,0,0,1-.12-.59,1.62,1.62,0,0,1,.12-.61,1.43,1.43,0,0,1,.34-.5,1.49,1.49,0,0,1,1.09-.46,1.46,1.46,0,0,1,.6.12,1.58,1.58,0,0,1,.5.34,1.8,1.8,0,0,1,.35.5A1.63,1.63,0,0,1,182.53,346.07Zm-.74,6.07v17.6H180.1v-17.6Z" transform="translate(0 0)"/><path d="M189.87,344v15.69h.81a1.45,1.45,0,0,0,.47-.07,1.4,1.4,0,0,0,.49-.33l7.06-6.71a2.75,2.75,0,0,1,.39-.32,1,1,0,0,1,.53-.12h1.48l-7.76,7.38-.34.32a1.77,1.77,0,0,1-.35.26,1.83,1.83,0,0,1,.47.34l.41.42,8.16,8.88h-1.47a.89.89,0,0,1-.44-.1,1.33,1.33,0,0,1-.39-.31l-7.4-7.92a2,2,0,0,0-.55-.44,2.05,2.05,0,0,0-.77-.11h-.8v8.88h-1.68V344Z" transform="translate(0 0)"/></g></g><g id="top"><path class="cls-1" d="M140.54,61.4a53.69,53.69,0,1,0,53.69,53.69h-.13A53.69,53.69,0,0,0,140.54,61.4Zm-.16,88.47a34.78,34.78,0,1,1,34.78-34.78A34.78,34.78,0,0,1,140.38,149.87Z" transform="translate(0 0)"/><path class="cls-1" d="M256.14,217.29V28.92A28.92,28.92,0,0,0,227.22,0H53.62A28.92,28.92,0,0,0,24.67,28.9h0V217.29A51.17,51.17,0,0,0,.08,260.48a11.57,11.57,0,0,0,23.14,0h0a28.92,28.92,0,0,1,29-28.85H82.64v5.71a5.79,5.79,0,0,0,0,11.57H100a5.79,5.79,0,1,0,0-11.57v-5.71h79.87v-3.84c-3.19,0-5.79-3.45-5.79-7.78a6.45,6.45,0,0,1,7-5.78H199a6.1,6.1,0,0,1,6.43,5.73c0,4.25-2.6,7.78-5.79,7.78v3.89h29.13a28.92,28.92,0,0,1,28.95,28.85,11.57,11.57,0,0,0,23.14,0A51.16,51.16,0,0,0,256.14,217.29ZM140.56,177.34a62.25,62.25,0,1,1,62.25-62.25A62.25,62.25,0,0,1,140.56,177.34Z" transform="translate(0 0)"/></g></svg>