<?xml version="1.0" encoding="utf-8"?>
<!-- Generator: Adobe Illustrator 22.1.0, SVG Export Plug-In . SVG Version: 6.00 Build 0)  -->
<svg version="1.1" id="Layer_1" xmlns="http://www.w3.org/2000/svg" xmlns:xlink="http://www.w3.org/1999/xlink" x="0px" y="0px"
	 viewBox="0 0 280.8 929.3" style="enable-background:new 0 0 280.8 929.3;" xml:space="preserve">
<style type="text/css">
	.st0{fill:#D74127;}
	.st1{fill:#F6F6F7;stroke:#8F9093;stroke-miterlimit:10;}
	.st2{fill:#216393;}
	.st3{display:none;}
	.st4{display:inline;fill:none;stroke:#8F9093;stroke-width:5.6693;stroke-miterlimit:10;stroke-dasharray:22.3983,13.9989;}
	.st5{fill:none;stroke:#000000;stroke-width:2.8346;stroke-miterlimit:10;}
</style>
<title>all-overview-2</title>
<g id="bottom">
	<path class="st0" d="M140.3,760.5c-29.7,0-53.7,24-53.7,53.7l0,0h0.1c0,29.6,24.1,53.6,53.7,53.6c29.6,0,53.6-24.1,53.6-53.7
		C194,784.4,169.9,760.4,140.3,760.5C140.3,760.5,140.3,760.5,140.3,760.5z M140.5,848.9L140.5,848.9c-19.2,0-34.8-15.6-34.8-34.8
		c0-19.2,15.6-34.8,34.8-34.8s34.8,15.6,34.8,34.8C175.3,833.4,159.7,849,140.5,848.9C140.5,849,140.5,849,140.5,848.9L140.5,848.9z
		"/>
	<path class="st0" d="M269.2,657.2c-6.4,0-11.6,5.2-11.6,11.6l0,0c0,16-13,28.9-29,28.8c0,0,0,0,0,0h-30.4v-5.7
		c3.2-0.1,5.7-2.8,5.5-6c-0.1-3-2.5-5.4-5.5-5.5h-17.4c-3.2,0.1-5.7,2.8-5.5,6c0.1,3,2.5,5.4,5.5,5.5v5.7H101v3.8
		c3.2,0,5.8,3.5,5.8,7.8c-0.3,3.5-3.5,6.1-7,5.8h-18c-3.4,0.2-6.2-2.4-6.4-5.7c0,0,0,0,0,0c0-4.3,2.6-7.8,5.8-7.8v-3.9h-29
		c-15.9,0-28.9-12.9-28.9-28.8c0-6.4-5.2-11.6-11.6-11.6c-6.4,0-11.6,5.2-11.6,11.6c0.2,17.7,9.5,34.1,24.7,43.2v188.3
		c0,16,12.9,28.9,28.9,28.9c0,0,0,0,0,0h173.6c16,0,29-12.9,29-28.8c0,0,0,0,0-0.1V712c15.1-9.2,24.4-25.5,24.6-43.2
		C280.8,662.4,275.7,657.2,269.2,657.2C269.3,657.2,269.2,657.2,269.2,657.2z M140.3,876.4c-34.4,0-62.3-27.9-62.3-62.3
		s27.9-62.3,62.3-62.3s62.3,27.9,62.3,62.3S174.7,876.4,140.3,876.4L140.3,876.4z"/>
</g>
<g id="_1.2">
	<path class="st1" d="M13.3,517.6c3.2,0,5.8,2.6,5.8,5.8l0,0h5.8v-28.9c0-16,12.9-28.9,28.9-28.9c0,0,0,0,0,0h27.8v3.8
		c-3.2,0-5.8,3.5-5.8,7.8c0.2,3.3,3,5.9,6.3,5.8H100c3.5,0.3,6.6-2.3,6.9-5.8c0-4.3-2.6-7.8-5.8-7.8v-3.8H181v-5.8
		c-3.2,0-5.8-2.6-5.8-5.8c0-3.2,2.6-5.8,5.8-5.8h17.3c3.2,0,5.8,2.6,5.8,5.8c0,3.2-2.6,5.8-5.8,5.8l0,0v5.8h28.9
		c16,0,28.9,12.9,28.9,28.9c0,0,0,0,0,0l0,0v27.8h-3.8c0-3.2-3.4-5.8-7.8-5.8c-3.3,0.2-5.9,3-5.8,6.3v17.9c-0.3,3.5,2.3,6.6,5.8,7
		c4.3,0,7.8-2.6,7.8-5.8h3.8v79.8h5.8c0-3.2,2.6-5.8,5.8-5.8s5.8,2.6,5.8,5.8v17.4c0,3.2-2.6,5.8-5.8,5.8c-3.2,0-5.8-2.6-5.8-5.8
		h-5.8V668l0,0c0.1,15.9-12.8,28.9-28.7,29h-28v-3.8c3.2,0,5.8-3.5,5.8-7.8c-0.2-3.3-3-5.9-6.4-5.8H181c-3.5-0.3-6.7,2.3-7,5.8
		c0,4.3,2.6,7.8,5.8,7.8l0,0v3.8H100v5.8c3.2,0,5.8,2.6,5.8,5.8c0,3.2-2.6,5.8-5.8,5.8H82.7c-3.2,0-5.8-2.6-5.8-5.8
		c0-3.2,2.6-5.8,5.8-5.8l0,0V697H53.7c-16,0-28.9-12.9-28.9-28.9l0,0v-28h3.8c0,3.2,3.4,5.8,7.8,5.8c3.3-0.2,5.9-3,5.8-6.3l0,0
		v-17.9c0.3-3.5-2.3-6.6-5.8-6.9c-4.3,0-7.8,2.6-7.8,5.8h-3.8v-79.8H19c0,3.2-2.6,5.8-5.8,5.8s-5.8-2.6-5.8-5.8v-17.4
		C7.4,520.2,10,517.6,13.3,517.6C13.2,517.6,13.2,517.6,13.3,517.6L13.3,517.6z"/>
	<g>
		<path class="st2" d="M110.3,566.5c0.2-2,0.6-4,1.1-6v-19c0-0.5,0-1,0.1-1.5c0.1-0.6,0.1-1.1,0.2-1.5l-0.1-1.2
			c-0.8,0.1-1.5,0.3-2.2,0.8c-0.3,0.2-0.7,0.4-1,0.5c-0.3,0.1-0.6,0.2-0.9,0.2c-0.9,0-1.3-1.9-1.3-5.7l0.1-4.3
			c1.1-0.2,2.1-0.7,3-1.3c1.5-1,2.9-2.1,4.1-3.3c1.2-1.1,2.2-2.3,3-3.7c1.6,0,3.1,0.2,4.6,0.5c1.9,0.3,3,0.6,3.1,0.8
			c0.2,1.1,0.3,2.1,0.3,3.2c0,1.2-0.1,2.4-0.4,3.6c-0.2,1.1-0.3,2.3-0.3,3.4c0,0.9,0.1,1.9,0.2,3.1s0.2,2,0.2,2.4
			c0.2,1.8,0.4,3.6,0.4,5.5c0,1,0,2.4-0.2,4.3c-0.2,1.5-0.2,3-0.2,4.4c0,0.7,0,1.7,0.2,3.1c0.1,1.1,0.2,2.1,0.2,3.2
			c0,11.1-0.6,16.7-1.7,16.7l-0.9-0.3c-1.9,0-3.8,0.1-5.8,0.4c-2.4,0.2-4.2,0.3-5.2,0.3c-0.3,0-0.7,0-1-0.2
			c-0.2-0.2-0.3-0.5-0.2-0.7v-0.6C109.7,571.1,109.9,568.8,110.3,566.5z M110.8,527.8c-0.8,0.3-1.5,0.7-2.1,1.2
			c-0.5,0.5-0.8,1.1-0.7,1.8h0.8l5.8-3.5c-0.5,0-1.1,0.1-1.6,0.3l-0.4-0.7C112,527.3,111.4,527.6,110.8,527.8L110.8,527.8z
			 M116.7,531c-2.1,0.5-4.1,1.3-6,2.3c-1.7,0.9-2.6,2-2.6,3.1c0.8-0.1,1.6-0.4,2.3-0.7c1.1-0.5,2.2-1,3.3-1.5
			c1.1-0.6,2.2-1.1,3.4-1.4c1.1-0.3,2.1-0.7,3.1-1.2c1.1-0.6,1.7-1.1,1.7-1.4C120.1,530.2,118.4,530.5,116.7,531L116.7,531z
			 M109.9,532.8c0.6-0.2,1.2-0.5,1.8-0.8c0.5-0.3,0.9-0.7,1.3-1.1c0.6-0.6,1.3-1.2,2-1.7c0.4-0.4,1-0.6,1.6-0.7
			c0.9-0.1,1.8-0.4,2.5-0.9c1.1-0.6,1.7-1.1,1.7-1.3c-1.4,0.2-2.8,0.7-4.1,1.4c-2.8,1.3-5.5,2.8-8.2,4.4v1.4
			C108.7,533.3,109.1,533.1,109.9,532.8L109.9,532.8z M115.6,571.1v1l1.6-0.7c0,0.2-0.1,0.4-0.2,0.6c-0.3,0.2-0.6,0.3-0.9,0.4
			c-0.3,0.1-0.7,0.3-0.9,0.6h0.8c1.1,0,2.2-0.1,3.3-0.2c1.4-0.2,2.1-0.3,2.1-0.5V570c-0.3,0.4-0.7,0.7-1.1,0.9
			c-0.4,0.1-0.8,0.3-1.1,0.6l-0.3-0.4c0.3-0.3,0.7-0.6,1.2-1c0.5-0.3,0.9-0.7,1.2-1.2c0.3-0.4,0.5-0.9,0.5-1.5
			c-3.1,1.4-6.4,2.1-9.7,2l-0.6,3.2l0.6,0.7L115.6,571.1z M112.6,566.3c0.9,0,1.8-0.2,2.6-0.5c0.8-0.2,1.4-0.6,1.9-1.2l4.2-2
			l-0.3-0.3l-3.9,0.6v-0.3c-0.4,0.2-0.9,0.4-1.4,0.5c-0.8,0.2-1.7,0.4-2.5,0.5C112.7,564.5,112.5,565.4,112.6,566.3L112.6,566.3z
			 M113.5,568.1c1.7-0.1,3.4-0.3,5.1-0.8c2.1-0.5,3.1-1,3.1-1.6v-1.3l-9.1,3.5L113.5,568.1z M113.3,545.2c0.1,1,0.2,1.8,0.3,2.4h0.3
			l5.8-2.5c0.2-0.3,0.4-0.5,0.6-0.6l0.6-0.4c-0.6,0-1.3,0.1-1.9,0.3c-0.7,0.2-1.2,0.3-1.3,0.4c-1,0.4-2,0.6-3.1,0.7
			c-0.3,0-0.4-0.1-0.4-0.4c1.1-1.9,3.4-3.4,7-4.5l0.4-0.4c-1.7,0.3-3.3,0.7-4.9,1.2c-2.4,0.7-3.6,1.3-3.6,1.8
			C113.2,543.5,113.3,544.2,113.3,545.2L113.3,545.2z M119.6,560c-0.7,0.3-1.4,0.6-2.2,0.9l-1.5,0.6c-0.3,0.2-0.8,0.3-1.5,0.5
			c-0.4,0.1-0.9,0.3-1.2,0.5h0.7c1.5-0.1,3-0.3,4.5-0.6c1.2-0.1,2.4-0.4,3.6-0.7v-4.6c-1.1,0.2-2.1,0.6-3.1,1.1
			c-1,0.3-1.9,0.9-2.7,1.6c1.2-0.5,2.5-0.8,3.8-0.9c0.4,0,0.6,0.3,0.6,0.7C120.7,559.4,120.3,559.7,119.6,560z M113.2,561.1l1.9-0.5
			c0.7-0.2,1.4-0.4,2-0.8l-3.5,0.7C113.4,560.5,113.2,560.7,113.2,561.1L113.2,561.1z M113.5,550l0.1,0.5c1.6-0.1,3.9-1.1,7-3
			c-0.8,0-1.6,0.2-2.4,0.5l-1.7,0.5c-1.3,0.4-2.2,0.7-2.7,0.8C113.7,549.3,113.5,549.6,113.5,550L113.5,550z M117.3,553.7
			c2.1-0.9,3.2-1.5,3.3-1.8c-1,0.1-1.9,0.2-2.8,0.4l-1.7,0.4c-0.8,0.2-1.6,0.3-2.5,0.3v2C114.9,554.7,116.1,554.2,117.3,553.7
			L117.3,553.7z M116.9,556.1c-1.1,0.2-2.2,0.4-3.3,0.8v2.3l6.7-2.9c0.2-0.2,0.4-0.4,0.6-0.5c0.2-0.1,0.4-0.3,0.5-0.5
			C120.2,555.5,118.7,555.7,116.9,556.1L116.9,556.1z M115.9,534.7c-1.3,0.4-2,0.9-2,1.3v4.6l1.8-0.9c2.7-1.3,4-2.1,4-2.5
			c-1.1,0-2.2,0.1-3.3,0.2c-1.2,0.2-1.9,0.2-2.1,0.2c0-0.6,0.2-1.1,0.7-1.5c0.6-0.4,1.3-0.7,2-0.9c0.4-0.1,0.8-0.3,1.2-0.5
			c0.3-0.2,0.5-0.4,0.5-0.7C117.8,534.1,116.8,534.3,115.9,534.7L115.9,534.7z M120.1,551.3l1.6-0.4l0.3-3.3
			c-0.2,0.4-1.9,1.3-5.2,2.8c-0.4,0.2-0.9,0.4-1.4,0.7l-1.5,0.8v0.4C116,552.1,118.1,551.8,120.1,551.3L120.1,551.3z M114.5,548.3
			l0.2,0.2c0.1,0.1,0.2,0.2,0.2,0.2c0.6-0.3,1.6-0.6,3-1s2.4-0.7,3.2-0.9h0.7c0-0.1,0.1-0.2,0.1-0.4c0-0.5-0.3-0.8-0.8-0.8
			c-0.9,0.1-1.7,0.4-2.5,0.8c-1.2,0.5-1.9,0.9-2.1,1C115.8,547.7,115.2,548,114.5,548.3L114.5,548.3z M115.2,555.7
			c1-0.1,2.1-0.3,3.1-0.5c1.7-0.3,2.8-0.6,3.4-0.8v-2c-0.6,0.2-3,1.2-7.2,3.2L115.2,555.7z M121,523.1c-0.2,0.4-0.5,0.8-0.9,1
			l-2.1,1c-1,0.6-2,1.1-3.1,1.5l0.3,0.1c1.1-0.1,2.3-0.3,3.4-0.6c1.1-0.4,2.3-0.6,3.4-0.7l0.3,0.3V524c-0.3-0.1-0.6-0.4-0.6-0.7
			c0-0.2,0-0.4,0.1-0.6c0.1-0.2,0.1-0.4,0.1-0.6C121.6,522.3,121.3,522.5,121,523.1z M118.8,528.6c-1.3,0.5-2.5,1.2-3.6,2.1l1.9-0.5
			c1.3-0.2,2.6-0.6,3.8-1.2c0.8-0.3,1.4-1.1,1.5-2C121.2,527.4,120,527.9,118.8,528.6L118.8,528.6z M119.2,538.8
			c-1.3,0.7-2.6,1.4-4,2c1.4-0.1,2.8-0.4,4.1-0.9c0.3-0.1,0.7-0.2,1.1-0.3c0.5-0.1,1-0.3,1.6-0.3c0-0.8,0-1.9-0.2-3.4
			c-0.1-1.1-0.2-2.2-0.2-3.4l0.1-1l-1.3,0.6c-0.6,0.3-1.1,0.6-1.6,1l2.3,0.3v1c-0.9,0.3-1.8,0.7-2.6,1.2c-0.5,0.3-1.2,0.7-2,1
			c0.7,0,1.4-0.1,2.1-0.2c0.7-0.1,1.4-0.1,2.1-0.2c0.4,0,0.7,0.2,0.7,0.5C121.3,537.3,120.6,538,119.2,538.8L119.2,538.8z
			 M117.1,523.1c-0.2,0.5-0.4,1-0.5,1.6c1.5-0.4,2.8-1.1,3.9-2.2c-0.9-0.3-1.8-0.4-2.7-0.4C117.5,522.1,117.3,522.4,117.1,523.1
			L117.1,523.1z M118.9,542.5c-0.8,0.4-1.5,0.9-2.1,1.5c0.9-0.1,1.7-0.3,2.5-0.5c0.8-0.1,1.6-0.4,2.4-0.8v-1.6
			C120.8,541.6,119.8,542,118.9,542.5L118.9,542.5z"/>
		<path class="st2" d="M133.6,571.7c0-0.8-0.1-1.7-0.1-2.6c0-0.8,0.2-1.7,0.4-2.5c0.2-0.6,0.3-1.1,0.3-1.7c0.1-0.5-0.2-1-0.6-1.2
			l0.6-0.2c2.7,0.2,4.8,0.2,6.1,0.2c0.3,0,0.6,0.1,0.9,0.3c0.5,0.2,1,0.3,1.5,0.3l1.3-0.1c0.5,0,0.9,0.1,1.3,0.4
			c0.3,0.5,0.4,1.1,0.4,1.7c0,0.5-0.1,0.7-0.4,0.7l0.1,3.7c0.1,0.8-0.1,1.5-0.4,2.2c-0.3,0.5-0.8,0.8-1.4,0.9
			c-0.7,0.2-2,0.3-3.9,0.5l-2.2,0.2c-0.1-0.3-0.4-0.4-0.7-0.4c-0.3,0.1-0.6,0.2-0.9,0.3c-0.4,0.2-0.8,0.3-1.2,0.3
			c-0.1,0-0.2-0.1-0.3-0.2c-0.2-0.1-0.4-0.2-0.6-0.2C133.8,573.5,133.7,572.6,133.6,571.7z M135.1,566c-0.1,0.3-0.1,0.7-0.1,1
			c0,0.5,0.1,0.9,0.2,1.3c0.8-0.5,1.6-0.9,2.5-1.3c1.1-0.3,2.1-0.9,3-1.7V565h-5.5C135.2,565.3,135.2,565.7,135.1,566L135.1,566z
			 M135.4,571.2c0.1,0.2,0.1,0.4,0.1,0.6l1.5-0.9c0.8-0.4,1.6-0.9,2.4-1.3c0.4-0.2,0.8-0.4,1.2-0.4c0.5-0.1,1-0.3,1.5-0.5
			c0.4-0.1,0.7-0.4,0.9-0.7l-0.8-0.1c-1.2,0.2-2.5,0.5-3.6,0.9c-1.2,0.3-2.4,0.8-3.4,1.5C135.3,570.5,135.3,570.9,135.4,571.2
			L135.4,571.2z M136.2,572.8c0.3-0.1,0.6-0.2,0.9-0.3c0.1,0,0.1,0,0.2,0c0.1,0,0.2,0,0.3,0c1.4,0,2.9-0.3,4.1-0.9
			c1.1-0.5,1.7-1.6,1.7-2.8l-1.1,0.5C138.1,571.2,136.1,572.3,136.2,572.8L136.2,572.8z M140.5,566.4c-0.8,0.3-1.5,0.7-2.2,1.1
			s-1.1,0.7-1.1,0.9c1-0.4,2-0.7,3-0.9c0.9-0.2,1.8-0.4,2.6-0.7s1.2-0.5,1.2-0.8c0-0.2-0.1-0.3-0.1-0.5l-1.6-0.7l-0.3,0.7
			L140.5,566.4z"/>
		<path class="st2" d="M150.4,575.6c-0.1-0.1-0.2-0.2-0.3-0.4c0-0.1,0.1-0.2,0.2-0.4c3-3.5,5.6-7.3,7.8-11.4
			c0.7-1.5,2.2-4.3,4.7-8.5c0.3-0.5,1.2-2,2.6-4.6c1.4-2.5,2.6-4.8,3.4-6.7c0.5-0.5,0.7-1.1,0.7-1.8c-0.1-1.4-0.2-2.8-0.6-4.1
			c-0.3-1.7-0.9-3.3-1.6-4.9c-0.7-1.4-1.6-2.2-2.7-2.2c-1.3,0-2.5,0.4-3.6,1.1c-1.4,0.9-2.7,1.8-4,2.8c-0.8,0.3-1.5,1-1.9,1.9
			c-0.2,0.4-0.4,0.7-0.7,1c-0.3,0.2-0.6,0.3-1,0.3c-0.4-1.2-0.7-2.4-0.9-3.6c-0.1-1-0.3-1.9-0.5-2.6c-0.2-0.7-0.5-1.3-0.9-1.9
			c0-0.3,0.1-0.6,0.3-0.9c0.2-0.3,0.5-0.5,0.9-0.8c0.4-0.3,0.8-0.6,1.1-0.9c1.3-2.2,3.4-3.9,5.8-4.8c2.6-1,5.4-1.5,8.3-1.5
			c2.5,0.1,4.9,1,6.9,2.6c2.3,1.6,4.2,3.6,5.8,5.8c0.1,0.3,0.1,0.8,0.2,1.6c0.2,1.2,0.6,2.3,1.1,3.4c0.1,0.4,0.1,0.9,0.1,1.3
			c-0.1,1.6-0.3,3.1-0.6,4.6l-0.4,2.1L177,553c-1.2,2.1-2.6,4.5-4.2,7s-2.8,4.3-3.5,5.3c1.9,0,3.7-0.1,5.5-0.2
			c2.3-0.1,4.1-0.2,5.5-0.2c0.9-0.1,1.8,0.1,2.6,0.7c-0.1,0.4-0.1,0.8-0.1,1.3c0,0.7,0.1,1.6,0.1,2.9c0.2,1,0.2,2,0.2,3
			c0,0.6-0.1,1.1-0.2,1.7c-0.1,0.4-0.5,0.6-1.1,0.6c-0.5,0-1,0-1.5-0.1c-0.4-0.1-0.9-0.1-1.3-0.1c-0.9-0.2-1.8-0.2-2.8-0.2
			c-0.5,0-1,0-1.4,0.1c-0.5,0-0.9,0.2-1.3,0.4c-1.6,0-3.9,0-6.8,0.2c-3.3,0.1-6.1,0.2-8.4,0.2l-6.1-0.1c0.2-0.3,0.5-0.6,0.9-0.8
			c0.3-0.2,0.7-0.3,1.1-0.4c0.4-0.1,0.8-0.2,1.2-0.4c0.6,0,1.7,0.1,3.1,0.1c2.1,0,4.3-0.1,6.6-0.2s3.9-0.2,4.9-0.3v-0.5
			c0.3-0.4,0.6-0.7,0.9-1.1c0.4-0.5,0.8-1,1-1.5c-1,0.6-2.1,1.2-3.3,1.7c-0.9,0.5-1.9,0.8-3,0.9c-0.2,0-0.4,0-0.5-0.1
			c-0.2-0.2-0.3-0.4-0.4-0.6l4.2-4.3c0.1,0,0.2,0,0.3-0.1l0.3-0.2l-0.1-0.3c-1.2,0-2.4,0.3-3.5,0.8c-1.3,0.6-2.6,1.3-3.9,2.2
			c-1.3,0.8-2.7,1.5-4.1,2.2c-1.1,0.5-2.2,0.7-3.4,0.7c-0.4,0-0.9,0.1-1.2,0.4c-0.8,0.7-1.5,1.4-2.2,2.1l-0.3,0.1
			C150.6,575.7,150.5,575.7,150.4,575.6z M157.8,531.7c1.7-0.8,3.4-1.5,5.2-2c1.8-0.6,3.1-1.1,3.9-1.4c-0.3-0.3-0.6-0.4-1-0.4
			c-1.9,0.3-3.7,0.8-5.4,1.5c-2,0.7-4,1.4-5.9,2.4c-0.3,0.2-0.4,0.5-0.4,1.1c0,0.6,0,1.2,0.1,1.8
			C155.2,533.4,156.4,532.4,157.8,531.7z M156.8,529.9c0.3-0.2,0.7-0.4,0.9-0.7c0.4-0.4,0.9-0.7,1.4-0.9c2.7-0.7,5.4-1.3,8.1-1.7
			c0.8-0.1,1.5-0.3,2.3-0.6c1-0.3,2-0.5,3.1-0.6l0.1,0.6c0,0.2-0.1,0.3-0.3,0.3l-3.8,1.6l-0.4,0.4c0.8-0.1,1.7-0.3,2.5-0.5
			c1.4-0.4,2.9-0.7,4.4-0.8c0.2,0,0.4,0,0.6,0.1c-0.4-0.7-1.2-1.1-2-1c-0.1-0.5-0.3-0.9-0.7-1.2c-0.5-0.5-0.9-0.8-1.2-0.8
			c-0.2,0-0.3,0.1-0.4,0.2c-0.1,0.1-0.2,0.2-0.3,0.2c-0.3-0.1-0.6-0.2-0.9-0.4c-0.4-0.3-0.9-0.6-1.3-0.9c-0.3,0-0.5,0.1-0.7,0.3
			c-1.6,0.6-3.1,1.2-4.6,1.9c-1.9,0.8-3.5,1.5-4.9,2c-1.4,0.5-2.8,0.9-4.3,1.2l1.4,1.6C156.1,530.2,156.5,530.1,156.8,529.9
			L156.8,529.9z M160.6,523.8c-1.8,0.5-3.4,1.7-4.6,3.3c0.6,0,1.2-0.1,1.8-0.4c0.7-0.4,1.4-0.8,2.1-1.2c0.6-0.4,1.2-0.7,1.8-1
			c0.5-0.2,1-0.3,1.5-0.3v0.3c0.6-0.5,1.4-0.8,2.2-0.9c0.7-0.1,1.4-0.4,2-0.8l-0.5-0.1C164.7,522.7,162.6,523.1,160.6,523.8
			L160.6,523.8z M165.4,565.7c-1,0.6-2.5,1.5-4.6,2.5l-2,1c-1,0.7-2,1.6-2.8,2.6c1.1-0.2,2.1-0.5,3.1-1c1-0.5,2.2-1.1,3.6-2
			c1.8-1,3-1.6,3.5-1.9c0-0.5,0.1-1,0.4-1.3l7.7-10.9v-0.5c-1.7,0.6-3.3,1.4-4.9,2.3c-1.7,0.8-3.4,1.7-5.1,2.7v0.4
			c0.6-0.1,1.2-0.2,1.7-0.4c1-0.3,1.9-0.5,2.9-0.6c0.6,0,0.9,0.2,0.9,0.6c0,0.5-0.7,1.2-2,2c-1.4,0.9-2.9,1.7-4.4,2.3
			c-1,0.5-2.1,0.9-3.2,1.1c-0.7,0-1.3,0.4-1.7,1c0.3-0.3,1.7-0.7,4-1.2c1.4-0.3,2.9-0.5,4.3-0.6
			C166.9,564.5,166.4,565.1,165.4,565.7L165.4,565.7z M156.6,569.3c1.4-0.3,2.7-0.8,3.8-1.6c1.3-0.6,2.6-1.5,3.6-2.6l-0.4-0.1
			c-1.2,0.1-2.3,0.4-3.4,0.9c-0.8,0.3-1.7,0.5-2.6,0.8l0.4,0.7h-0.7l-1,1.9H156.6z M165.1,554.4l-1.1,0.4c-0.8,1.4-1.5,2.8-2.1,4.3
			c-1.5,3.2-2.3,4.8-2.4,5l3.9-1.7c0.4-0.5,1-0.9,1.7-1.1l0.8-0.3c0.4-0.1,0.8-0.4,1-0.8c-1.1,0.2-2.1,0.3-3.2,0.3l-0.8-0.5
			c-0.1-0.1-0.1-0.2-0.1-0.4c0-0.5,0.6-1.1,1.7-1.8s2.8-1.5,4.9-2.5c0.9-0.3,1.9-0.8,2.7-1.3c-0.4,0.1-1,0.2-1.7,0.4
			s-1.4,0.3-1.8,0.3l-1.4-0.2l-1.5-0.2L165.1,554.4z M167.6,554.1c2.7-0.1,5.4-0.7,8-1.7c0-0.6,0-1.3,0.2-1.9c0.2-0.5,0.4-1,0.6-1.4
			c0.5-0.6,0.9-1.4,1.1-2.2c-0.8,1.2-1.9,2.3-3.2,3l-8.4,3.8C166.4,553.9,167,554,167.6,554.1L167.6,554.1z M166.2,552.4h0.4
			c1.5-0.4,3-1,4.3-1.8c1.4-0.6,2.8-1.4,4.1-2.3c-0.2-0.1-0.4-0.2-0.7-0.2c-1.4,0.1-2.7,0.4-4,0.8c-0.5,0.2-1.1,0.3-1.6,0.4l-1-0.1
			C167.1,550.3,166.6,551.3,166.2,552.4L166.2,552.4z M171.5,567.3c-0.3,0-0.5,0.1-0.8,0.2c-0.3,0.1-0.5,0.3-0.7,0.5
			c-0.4,0.4-1.1,1-1.9,1.9s-1.4,1.4-1.6,1.7v0.3c0.5-0.2,1.1-0.5,1.9-0.9s1.4-0.8,1.9-1c0.5-0.3,1-0.7,1.4-1.1
			c0.5-0.5,1.1-0.8,1.8-0.9c0-0.2-0.1-0.4-0.4-0.5c-0.3-0.1-0.7-0.1-1-0.1C172.1,567.2,171.9,567.3,171.5,567.3L171.5,567.3z
			 M167.4,530.1c0.2,0.1,0.4,0.1,0.6,0.1c1.3-0.1,2.6-0.5,3.7-1.3c-0.9,0-1.7,0-2.6,0.1c-0.7,0.1-1.3,0.2-1.9,0.5
			C167.3,529.8,167.3,530,167.4,530.1L167.4,530.1z M174.4,545.4c-3.7,1.7-5.5,2.7-5.5,2.9c1.6-0.1,3.1-0.4,4.7-0.8
			c1.5-0.4,3-0.9,4.4-1.5v-2.3L174.4,545.4z M169.4,532.8c0.1,0.3,0.1,0.7,0.1,1c0.7-0.3,1.3-0.6,1.9-1c1.1-0.6,2.2-1.3,3.2-2
			l-1.1-0.1c-0.9,0-1.8,0.1-2.7,0.3c-1.1,0.2-1.6,0.5-1.6,0.7C169.3,532.2,169.3,532.5,169.4,532.8L169.4,532.8z M176.6,540.2
			c-1.9,0.7-3.8,1.7-5.4,2.9l-1.3,3.5c2.7-1.1,5.3-2.5,7.7-4.1c-0.5,0.1-1.9,0.3-4.3,0.5c1.6-0.5,3.1-1.2,4.5-2
			c1.1-0.6,1.9-1.6,2.4-2.8C179.9,538.8,178.7,539.4,176.6,540.2L176.6,540.2z M175.9,531.7c-0.9,0.6-1.9,1-2.9,1.4
			c-0.9,0.4-1.7,0.7-2.2,1s-0.8,0.6-0.8,0.9c0,0.1,0,0.2,0.1,0.3l1.3-0.2c0.4-0.1,0.9-0.1,1.3-0.1c1.1-0.1,2.2-0.3,3.3-0.6
			c1.1-0.3,2.1-0.4,3.2-0.5c-0.1-1.3-0.4-2.6-0.9-3.8c-0.6-1.5-1.3-2.2-2.1-2.2l-5.5,2.2c0.9,0,1.9-0.1,2.8-0.4
			c0.9-0.2,1.8-0.3,2.7-0.3c0.4,0,0.7,0.2,0.7,0.6C176.9,530.8,176.5,531.4,175.9,531.7L175.9,531.7z M170.6,537
			c0,0.2,0.1,0.4,0.2,0.6c1.8-0.8,3.6-1.6,5.5-2.2l-1.2-0.1c-2.9,0-4.5,0.4-4.6,1.1C170.5,536.6,170.5,536.8,170.6,537z
			 M176.4,539.3c1.5-0.9,2.4-1.4,2.8-1.6c-0.6,0.2-1.5,0.3-2.8,0.5c-0.4,0.1-1.2,0.3-2.4,0.5c-1.1,0.2-2.1,0.5-3.1,0.8l0.4,2.3
			C171.9,541.8,173.7,541,176.4,539.3L176.4,539.3z M173.3,537.6l-1.8,0.7c0.9,0,1.9-0.1,2.8-0.3c1.2-0.2,2.5-0.5,3.6-0.9
			c1.1-0.4,1.6-0.8,1.6-1.4l-0.1-0.7C177.9,535.8,175.8,536.6,173.3,537.6L173.3,537.6z M176.6,567.4c-0.6,0.5-1.6,1.5-2.8,2.7l-2,2
			h0.6c2-1.1,4.1-2.1,6.2-2.9c0.6-0.2,1.2-0.5,1.8-0.8c0.3-0.2,0.5-0.5,0.5-0.8c0-0.3-0.3-0.5-0.9-0.7c-0.5-0.2-1-0.2-1.5-0.3
			C177.7,566.6,177.1,567,176.6,567.4L176.6,567.4z M179.9,573.1c0.6,0.2,1.1,0.3,1.3,0.3c0-0.3,0-0.6-0.1-0.9
			c-0.1-0.2-0.1-0.5-0.1-0.8c-0.2-0.5-0.2-1-0.2-1.5c0-0.3,0-0.5,0.1-0.8c-0.1,0.2-0.8,0.6-1.9,1.5s-2,1.4-2.7,1.8
			C177.5,572.8,178.7,572.9,179.9,573.1L179.9,573.1z"/>
	</g>
	<g>
		<path d="M86.2,613.9c0,1.8-0.3,3.6-0.9,5.3c-0.5,1.5-1.4,2.8-2.4,4c-1.1,1.1-2.3,2-3.8,2.6c-3.1,1.2-6.6,1.2-9.7,0
			c-1.4-0.6-2.7-1.5-3.8-2.6c-1.1-1.2-1.9-2.5-2.5-4c-1.2-3.4-1.2-7.1,0-10.5c0.5-1.5,1.4-2.8,2.5-4c1.1-1.1,2.3-2,3.8-2.7
			c1.5-0.6,3.2-0.9,4.8-0.9c1.7,0,3.3,0.3,4.9,0.9c1.4,0.6,2.7,1.5,3.8,2.6c1.1,1.2,1.9,2.5,2.4,4C85.9,610.3,86.2,612.1,86.2,613.9
			z M84.3,613.9c0-1.6-0.2-3.2-0.7-4.7c-0.4-1.3-1.1-2.5-2-3.5c-0.9-1-2-1.7-3.2-2.2c-1.3-0.5-2.7-0.8-4.1-0.8
			c-1.4,0-2.8,0.2-4.1,0.8c-1.2,0.5-2.3,1.3-3.2,2.2c-0.9,1-1.6,2.2-2.1,3.5c-1,3.1-1,6.4,0,9.4c0.4,1.3,1.1,2.5,2.1,3.5
			c0.9,1,2,1.7,3.2,2.2c1.3,0.5,2.7,0.8,4.1,0.8c1.4,0,2.8-0.2,4.1-0.8c1.2-0.5,2.3-1.3,3.2-2.2c0.9-1,1.6-2.2,2-3.5
			C84.1,617.1,84.3,615.5,84.3,613.9z"/>
		<path d="M91.2,632.6v-23.8h0.9c0.1,0,0.3,0,0.4,0.1c0.1,0.1,0.2,0.2,0.2,0.3l0.2,2.7c0.7-1,1.7-1.9,2.7-2.5c1.1-0.6,2.3-1,3.5-0.9
			c1.9-0.1,3.8,0.7,5.1,2.3c1.2,1.5,1.8,3.7,1.8,6.7c0,1.2-0.2,2.4-0.5,3.6c-0.3,1.1-0.8,2-1.5,2.9c-0.6,0.8-1.5,1.5-2.4,1.9
			c-1,0.5-2.1,0.7-3.3,0.7c-1.1,0-2.1-0.2-3.1-0.7c-0.9-0.5-1.7-1.1-2.3-1.9v8.6L91.2,632.6z M98.6,609.9c-1.1,0-2.2,0.3-3.2,0.9
			c-1,0.7-1.9,1.5-2.5,2.5v9.2c0.5,0.9,1.3,1.6,2.2,2.1c1.8,0.8,3.8,0.8,5.5,0c0.8-0.4,1.5-0.9,2-1.6c0.5-0.7,0.9-1.6,1.2-2.5
			c0.3-1,0.4-2.1,0.4-3.2c0-2.6-0.5-4.5-1.4-5.8C101.7,610.4,100.2,609.8,98.6,609.9z"/>
		<path d="M119.8,611c-0.1,0.2-0.2,0.2-0.4,0.3c-0.2,0-0.4-0.1-0.5-0.2c-0.3-0.2-0.5-0.3-0.8-0.5c-0.4-0.2-0.8-0.4-1.2-0.5
			c-0.6-0.2-1.2-0.2-1.8-0.2c-0.6,0-1.2,0.1-1.8,0.3c-0.5,0.2-0.9,0.4-1.3,0.7c-0.4,0.3-0.7,0.7-0.9,1.1c-0.2,0.4-0.3,0.8-0.3,1.3
			c0,0.5,0.1,1,0.4,1.4c0.3,0.4,0.7,0.7,1.1,0.9c0.5,0.3,1,0.5,1.6,0.7l1.8,0.6c0.6,0.2,1.2,0.4,1.8,0.6c0.6,0.2,1.1,0.5,1.6,0.9
			c0.5,0.3,0.8,0.8,1.1,1.3c0.3,0.6,0.4,1.2,0.4,1.8c0,0.7-0.1,1.5-0.4,2.1c-0.3,0.7-0.7,1.2-1.2,1.7c-0.6,0.5-1.2,0.9-1.9,1.2
			c-0.8,0.3-1.7,0.4-2.6,0.4c-1.1,0-2.2-0.2-3.2-0.6c-0.9-0.4-1.7-0.9-2.4-1.5l0.4-0.6c0-0.1,0.1-0.2,0.2-0.2c0.1,0,0.2-0.1,0.3-0.1
			c0.2,0,0.4,0.1,0.6,0.3c0.3,0.2,0.6,0.4,0.9,0.6c0.4,0.2,0.9,0.5,1.3,0.6c0.6,0.2,1.3,0.3,2,0.3c0.7,0,1.4-0.1,2-0.3
			c0.5-0.2,1-0.5,1.4-0.8c0.4-0.3,0.7-0.8,0.9-1.3c0.2-0.5,0.3-1,0.3-1.5c0-0.5-0.1-1-0.4-1.5c-0.3-0.4-0.7-0.7-1.1-1
			c-0.5-0.3-1-0.5-1.6-0.7l-1.8-0.6c-0.6-0.2-1.2-0.4-1.8-0.6c-0.6-0.2-1.1-0.5-1.6-0.8c-0.5-0.3-0.8-0.8-1.1-1.3
			c-0.3-0.6-0.5-1.2-0.4-1.8c0-0.6,0.1-1.2,0.4-1.8c0.3-0.6,0.7-1.1,1.2-1.5c0.5-0.4,1.2-0.8,1.8-1c0.8-0.3,1.6-0.4,2.4-0.4
			c1,0,1.9,0.1,2.9,0.5c0.8,0.3,1.6,0.8,2.3,1.4L119.8,611z"/>
		<path d="M143,608.5c0.9,0,1.7,0.2,2.5,0.5c0.8,0.4,1.5,0.9,2,1.5c0.6,0.7,1.1,1.6,1.3,2.5c0.3,1.1,0.5,2.3,0.5,3.5
			c0,0.2,0,0.4-0.1,0.5c-0.1,0.1-0.2,0.2-0.3,0.1h-11.7c0,1.2,0.1,2.3,0.4,3.5c0.2,0.9,0.6,1.8,1.2,2.5c0.5,0.7,1.1,1.2,1.9,1.5
			c0.8,0.3,1.6,0.5,2.4,0.5c0.7,0,1.4-0.1,2.1-0.3c0.5-0.2,1-0.4,1.5-0.6c0.3-0.2,0.6-0.4,0.9-0.6c0.1-0.2,0.3-0.3,0.5-0.3
			c0.2,0,0.3,0.1,0.4,0.2l0.4,0.5c-0.3,0.4-0.7,0.7-1.1,1c-0.5,0.3-0.9,0.6-1.4,0.8c-0.5,0.2-1.1,0.4-1.7,0.5
			c-0.6,0.1-1.2,0.2-1.8,0.2c-1.4,0-2.8-0.4-4-1.2c-1.2-0.9-2.1-2.2-2.5-3.7c-0.2,0.8-0.6,1.6-1.1,2.3c-0.5,0.6-1,1.1-1.7,1.5
			c-0.6,0.4-1.3,0.7-2,0.8c-0.7,0.2-1.3,0.3-2,0.3c-0.7,0-1.4-0.1-2.1-0.3c-0.6-0.2-1.2-0.5-1.7-0.8c-0.5-0.4-0.9-0.9-1.1-1.5
			c-0.3-0.7-0.4-1.5-0.4-2.2c0-0.8,0.2-1.5,0.6-2.1c0.5-0.7,1.2-1.3,2-1.8c1.1-0.6,2.3-1,3.5-1.2c1.7-0.3,3.4-0.5,5.1-0.5V615
			c0.1-1.3-0.3-2.7-1.1-3.8c-0.8-0.9-1.9-1.4-3.1-1.3c-0.7,0-1.5,0.1-2.2,0.4c-0.5,0.2-1,0.5-1.5,0.8c-0.4,0.2-0.7,0.5-1,0.8
			c-0.2,0.2-0.4,0.3-0.7,0.4c-0.1,0-0.2,0-0.3-0.1c-0.1-0.1-0.2-0.1-0.2-0.2l-0.3-0.5c0.8-0.9,1.8-1.6,2.8-2.1
			c1.1-0.5,2.2-0.7,3.4-0.7c1.3-0.1,2.5,0.3,3.5,1.1c0.9,0.8,1.5,1.9,1.7,3.1c0.5-1.2,1.3-2.3,2.4-3.1
			C140.3,608.9,141.6,608.5,143,608.5z M135.6,617.3c-1.5,0-2.9,0.2-4.3,0.4c-1,0.2-2,0.5-3,0.9c-0.7,0.3-1.3,0.8-1.7,1.4
			c-0.4,0.5-0.6,1.1-0.6,1.7c0,0.6,0.1,1.2,0.3,1.7c0.2,0.4,0.5,0.8,0.8,1.1c0.4,0.3,0.8,0.5,1.3,0.7c0.5,0.1,1.1,0.2,1.6,0.2
			c0.8,0,1.5-0.1,2.2-0.4c1.4-0.5,2.5-1.6,3-3c0.3-0.8,0.5-1.6,0.4-2.5L135.6,617.3z M143,609.8c-0.8,0-1.6,0.1-2.3,0.5
			c-0.7,0.3-1.3,0.7-1.8,1.3c-0.5,0.6-0.9,1.3-1.1,2c-0.3,0.8-0.5,1.7-0.5,2.6h10.6c0-0.9-0.1-1.8-0.4-2.7c-0.2-0.7-0.5-1.4-1-2
			c-0.4-0.5-0.9-1-1.5-1.3C144.3,609.9,143.6,609.8,143,609.8L143,609.8z"/>
		<path d="M158.6,626.7c-1,0.1-2-0.3-2.8-1c-0.7-0.8-1.1-1.9-1-3.1v-12h-2.5c-0.1,0-0.2,0-0.3-0.1c-0.1-0.1-0.1-0.2-0.1-0.3v-0.7
			l3-0.2l0.4-6.3c0-0.1,0.1-0.2,0.1-0.3c0.1-0.1,0.2-0.1,0.3-0.1h0.8v6.7h5.5v1.3h-5.5v11.9c0,0.4,0.1,0.8,0.2,1.3
			c0.1,0.3,0.3,0.6,0.5,0.8c0.2,0.2,0.5,0.4,0.8,0.5c0.3,0.1,0.7,0.2,1,0.2c0.4,0,0.7-0.1,1.1-0.2c0.3-0.1,0.5-0.2,0.8-0.4
			c0.2-0.1,0.4-0.3,0.6-0.4c0.1-0.1,0.2-0.2,0.3-0.2c0.1,0,0.2,0.1,0.3,0.2l0.5,0.7c-0.5,0.5-1.1,0.9-1.7,1.2
			C160.1,626.6,159.3,626.7,158.6,626.7z"/>
		<path d="M166.4,626.4v-17.6h0.9c0.3,0,0.5,0.2,0.5,0.4c0,0,0,0,0,0l0.2,2.7c0.8-1,1.7-1.8,2.8-2.5c1.1-0.6,2.3-0.9,3.6-0.9
			c0.9,0,1.8,0.1,2.6,0.5c0.7,0.3,1.3,0.7,1.8,1.3c0.5,0.6,0.9,1.3,1.1,2.1c0.3,0.9,0.4,1.8,0.4,2.8v11.3h-1.7v-11.3
			c0.1-1.4-0.3-2.8-1.1-3.9c-0.9-1-2.2-1.5-3.5-1.4c-1.1,0-2.2,0.3-3.2,0.9c-1,0.6-1.9,1.5-2.7,2.5v13.2H166.4z"/>
		<path d="M188.5,602.8c0,0.2,0,0.4-0.1,0.6c-0.1,0.2-0.2,0.3-0.4,0.5c-0.1,0.1-0.3,0.3-0.5,0.3c-0.4,0.2-0.8,0.2-1.2,0
			c-0.2-0.1-0.3-0.2-0.5-0.3c-0.1-0.1-0.3-0.3-0.3-0.5c-0.1-0.2-0.1-0.4-0.1-0.6c0-0.2,0-0.4,0.1-0.6c0.1-0.2,0.2-0.4,0.3-0.5
			c0.1-0.1,0.3-0.3,0.5-0.3c0.4-0.2,0.8-0.2,1.2,0c0.2,0.1,0.3,0.2,0.5,0.3c0.1,0.1,0.3,0.3,0.4,0.5
			C188.4,602.3,188.5,602.5,188.5,602.8z M187.7,608.8v17.6h-1.7v-17.6H187.7z"/>
		<path d="M194,626.4v-17.6h0.9c0.3,0,0.5,0.2,0.5,0.4c0,0,0,0,0,0l0.2,2.7c0.8-1,1.7-1.8,2.8-2.5c1.1-0.6,2.3-0.9,3.6-0.9
			c0.9,0,1.7,0.1,2.6,0.5c0.7,0.3,1.3,0.7,1.8,1.3c0.5,0.6,0.9,1.3,1.1,2.1c0.3,0.9,0.4,1.8,0.4,2.8v11.3h-1.7v-11.3
			c0.1-1.4-0.3-2.8-1.1-3.9c-0.9-1-2.2-1.5-3.5-1.4c-1.1,0-2.3,0.3-3.2,0.9c-1,0.6-1.9,1.5-2.7,2.5v13.2H194z"/>
		<path d="M218.9,608.5c0.7,0,1.4,0.1,2.1,0.3c0.6,0.2,1.2,0.4,1.8,0.8h4.5v0.6c0,0.3-0.2,0.5-0.5,0.5l-2.7,0.2
			c0.3,0.5,0.6,1,0.8,1.5c0.2,0.6,0.3,1.2,0.3,1.8c0,0.8-0.1,1.6-0.5,2.3c-0.3,0.7-0.7,1.3-1.3,1.8c-0.6,0.5-1.3,0.9-2,1.1
			c-0.8,0.3-1.7,0.4-2.5,0.4c-0.9,0-1.9-0.1-2.8-0.5c-0.5,0.2-0.9,0.6-1.2,1c-0.3,0.3-0.4,0.7-0.4,1.1c0,0.5,0.2,0.9,0.5,1.2
			c0.4,0.3,0.9,0.5,1.4,0.6c0.7,0.1,1.3,0.2,2,0.2l2.3,0.1c0.8,0,1.5,0.1,2.3,0.2c0.7,0.1,1.4,0.3,2,0.6c0.6,0.2,1,0.6,1.4,1.1
			c0.4,0.6,0.6,1.2,0.5,1.9c0,0.7-0.2,1.5-0.6,2.1c-0.4,0.7-0.9,1.3-1.6,1.8c-0.8,0.6-1.6,1-2.5,1.3c-1.1,0.3-2.2,0.5-3.3,0.5
			c-1.1,0-2.2-0.1-3.3-0.4c-0.8-0.2-1.6-0.5-2.3-1c-0.6-0.4-1.1-0.9-1.4-1.5c-0.3-0.6-0.5-1.2-0.5-1.8c0-0.9,0.3-1.7,0.9-2.4
			c0.7-0.7,1.6-1.3,2.5-1.6c-0.5-0.2-1-0.5-1.4-0.9c-0.5-0.7-0.7-1.6-0.4-2.3c0.1-0.3,0.2-0.6,0.4-0.8c0.2-0.3,0.4-0.5,0.7-0.8
			c0.3-0.2,0.6-0.5,0.9-0.6c-0.8-0.5-1.5-1.1-1.9-1.9c-0.5-0.9-0.7-1.8-0.7-2.8c0-0.8,0.1-1.6,0.4-2.3c0.3-0.7,0.7-1.3,1.3-1.8
			c0.6-0.5,1.3-0.9,2-1.2C217.1,608.7,218,608.5,218.9,608.5z M225.4,627.6c0-0.5-0.1-1-0.4-1.3c-0.3-0.4-0.7-0.6-1.2-0.8
			c-0.5-0.2-1.1-0.3-1.7-0.4c-0.6-0.1-1.3-0.1-2-0.2l-2.1-0.1c-0.7,0-1.3-0.1-1.9-0.2c-0.4,0.2-0.8,0.4-1.2,0.6
			c-0.4,0.2-0.7,0.5-1,0.8c-0.3,0.3-0.5,0.6-0.6,1c-0.4,0.8-0.3,1.8,0.2,2.6c0.3,0.5,0.7,0.9,1.2,1.2c0.6,0.4,1.2,0.6,1.9,0.8
			c0.8,0.2,1.7,0.3,2.6,0.3c0.8,0,1.7-0.1,2.5-0.3c0.7-0.2,1.4-0.5,2-0.8c0.5-0.3,1-0.8,1.4-1.3
			C225.2,628.8,225.4,628.2,225.4,627.6L225.4,627.6z M218.9,618.6c0.7,0,1.4-0.1,2-0.3c0.6-0.2,1.1-0.5,1.5-0.9
			c0.4-0.4,0.7-0.9,0.9-1.4c0.4-1.2,0.4-2.4,0-3.6c-0.2-0.5-0.5-1-0.9-1.4c-0.4-0.4-0.9-0.7-1.5-0.9c-1.3-0.4-2.7-0.4-4,0
			c-0.6,0.2-1.1,0.5-1.5,0.9c-0.4,0.4-0.7,0.9-0.9,1.4c-0.4,1.2-0.4,2.4,0,3.6c0.2,0.5,0.5,1,0.9,1.4c0.4,0.4,0.9,0.7,1.5,0.9
			C217.5,618.5,218.2,618.6,218.9,618.6L218.9,618.6z"/>
	</g>
</g>
<g id="_1.1">
	<path class="st1" d="M13.3,284.9c3.2,0,5.8,2.6,5.8,5.8h5.8v-28.9c0-16,12.9-28.9,28.9-28.9h27.8v3.8c-3.2,0-5.8,3.4-5.8,7.8
		c0.2,3.3,3,5.9,6.3,5.8H100c3.5,0.3,6.6-2.3,6.9-5.8c0-4.3-2.6-7.8-5.8-7.8v-3.8H181v-5.8c-3.2,0-5.8-2.6-5.8-5.8
		c0-3.2,2.6-5.8,5.8-5.8h17.3c3.2,0,5.8,2.6,5.8,5.8c0,3.2-2.6,5.8-5.8,5.8c0,0,0,0,0,0l0,0v5.8h28.9c16,0,28.9,12.9,28.9,28.9
		c0,0,0,0,0,0l0,0v27.8h-3.8c0-3.2-3.4-5.8-7.8-5.8c-3.3,0.2-5.9,3-5.8,6.4v17.9c-0.3,3.5,2.2,6.6,5.7,6.9c4.3,0,7.8-2.6,7.8-5.8
		h3.8V389h5.8c0-3.2,2.6-5.8,5.8-5.8c3.2,0,5.8,2.6,5.8,5.8v17.4c0,3.2-2.6,5.8-5.8,5.8c-3.2,0-5.8-2.6-5.8-5.8h-5.8v28.9l0,0
		c0.1,15.9-12.8,28.9-28.7,29h-27.9v-3.8c3.2,0,5.8-3.4,5.8-7.8c-0.2-3.3-3-5.9-6.4-5.8H181c-3.5-0.3-6.6,2.3-6.9,5.8
		c0,4.3,2.6,7.8,5.8,7.8l0,0v3.8H100v5.8c3.2,0,5.8,2.6,5.8,5.8c0,3.2-2.6,5.8-5.8,5.8H82.7c-3.2,0-5.8-2.6-5.8-5.8
		c0-3.2,2.6-5.8,5.8-5.8l0,0v-5.8H53.7c-16,0-28.9-12.9-28.9-28.9l0,0v-28h3.8c0,3.2,3.4,5.8,7.8,5.8c3.3-0.2,5.9-3,5.8-6.4l0,0V389
		c0.3-3.5-2.3-6.6-5.8-7c-4.3,0-7.8,2.6-7.8,5.8h-3.8v-79.8H19c0,3.2-2.6,5.8-5.8,5.8s-5.8-2.6-5.8-5.8v-17.4
		C7.4,287.5,10,284.9,13.3,284.9L13.3,284.9z"/>
	<g>
		<path class="st2" d="M112.3,333.8c0.2-2,0.6-4,1.1-6v-19c0-0.5,0-1,0.1-1.5c0.1-0.6,0.1-1.1,0.2-1.5l-0.1-1.2
			c-0.8,0.1-1.5,0.3-2.2,0.8c-0.3,0.2-0.7,0.4-1,0.5c-0.3,0.1-0.6,0.2-0.9,0.2c-0.9,0-1.3-1.9-1.3-5.7l0.1-4.3
			c1.1-0.2,2.1-0.7,3-1.4c1.5-1,2.9-2.1,4.1-3.3c1.2-1.1,2.2-2.3,3-3.7c1.6,0,3.1,0.2,4.6,0.5c1.9,0.3,3,0.6,3.1,0.8
			c0.2,1.1,0.3,2.1,0.3,3.2c0,1.2-0.1,2.4-0.4,3.6c-0.2,1.1-0.3,2.3-0.3,3.4c0,0.9,0.1,1.9,0.2,3.1s0.2,1.9,0.2,2.4
			c0.2,1.8,0.4,3.6,0.4,5.5c0,1,0,2.4-0.2,4.3c-0.2,1.5-0.2,3-0.2,4.4c0,0.6,0,1.7,0.2,3.1c0.1,1.1,0.2,2.1,0.2,3.2
			c0,11.1-0.6,16.7-1.7,16.7l-0.9-0.3c-1.9,0-3.8,0.1-5.8,0.4c-2.4,0.2-4.2,0.3-5.2,0.3c-0.3,0-0.7,0-1-0.2
			c-0.2-0.2-0.3-0.5-0.2-0.8v-0.6C111.7,338.4,111.9,336.1,112.3,333.8z M112.8,295.1c-0.8,0.3-1.5,0.7-2.1,1.2
			c-0.5,0.5-0.8,1.1-0.7,1.8h0.8l5.8-3.5c-0.5,0-1.1,0.1-1.6,0.3l-0.4-0.7C114,294.6,113.4,294.9,112.8,295.1z M118.7,298.3
			c-2.1,0.5-4.1,1.3-6,2.3c-1.7,1-2.6,2-2.6,3.1c0.8-0.1,1.6-0.4,2.3-0.7c1.1-0.5,2.2-1,3.3-1.5c1.1-0.6,2.2-1.1,3.4-1.4
			c1.1-0.3,2.1-0.7,3.1-1.2c1.1-0.6,1.7-1.1,1.7-1.4C122.1,297.5,120.4,297.8,118.7,298.3L118.7,298.3z M111.9,300.2
			c0.6-0.2,1.2-0.5,1.8-0.8c0.5-0.3,0.9-0.7,1.3-1.1c0.6-0.6,1.3-1.2,2-1.7c0.4-0.4,1-0.6,1.6-0.7c0.9-0.1,1.8-0.4,2.5-0.9
			c1.1-0.6,1.7-1.1,1.7-1.3c-1.4,0.2-2.8,0.7-4.1,1.3c-2.8,1.3-5.5,2.8-8.2,4.4v1.4C110.7,300.6,111.1,300.4,111.9,300.2
			L111.9,300.2z M117.6,338.4v1l1.6-0.7c0,0.2-0.1,0.4-0.2,0.6c-0.3,0.2-0.6,0.3-0.9,0.4c-0.3,0.1-0.7,0.3-0.9,0.6h0.8
			c1.1,0,2.2-0.1,3.3-0.2c1.4-0.1,2.1-0.3,2.1-0.5v-2.3c-0.3,0.4-0.7,0.7-1.1,0.9c-0.4,0.1-0.8,0.3-1.1,0.6l-0.3-0.4
			c0.3-0.3,0.7-0.6,1.2-1c0.4-0.3,0.8-0.7,1.2-1.2c0.3-0.4,0.5-0.9,0.5-1.5c-3.1,1.4-6.4,2.1-9.7,2l-0.6,3.2l0.6,0.7L117.6,338.4z
			 M114.6,333.7c0.9,0,1.8-0.2,2.6-0.5c0.8-0.2,1.4-0.6,1.9-1.2l4.2-1.9l-0.3-0.3l-3.9,0.6v-0.3c-0.4,0.2-0.9,0.4-1.4,0.5
			c-0.8,0.2-1.7,0.4-2.5,0.5C114.7,331.8,114.5,332.7,114.6,333.7L114.6,333.7z M115.5,335.5c1.7-0.1,3.4-0.3,5.1-0.8
			c2.1-0.5,3.1-1,3.1-1.6v-1.3l-9.1,3.5L115.5,335.5z M115.3,312.5c0.1,1,0.2,1.8,0.3,2.4h0.3l5.8-2.5c0.2-0.3,0.4-0.5,0.6-0.6
			c0.3-0.2,0.5-0.3,0.6-0.4c-0.6,0-1.3,0.1-1.9,0.3l-1.3,0.4c-1,0.4-2,0.6-3.1,0.7c-0.3,0-0.4-0.1-0.4-0.4c1.1-1.9,3.4-3.4,7-4.5
			l0.4-0.4c-1.7,0.3-3.3,0.7-4.9,1.2c-2.4,0.7-3.6,1.3-3.6,1.8C115.2,310.8,115.3,311.5,115.3,312.5L115.3,312.5z M121.6,327.3
			c-0.7,0.3-1.4,0.6-2.2,0.9s-1.3,0.5-1.5,0.6c-0.5,0.2-1,0.4-1.5,0.5c-0.4,0.1-0.9,0.3-1.2,0.5h0.7c1.5-0.1,3-0.3,4.5-0.6
			c1.2-0.1,2.4-0.4,3.6-0.8v-4.6c-1.1,0.2-2.1,0.6-3.1,1.1c-1,0.3-1.9,0.9-2.7,1.6c1.2-0.5,2.5-0.8,3.8-0.9c0.4,0,0.6,0.3,0.6,0.8
			C122.7,326.7,122.3,327,121.6,327.3L121.6,327.3z M115.2,328.4l1.9-0.5c0.7-0.2,1.4-0.4,2-0.8l-3.5,0.7
			C115.4,327.8,115.2,328,115.2,328.4L115.2,328.4z M115.5,317.3l0.1,0.5c1.6-0.1,3.9-1.1,7-3c-0.8,0-1.6,0.2-2.4,0.5l-1.7,0.5
			c-1.3,0.4-2.2,0.6-2.7,0.8C115.7,316.6,115.5,316.9,115.5,317.3L115.5,317.3z M119.3,321c2.1-0.9,3.2-1.5,3.3-1.8
			c-1,0.1-1.9,0.2-2.8,0.5l-1.7,0.4c-0.8,0.2-1.6,0.3-2.5,0.3v2.1C116.9,322.1,118.1,321.6,119.3,321L119.3,321z M118.9,323.4
			c-1.1,0.2-2.2,0.4-3.3,0.8v2.3l6.7-2.9c0.2-0.2,0.4-0.4,0.6-0.5c0.2-0.1,0.4-0.3,0.5-0.5C122.2,322.8,120.7,323.1,118.9,323.4
			L118.9,323.4z M117.9,302c-1.3,0.4-2,0.9-2,1.3v4.6l1.8-0.9c2.7-1.3,4-2.1,4-2.5c-1.1,0-2.2,0.1-3.3,0.2c-1.2,0.1-1.9,0.2-2.1,0.2
			c0-0.6,0.2-1.2,0.7-1.5c0.6-0.4,1.3-0.7,2-0.9c0.4-0.1,0.8-0.3,1.2-0.5c0.3-0.2,0.5-0.4,0.5-0.7
			C119.8,301.4,118.8,301.7,117.9,302L117.9,302z M122.1,318.5l1.6-0.4l0.3-3.3c-0.2,0.4-1.9,1.4-5.2,2.9c-0.4,0.2-0.9,0.4-1.4,0.7
			l-1.5,0.8v0.4C118,319.4,120.1,319.1,122.1,318.5L122.1,318.5z M116.5,315.6l0.2,0.1c0.1,0.1,0.2,0.1,0.2,0.1c0.6-0.3,1.6-0.6,3-1
			s2.4-0.7,3.2-0.9h0.7c0-0.1,0.1-0.2,0.1-0.4c0-0.5-0.3-0.8-0.8-0.8c-0.9,0.1-1.7,0.4-2.5,0.8c-1.2,0.5-1.9,0.9-2.1,1
			C117.8,315,117.2,315.3,116.5,315.6L116.5,315.6z M117.1,323c1-0.1,2.1-0.3,3.1-0.5c1.7-0.4,2.8-0.6,3.4-0.8v-1.9
			c-0.6,0.1-3,1.2-7.2,3.2L117.1,323z M123,290.4c-0.2,0.4-0.5,0.8-0.9,1l-2.1,1c-1,0.6-2,1.1-3.1,1.5l0.3,0.1
			c1.1-0.1,2.3-0.3,3.4-0.6c1.1-0.4,2.3-0.6,3.4-0.7l0.3,0.3v-1.6c-0.1,0-0.3-0.1-0.4-0.2c-0.1-0.1-0.2-0.3-0.2-0.5
			c0-0.2,0-0.4,0.1-0.6c0.1-0.2,0.1-0.4,0.1-0.6C123.6,289.6,123.3,289.9,123,290.4z M120.8,295.9c-1.3,0.5-2.5,1.2-3.6,2.1l1.9-0.5
			c1.3-0.2,2.6-0.6,3.8-1.2c0.8-0.3,1.4-1.1,1.5-2C123.2,294.8,122,295.2,120.8,295.9L120.8,295.9z M121.2,306.1
			c-1.3,0.7-2.6,1.4-4,2c1.4-0.1,2.8-0.4,4.1-0.9l1.1-0.3c0.4-0.1,1-0.2,1.6-0.3c0-0.7,0-1.9-0.2-3.4c-0.1-1.1-0.2-2.2-0.2-3.4
			l0.1-1l-1.3,0.6c-0.6,0.3-1.1,0.6-1.6,1l2.3,0.3v1c-0.9,0.3-1.8,0.7-2.6,1.2c-0.6,0.4-1.3,0.7-2,1c0.7,0,1.4-0.1,2.1-0.1
			c0.7-0.1,1.4-0.1,2.1-0.1c0.4,0,0.7,0.2,0.7,0.5S122.6,305.3,121.2,306.1L121.2,306.1z M119.1,290.4c-0.2,0.5-0.4,1-0.5,1.6
			c1.5-0.4,2.8-1.1,3.9-2.2c-0.9-0.3-1.8-0.4-2.7-0.4C119.5,289.4,119.3,289.8,119.1,290.4L119.1,290.4z M120.9,309.8
			c-0.8,0.4-1.5,0.9-2.1,1.5c0.9-0.1,1.7-0.3,2.5-0.5c0.8-0.1,1.6-0.4,2.4-0.8v-1.6C122.8,308.9,121.8,309.3,120.9,309.8
			L120.9,309.8z"/>
		<path class="st2" d="M135.6,339c0-0.9-0.1-1.7-0.1-2.6c0-0.8,0.2-1.7,0.4-2.5c0.2-0.6,0.3-1.1,0.3-1.7c0.1-0.5-0.2-1-0.6-1.2
			l0.6-0.1c2.7,0.2,4.8,0.2,6.1,0.2c0.3,0,0.6,0.1,0.9,0.3c0.5,0.2,1,0.3,1.5,0.3l1.4-0.1c0.5,0,0.9,0.1,1.3,0.4
			c0.3,0.5,0.4,1.1,0.4,1.6c0,0.4-0.1,0.7-0.4,0.7l0.1,3.7c0.1,0.8-0.1,1.5-0.4,2.2c-0.3,0.5-0.8,0.8-1.4,0.9
			c-0.7,0.1-2,0.3-3.9,0.5l-2.2,0.2c-0.1-0.3-0.4-0.4-0.7-0.4c-0.3,0.1-0.6,0.2-0.9,0.3c-0.4,0.2-0.8,0.3-1.2,0.3
			c-0.1,0-0.2-0.1-0.3-0.1c-0.2-0.1-0.4-0.2-0.6-0.1C135.8,340.9,135.7,340,135.6,339z M137.1,333.3c-0.1,0.3-0.1,0.7-0.1,1
			c0,0.5,0.1,0.9,0.2,1.4c0.8-0.5,1.6-0.9,2.5-1.3c1.1-0.3,2.1-0.9,3-1.6v-0.4h-5.5C137.2,332.7,137.2,333,137.1,333.3L137.1,333.3z
			 M137.4,338.5c0.1,0.2,0.1,0.4,0.1,0.6l1.5-0.9c0.8-0.5,1.6-0.9,2.4-1.4c0.4-0.2,0.8-0.4,1.2-0.5c0.5-0.1,1-0.3,1.5-0.5
			c0.4-0.1,0.7-0.4,0.9-0.7l-0.8-0.1c-1.2,0.2-2.5,0.5-3.6,0.9c-1.2,0.3-2.4,0.8-3.4,1.5C137.3,337.9,137.3,338.2,137.4,338.5
			L137.4,338.5z M138.2,340.1c0.3-0.1,0.6-0.2,0.9-0.3c0.1,0,0.1,0,0.2,0c0.1,0,0.2,0,0.3,0c1.4,0,2.9-0.3,4.1-0.9
			c1.1-0.5,1.7-1.6,1.7-2.8l-1.1,0.4C140.1,338.5,138.1,339.7,138.2,340.1L138.2,340.1z M142.5,333.7c-0.8,0.4-1.5,0.7-2.2,1.1
			s-1.1,0.7-1.1,0.9c1-0.4,2-0.7,3-0.9c0.9-0.2,1.8-0.4,2.7-0.7s1.2-0.5,1.2-0.7c0-0.2-0.1-0.3-0.1-0.5l-1.6-0.7L144,333
			L142.5,333.7z"/>
		<path class="st2" d="M157.8,333.8c0.2-2,0.6-4,1.1-6v-19c0-0.5,0-1,0.1-1.5c0.1-0.6,0.1-1.1,0.2-1.5l-0.1-1.2
			c-0.8,0.1-1.5,0.3-2.2,0.8c-0.4,0.2-0.7,0.4-1,0.5c-0.3,0.1-0.6,0.2-0.9,0.2c-0.9,0-1.4-1.9-1.4-5.7l0.1-4.3
			c1.1-0.2,2.1-0.7,3-1.4c1.5-1,2.9-2.1,4.1-3.3c1.2-1.1,2.2-2.3,3-3.7c1.6,0,3.1,0.2,4.6,0.5c2,0.3,3,0.6,3.1,0.8
			c0.2,1.1,0.3,2.1,0.3,3.2c0,1.2-0.1,2.4-0.4,3.6c-0.2,1.1-0.3,2.3-0.3,3.4c0,0.9,0,1.9,0.1,3.1s0.2,1.9,0.2,2.4
			c0.2,1.8,0.4,3.6,0.4,5.5c0,1-0.1,2.4-0.1,4.3c-0.1,1.5-0.2,3-0.2,4.4c0,0.6,0.1,1.7,0.1,3.1c0.2,1.1,0.2,2.1,0.2,3.2
			c0,11.1-0.6,16.7-1.7,16.7l-0.9-0.3c-1.9,0-3.9,0.1-5.8,0.4c-2.4,0.2-4.1,0.3-5.2,0.3c-0.4,0-0.7,0-1.1-0.2
			c-0.2-0.2-0.3-0.5-0.2-0.8v-0.6C157.1,338.4,157.4,336.1,157.8,333.8z M158.3,295.1c-0.8,0.3-1.5,0.7-2.1,1.2
			c-0.5,0.5-0.8,1.1-0.7,1.8h0.8l5.8-3.5c-0.5,0-1.1,0.1-1.6,0.3l-0.4-0.7C159.5,294.6,158.9,294.9,158.3,295.1z M164.2,298.3
			c-2.1,0.5-4.1,1.3-5.9,2.3c-1.7,1-2.6,2-2.6,3.1c0.8-0.1,1.6-0.4,2.3-0.7c1.1-0.5,2.2-1,3.3-1.5c1.1-0.6,2.2-1.1,3.4-1.4
			c1.1-0.3,2.1-0.7,3.1-1.2c1.1-0.6,1.7-1.1,1.7-1.4C167.6,297.5,165.9,297.8,164.2,298.3L164.2,298.3z M157.4,300.2
			c0.6-0.2,1.2-0.5,1.8-0.8c0.5-0.3,0.9-0.7,1.3-1.1c0.6-0.6,1.3-1.2,2-1.7c0.4-0.4,1-0.6,1.6-0.7c0.9-0.1,1.8-0.4,2.6-0.9
			c1.1-0.6,1.6-1.1,1.6-1.3c-1.4,0.2-2.8,0.7-4.1,1.3c-2.8,1.3-5.5,2.8-8.2,4.4v1.4C156.2,300.6,156.6,300.4,157.4,300.2
			L157.4,300.2z M163.1,338.4v1l1.6-0.7c0,0.2-0.1,0.4-0.2,0.6c-0.3,0.2-0.6,0.3-0.9,0.4c-0.3,0.1-0.7,0.3-0.9,0.6h0.8
			c1.1,0,2.2-0.1,3.3-0.2c1.4-0.1,2.1-0.3,2.1-0.5v-2.3c-0.3,0.4-0.7,0.7-1.1,0.9c-0.4,0.1-0.8,0.3-1.1,0.6l-0.3-0.4
			c0.3-0.3,0.7-0.6,1.2-1c0.5-0.3,0.9-0.7,1.2-1.2c0.3-0.4,0.5-0.9,0.5-1.5c-3.1,1.4-6.4,2.1-9.7,2l-0.6,3.2l0.6,0.7L163.1,338.4z
			 M160.1,333.7c0.9,0,1.8-0.2,2.6-0.5c0.8-0.2,1.4-0.6,1.9-1.2l4.2-1.9l-0.3-0.3l-3.9,0.6v-0.3c-0.4,0.2-0.9,0.4-1.4,0.5
			c-0.9,0.2-1.7,0.4-2.5,0.5C160.3,331.8,160,332.7,160.1,333.7L160.1,333.7z M161,335.5c1.7-0.1,3.4-0.3,5.1-0.8
			c2.1-0.5,3.1-1,3.1-1.6v-1.3l-9.1,3.5L161,335.5z M160.9,312.5c0.1,1,0.2,1.8,0.3,2.4h0.3l5.8-2.5c0.2-0.3,0.4-0.5,0.6-0.6
			l0.6-0.4c-0.6,0-1.3,0.1-1.9,0.3l-1.3,0.4c-1,0.4-2,0.6-3.1,0.7c-0.3,0-0.4-0.1-0.4-0.4c1.1-1.9,3.4-3.4,7-4.5l0.4-0.4
			c-1.7,0.3-3.3,0.7-4.9,1.2c-2.4,0.7-3.6,1.3-3.6,1.8C160.8,310.8,160.8,311.5,160.9,312.5L160.9,312.5z M167.1,327.3
			c-0.7,0.3-1.4,0.6-2.2,0.9l-1.5,0.6c-0.5,0.2-1,0.4-1.4,0.5c-0.4,0.1-0.9,0.3-1.2,0.5h0.7c1.5-0.1,3-0.3,4.5-0.6
			c1.2-0.1,2.4-0.4,3.6-0.8v-4.6c-1.1,0.2-2.1,0.6-3.1,1.1c-1,0.3-1.9,0.9-2.7,1.6c1.2-0.5,2.5-0.8,3.8-0.9c0.4,0,0.6,0.3,0.6,0.8
			C168.2,326.7,167.8,327,167.1,327.3L167.1,327.3z M160.7,328.4l1.9-0.5c0.7-0.2,1.4-0.4,2-0.8l-3.5,0.7
			C160.9,327.8,160.8,328,160.7,328.4L160.7,328.4z M161,317.3l0.1,0.5c1.6-0.1,3.9-1.1,7-3c-0.8,0-1.6,0.2-2.4,0.5l-1.6,0.5
			c-1.3,0.4-2.2,0.6-2.7,0.8C161.2,316.6,161.1,316.9,161,317.3L161,317.3z M164.8,321c2.1-0.9,3.2-1.5,3.3-1.8
			c-1,0.1-1.9,0.2-2.8,0.5l-1.7,0.4c-0.8,0.2-1.6,0.3-2.5,0.3v2.1C162.4,322.1,163.7,321.6,164.8,321L164.8,321z M164.4,323.4
			c-1.1,0.2-2.2,0.4-3.3,0.8v2.3l6.7-2.9c0.2-0.2,0.4-0.4,0.6-0.5c0.2-0.1,0.4-0.3,0.5-0.5C167.7,322.8,166.2,323.1,164.4,323.4
			L164.4,323.4z M163.4,302c-1.3,0.4-2,0.9-2,1.3v4.6l1.8-0.9c2.7-1.3,4-2.1,4-2.5c-1.1,0-2.2,0.1-3.3,0.2c-1.2,0.1-1.9,0.2-2.1,0.2
			c0-0.6,0.2-1.1,0.7-1.5c0.6-0.4,1.3-0.7,2-0.9c0.4-0.1,0.8-0.3,1.2-0.5c0.4-0.2,0.5-0.4,0.5-0.7
			C165.3,301.4,164.3,301.7,163.4,302L163.4,302z M167.6,318.5l1.6-0.4l0.3-3.3c-0.2,0.4-1.9,1.4-5.2,2.9c-0.4,0.2-0.9,0.4-1.4,0.7
			l-1.5,0.8v0.4C163.5,319.4,165.6,319.1,167.6,318.5L167.6,318.5z M162,315.6l0.1,0.1c0.1,0.1,0.2,0.1,0.2,0.1
			c0.6-0.3,1.6-0.6,2.9-1s2.4-0.7,3.2-0.9h0.7c0-0.1,0.1-0.2,0.1-0.4c0-0.5-0.3-0.8-0.8-0.8c-0.9,0.1-1.7,0.4-2.5,0.8
			c-1.2,0.5-1.9,0.9-2.1,1C163.3,315,162.6,315.3,162,315.6L162,315.6z M162.7,323c1-0.1,2.1-0.3,3.1-0.5c1.7-0.4,2.9-0.6,3.4-0.8
			v-1.9c-0.6,0.1-3,1.2-7.2,3.2L162.7,323z M168.4,290.4c-0.2,0.4-0.5,0.8-0.9,1l-2.1,1c-1.1,0.6-2.1,1.1-3.1,1.5l0.3,0.1
			c1.1-0.1,2.3-0.3,3.4-0.6c1.1-0.4,2.3-0.6,3.4-0.7l0.3,0.3v-1.6c-0.1,0-0.3-0.1-0.4-0.2c-0.1-0.1-0.2-0.3-0.2-0.5
			c0-0.2,0-0.4,0.1-0.6c0.1-0.2,0.1-0.4,0.1-0.6C169.1,289.6,168.8,289.9,168.4,290.4L168.4,290.4z M166.3,295.9
			c-1.3,0.5-2.5,1.2-3.6,2.1l1.9-0.5c1.3-0.2,2.6-0.6,3.8-1.2c0.8-0.3,1.4-1.1,1.5-2C168.7,294.7,167.4,295.2,166.3,295.9
			L166.3,295.9z M166.6,306.1c-1.3,0.7-2.6,1.4-4,2c1.4-0.1,2.8-0.4,4.1-0.9l1.1-0.3c0.4-0.1,1-0.2,1.6-0.3c0-0.7,0-1.9-0.1-3.4
			c-0.1-1.1-0.2-2.2-0.2-3.4l0.1-1l-1.3,0.6c-0.6,0.3-1.1,0.6-1.6,1l2.2,0.3v1c-0.9,0.3-1.7,0.7-2.5,1.2c-0.6,0.4-1.3,0.7-2,1
			c0.7,0,1.4-0.1,2.1-0.1c0.7-0.1,1.4-0.1,2.1-0.1c0.4,0,0.7,0.2,0.7,0.5S168.1,305.3,166.6,306.1L166.6,306.1z M164.5,290.4
			c-0.2,0.5-0.4,1.1-0.5,1.6c1.5-0.4,2.8-1.1,3.9-2.2c-0.9-0.3-1.8-0.4-2.7-0.4C165,289.4,164.8,289.8,164.5,290.4L164.5,290.4z
			 M166.4,309.8c-0.8,0.4-1.5,0.9-2.1,1.5c0.9-0.1,1.7-0.3,2.5-0.5c0.8-0.1,1.6-0.4,2.4-0.8v-1.6
			C168.2,308.9,167.3,309.3,166.4,309.8L166.4,309.8z"/>
	</g>
	<g>
		<path d="M100.8,381.2c0,1.8-0.3,3.6-0.9,5.3c-0.5,1.5-1.4,2.8-2.4,4c-1.1,1.1-2.3,2-3.8,2.6c-1.5,0.6-3.2,0.9-4.9,0.9
			c-1.7,0-3.3-0.3-4.9-0.9c-1.4-0.6-2.7-1.5-3.8-2.6c-1.1-1.2-1.9-2.5-2.4-4c-1.2-3.4-1.2-7.1,0-10.5c0.5-1.5,1.4-2.8,2.4-4
			c1.1-1.1,2.3-2,3.8-2.6c1.5-0.6,3.2-0.9,4.8-0.9c1.7,0,3.3,0.3,4.9,0.9c1.4,0.6,2.7,1.5,3.8,2.6c1.1,1.2,2,2.6,2.5,4.1
			C100.6,377.7,100.8,379.4,100.8,381.2z M98.9,381.2c0-1.6-0.2-3.2-0.7-4.7c-0.4-1.3-1.1-2.5-2-3.5c-0.9-1-2-1.7-3.2-2.2
			c-2.6-1-5.6-1-8.2,0c-1.2,0.5-2.3,1.3-3.2,2.3c-0.9,1-1.6,2.2-2.1,3.5c-1,3.1-1,6.4,0,9.4c0.4,1.3,1.1,2.5,2.1,3.5
			c0.9,1,2,1.7,3.2,2.2c2.6,1,5.6,1,8.2,0c1.2-0.5,2.3-1.2,3.2-2.2c0.9-1,1.6-2.2,2-3.5C98.7,384.4,99,382.8,98.9,381.2z"/>
		<path d="M112.3,393.7h-1.5l-7.4-17.6h1.3c0.1,0,0.3,0,0.4,0.1c0.1,0.1,0.2,0.2,0.2,0.3l5.8,13.9c0.1,0.3,0.2,0.5,0.3,0.8l0.2,0.7
			c0.1-0.3,0.1-0.5,0.2-0.8c0.1-0.3,0.2-0.5,0.3-0.8l5.8-13.9c0.1-0.1,0.1-0.2,0.2-0.3c0.1-0.1,0.2-0.1,0.4-0.1h1.3L112.3,393.7z"/>
		<path d="M129.4,375.9c0.9,0,1.9,0.2,2.8,0.5c0.8,0.3,1.6,0.8,2.2,1.5c0.6,0.7,1.1,1.5,1.4,2.4c0.4,1.1,0.5,2.2,0.5,3.3
			c0,0.2,0,0.4-0.1,0.5c-0.1,0.1-0.2,0.1-0.4,0.1h-12.7v0.3c0,1.2,0.1,2.3,0.5,3.5c0.3,0.9,0.7,1.8,1.3,2.5c0.5,0.7,1.2,1.2,2,1.5
			c0.9,0.4,1.8,0.5,2.7,0.5c0.8,0,1.6-0.1,2.3-0.3c0.6-0.2,1.1-0.4,1.6-0.6c0.4-0.2,0.7-0.4,1.1-0.7c0.2-0.1,0.4-0.2,0.6-0.3
			c0.1,0,0.3,0.1,0.4,0.2l0.5,0.6c-0.3,0.4-0.7,0.7-1.1,1c-0.5,0.3-1,0.6-1.6,0.8c-0.6,0.2-1.2,0.4-1.8,0.5c-0.7,0.1-1.3,0.2-2,0.2
			c-1.1,0-2.2-0.2-3.3-0.6c-1-0.4-1.8-1-2.6-1.8c-0.7-0.9-1.3-1.9-1.6-2.9c-0.4-1.3-0.6-2.6-0.6-4c0-1.2,0.2-2.4,0.5-3.5
			c0.3-1,0.9-2,1.6-2.8c0.7-0.8,1.5-1.4,2.5-1.8C127.1,376,128.2,375.8,129.4,375.9z M129.4,377.1c-0.8,0-1.7,0.1-2.4,0.4
			c-0.7,0.3-1.3,0.7-1.9,1.2c-0.5,0.6-1,1.2-1.3,1.9c-0.3,0.8-0.6,1.6-0.6,2.5h11.6c0-0.9-0.1-1.7-0.4-2.5c-0.2-0.7-0.6-1.3-1.1-1.9
			c-0.5-0.5-1-0.9-1.7-1.2C130.9,377.2,130.2,377.1,129.4,377.1L129.4,377.1z"/>
		<path d="M140.8,393.7v-17.6h0.9c0.3-0.1,0.5,0.1,0.6,0.4c0,0.1,0,0.1,0,0.2l0.1,3.7c0.5-1.3,1.3-2.4,2.3-3.4
			c1-0.8,2.2-1.3,3.5-1.2c0.5,0,1,0,1.5,0.2c0.4,0.1,0.9,0.3,1.3,0.5l-0.2,1.2c0,0.2-0.2,0.3-0.3,0.3c0,0,0,0,0,0
			c-0.1,0-0.2,0-0.3-0.1l-0.5-0.2c-0.2-0.1-0.5-0.1-0.7-0.2c-0.3,0-0.7-0.1-1-0.1c-1.2,0-2.4,0.4-3.3,1.2c-1,1-1.7,2.2-2.1,3.6v11.4
			L140.8,393.7z"/>
		<path d="M155.1,393.7V368h1.7v11.2c0.7-1,1.7-1.8,2.7-2.5c1.1-0.6,2.3-0.9,3.5-0.9c1.9-0.1,3.8,0.7,5.1,2.2
			c1.2,1.5,1.8,3.7,1.8,6.7c0,1.2-0.2,2.4-0.5,3.6c-0.3,1.1-0.8,2-1.5,2.9c-0.7,0.8-1.5,1.5-2.4,1.9c-1,0.5-2.1,0.7-3.3,0.7
			c-1.1,0-2.2-0.2-3.2-0.7c-0.9-0.5-1.7-1.2-2.3-2.1l-0.1,2.2c0,0.2-0.2,0.4-0.4,0.4c0,0,0,0-0.1,0L155.1,393.7z M162.5,377.2
			c-1.1,0-2.2,0.3-3.2,0.9c-1,0.7-1.9,1.5-2.5,2.5v9.3c0.6,0.9,1.3,1.6,2.2,2.1c1.8,0.8,3.8,0.8,5.6,0c0.8-0.4,1.4-0.9,1.9-1.6
			c0.6-0.7,1-1.6,1.2-2.5c0.3-1,0.4-2.1,0.4-3.2c0-2.6-0.5-4.5-1.4-5.8C165.6,377.8,164.1,377.1,162.5,377.2L162.5,377.2z"/>
		<path d="M176.4,368v25.7h-1.7V368H176.4z"/>
		<path d="M185.5,370.1c0,0.2,0,0.4-0.1,0.6c-0.1,0.2-0.2,0.3-0.4,0.5c-0.1,0.1-0.3,0.3-0.5,0.3c-0.2,0.1-0.4,0.1-0.6,0.1
			c-0.2,0-0.4,0-0.6-0.1c-0.2-0.1-0.3-0.2-0.5-0.3c-0.1-0.1-0.3-0.3-0.3-0.5c-0.1-0.2-0.1-0.4-0.1-0.6c0-0.2,0-0.4,0.1-0.6
			c0.1-0.2,0.2-0.4,0.3-0.5c0.3-0.3,0.7-0.5,1.1-0.5c0.2,0,0.4,0,0.6,0.1c0.2,0.1,0.4,0.2,0.5,0.3c0.1,0.1,0.3,0.3,0.4,0.5
			C185.5,369.7,185.5,369.9,185.5,370.1z M184.8,376.1v17.6h-1.7v-17.6H184.8z"/>
		<path d="M192.9,368v15.7h0.8c0.2,0,0.3,0,0.5-0.1c0.2-0.1,0.4-0.2,0.5-0.3l7.1-6.7c0.1-0.1,0.3-0.2,0.4-0.3
			c0.2-0.1,0.3-0.1,0.5-0.1h1.5l-7.8,7.4l-0.3,0.3c-0.1,0.1-0.2,0.2-0.4,0.3c0.2,0.1,0.3,0.2,0.5,0.3l0.4,0.4l8.2,8.9h-1.5
			c-0.2,0-0.3,0-0.4-0.1c-0.1-0.1-0.3-0.2-0.4-0.3l-7.4-7.9c-0.2-0.2-0.3-0.3-0.6-0.4c-0.2-0.1-0.5-0.1-0.8-0.1h-0.8v8.9h-1.7V368
			H192.9z"/>
	</g>
</g>
<g id="top">
	<path class="st0" d="M140.5,61.4c-29.7,0-53.7,24-53.7,53.7s24,53.7,53.7,53.7s53.7-24,53.7-53.7v0h-0.1
		C194.1,85.5,170.1,61.5,140.5,61.4z M140.4,149.9c-19.2,0-34.8-15.6-34.8-34.8s15.6-34.8,34.8-34.8s34.8,15.6,34.8,34.8l0,0
		C175.2,134.3,159.6,149.9,140.4,149.9L140.4,149.9z"/>
	<path class="st0" d="M256.1,217.3V28.9c0-16-12.9-28.9-28.9-28.9c0,0,0,0,0,0H53.6c-16,0-28.9,12.9-28.9,28.9c0,0,0,0,0,0l0,0
		v188.4c-15.1,9.2-24.4,25.5-24.6,43.2c0,6.4,5.2,11.6,11.6,11.6c6.4,0,11.6-5.2,11.6-11.6l0,0c0-16,13-28.9,29-28.9c0,0,0,0,0,0
		h30.4v5.7c-3.2,0.1-5.7,2.8-5.5,6c0.1,3,2.5,5.4,5.5,5.5H100c3.2,0.1,5.9-2.3,6-5.5c0.1-3.2-2.3-5.9-5.5-6c-0.2,0-0.3,0-0.5,0v-5.7
		h79.9v-3.8c-3.2,0-5.8-3.4-5.8-7.8c0.4-3.5,3.5-6.1,7-5.8H199c3.4-0.2,6.2,2.4,6.4,5.7c0,4.3-2.6,7.8-5.8,7.8v3.9h29.1
		c16,0,28.9,12.9,28.9,28.8c0,6.4,5.2,11.6,11.6,11.6c6.4,0,11.5-5.2,11.6-11.6C280.6,242.8,271.3,226.4,256.1,217.3z M140.6,177.3
		c-34.4,0-62.3-27.9-62.3-62.3s27.9-62.3,62.3-62.3s62.3,27.9,62.3,62.3S174.9,177.3,140.6,177.3L140.6,177.3z"/>
</g>
<g class="st3">
	<path class="st4" d="M228.4,463.4H52.8c-15.1,0-27.3-12.2-27.3-27.3V260.5c0-15.1,12.2-27.3,27.3-27.3h175.6
		c15.1,0,27.3,12.2,27.3,27.3v175.6C255.6,451.2,243.4,463.4,228.4,463.4z"/>
</g>
<line class="st5" x1="74.2" y1="401.3" x2="211.5" y2="401.3"/>
</svg>
