<?xml version="1.0" encoding="utf-8"?>
<!-- Generator: Adobe Illustrator 22.1.0, SVG Export Plug-In . SVG Version: 6.00 Build 0)  -->
<svg version="1.1" xmlns="http://www.w3.org/2000/svg" xmlns:xlink="http://www.w3.org/1999/xlink" x="0px" y="0px"
	 viewBox="0 0 280.8 929.3" style="enable-background:new 0 0 280.8 929.3;" xml:space="preserve">
<style type="text/css">
	.st0{fill:#D74127;}
	.st1{fill:#F6F6F7;stroke:#8F9093;stroke-miterlimit:10;}
	.st2{fill:#216393;}
	.st3{font-family:'CabinSketch-Bold';}
	.st4{font-size:74.85px;}
	.st5{font-family:'Lato-Light';}
	.st6{font-size:35.38px;}
</style>
<g id="bottom_1_">
	<path class="st0" d="M140.3,760.5c-29.7,0-53.7,24-53.7,53.7h0.1c0,29.6,24,53.6,53.6,53.7c29.7,0,53.7-24,53.7-53.7
		S170,760.5,140.3,760.5z M140.5,849L140.5,849c-19.2,0-34.8-15.6-34.8-34.8s15.6-34.8,34.8-34.8s34.8,15.6,34.8,34.8
		C175.2,833.4,159.7,849,140.5,849z"/>
	<path class="st0" d="M269.2,657.2c-6.4,0-11.6,5.2-11.6,11.6c0,0,0,0,0,0c0,16-13,28.9-29,28.8h-1.5h-28.9v-5.7
		c3.2,0,5.8-2.6,5.8-5.8s-2.6-5.8-5.8-5.8h-17.4c-3.2,0-5.8,2.6-5.8,5.8s2.6,5.8,5.8,5.8v5.7H101v3.8c3.2,0,5.8,3.4,5.8,7.8
		c-0.3,3.5-3.4,6.1-7,5.8H81.9c-3.4,0.2-6.2-2.4-6.4-5.7c0-4.3,2.6-7.8,5.8-7.8v-3.9H52.1c-16,0-28.9-12.9-28.9-28.8
		c0-6.4-5.2-11.6-11.6-11.6c-6.4,0-11.6,5.2-11.6,11.6c0.2,17.7,9.5,34,24.7,43.2v188.4c0,16,12.9,28.9,28.9,28.9h173.6
		c16,0,28.9-12.9,28.9-28.9V712c15.1-9.2,24.4-25.5,24.6-43.2C280.8,662.4,275.6,657.2,269.2,657.2z M140.3,876.4
		c-34.4,0-62.3-27.9-62.3-62.3c0-34.4,27.9-62.3,62.3-62.3c34.4,0,62.3,27.9,62.3,62.3C202.5,848.6,174.7,876.4,140.3,876.4z"/>
</g>
<g id="_x31_.2_1_">
	<path class="st1" d="M13.3,517.6c3.2,0,5.8,2.6,5.8,5.8h5.8v-28.9c0-16,12.9-28.9,28.9-28.9l0,0h27.8v3.8c-3.2,0-5.8,3.4-5.8,7.8
		c0.2,3.3,3,5.9,6.3,5.8H100c3.5,0.3,6.6-2.3,6.9-5.8c0-4.3-2.6-7.8-5.8-7.8v-3.8H181v-5.8c-3.2,0-5.8-2.6-5.8-5.8
		c0-3.2,2.6-5.8,5.8-5.8h17.3c3.2,0,5.8,2.6,5.8,5.8c0,3.2-2.6,5.8-5.8,5.8l0,0v5.8h28.9c16,0,28.9,12.9,28.9,28.9c0,0,0,0,0,0l0,0
		v27.8h-3.8c0-3.2-3.4-5.8-7.8-5.8c-3.3,0.2-5.9,3-5.8,6.3v17.9c-0.3,3.5,2.3,6.6,5.8,6.9c4.3,0,7.8-2.6,7.8-5.8h3.8v79.8h5.8
		c0-3.2,2.6-5.8,5.8-5.8c3.2,0,5.8,2.6,5.8,5.8c0,0,0,0,0,0v17.4c0,3.2-2.6,5.8-5.8,5.8c-3.2,0-5.7-2.6-5.8-5.8h-5.8V668l0,0
		c0.1,16-12.8,29-28.7,29.1c0,0-0.1,0-0.1,0h-27.8v-3.8c3.2,0,5.8-3.4,5.8-7.8c-0.2-3.3-3-5.9-6.3-5.8H181c-3.5-0.3-6.6,2.3-6.9,5.8
		c0,4.3,2.6,7.8,5.8,7.8l0,0v3.8H100v5.8c3.2,0,5.8,2.6,5.8,5.8c0,3.2-2.6,5.8-5.8,5.8H82.6c-3.2,0-5.8-2.6-5.8-5.8
		c0-3.2,2.6-5.8,5.8-5.8c0,0,0,0,0,0l0,0V697H53.7c-16,0-28.9-12.9-28.9-28.9c0,0,0,0,0,0l0,0l0,0v-28h3.8c0,3.2,3.4,5.8,7.8,5.8
		c3.3-0.2,5.9-3,5.8-6.3l0,0v-17.9c0.3-3.5-2.3-6.6-5.8-6.9c-4.3,0-7.8,2.6-7.8,5.8h-3.8v-79.8H19c0,3.2-2.6,5.8-5.8,5.8
		c-3.2,0-5.7-2.6-5.8-5.8v-17.4C7.5,520.2,10.1,517.6,13.3,517.6L13.3,517.6z"/>
	<text transform="matrix(1 0 0 1 101.9125 549.746)" class="st2 st3 st4">1.2</text>
	<text transform="matrix(1 0 0 1 57.1141 602.4158)" class="st5 st6">Opsætning</text>
</g>
<g id="_x31_.1">
	<path class="st1" d="M13.3,284.9c3.2,0,5.8,2.6,5.8,5.8h5.8v-28.9c0-16,12.9-28.9,28.9-28.9l0,0h27.8v3.8c-3.2,0-5.8,3.4-5.8,7.8
		c0.2,3.3,3,5.9,6.3,5.8H100c3.5,0.3,6.6-2.3,6.9-5.8c0-4.3-2.6-7.8-5.8-7.8v-3.8H181v-5.8c-3.2,0-5.8-2.6-5.8-5.8
		c0-3.2,2.6-5.8,5.8-5.8h17.3c3.2,0,5.8,2.6,5.8,5.8s-2.6,5.8-5.8,5.8l0,0v5.8h28.9c16,0,28.9,12.9,28.9,28.9c0,0,0,0,0,0l0,0v27.8
		h-3.8c0-3.2-3.4-5.8-7.8-5.8c-3.3,0.2-5.9,3-5.8,6.3v17.9c-0.3,3.5,2.3,6.6,5.8,6.9c4.3,0,7.8-2.6,7.8-5.8h3.8V389h5.8
		c0-3.2,2.6-5.8,5.8-5.8c3.2,0,5.8,2.6,5.8,5.8c0,0,0,0,0,0v17.4c0,3.2-2.6,5.8-5.8,5.8c-3.2,0-5.7-2.6-5.8-5.8h-5.8v28.9l0,0
		c0.1,16-12.8,29-28.7,29.1c0,0-0.1,0-0.1,0h-27.8v-3.8c3.2,0,5.8-3.4,5.8-7.8c-0.2-3.3-3-5.9-6.3-5.8H181c-3.5-0.3-6.6,2.3-6.9,5.8
		c0,4.3,2.6,7.8,5.8,7.8l0,0v3.8H100v5.8c3.2,0,5.8,2.6,5.8,5.8c0,3.2-2.6,5.8-5.8,5.8H82.6c-3.2,0-5.8-2.6-5.8-5.8
		c0-3.2,2.6-5.8,5.8-5.8c0,0,0,0,0,0l0,0v-5.8H53.7c-16,0-28.9-12.9-28.9-28.9c0,0,0,0,0,0l0,0l0,0v-28h3.8c0,3.2,3.4,5.8,7.8,5.8
		c3.3-0.2,5.9-3,5.8-6.3l0,0V389c0.3-3.5-2.3-6.6-5.8-6.9c-4.3,0-7.8,2.6-7.8,5.8h-3.8v-79.8H19c0,3.2-2.6,5.8-5.8,5.8
		c-3.2,0-5.7-2.6-5.8-5.8v-17.4C7.5,287.5,10.1,284.9,13.3,284.9L13.3,284.9z"/>
	<text transform="matrix(1 0 0 1 101.9127 317.0703)" class="st2 st3 st4">1.1</text>
	<text transform="matrix(1 0 0 1 71.7727 369.7403)" class="st5 st6">Overblik</text>
</g>
<g id="top_1_">
	<path class="st0" d="M140.5,61.4c-29.7,0-53.7,24-53.7,53.7c0,29.7,24,53.7,53.7,53.7c29.7,0,53.7-24,53.7-53.7h-0.1
		C194.1,85.5,170.1,61.5,140.5,61.4z M140.4,149.9c-19.2,0-34.8-15.6-34.8-34.8s15.6-34.8,34.8-34.8c19.2,0,34.8,15.6,34.8,34.8
		S159.6,149.9,140.4,149.9z"/>
	<path class="st0" d="M256.1,217.3V28.9c0-16-12.9-28.9-28.9-28.9H53.6c-16,0-28.9,12.9-28.9,28.9c0,0,0,0,0,0v188.4
		c-15.1,9.2-24.4,25.5-24.6,43.2c0,6.4,5.2,11.6,11.6,11.6c6.4,0,11.6-5.2,11.6-11.6c0,0,0,0,0,0c0-16,13-28.9,29-28.8h1.5h28.9v5.7
		c-3.2,0-5.8,2.6-5.8,5.8c0,3.2,2.6,5.8,5.8,5.8H100c3.2,0,5.8-2.6,5.8-5.8c0-3.2-2.6-5.8-5.8-5.8v-5.7h79.9v-3.8
		c-3.2,0-5.8-3.4-5.8-7.8c0.3-3.5,3.4-6.1,7-5.8H199c3.4-0.2,6.2,2.4,6.4,5.7c0,4.3-2.6,7.8-5.8,7.8v3.9h29.1
		c16,0,28.9,12.9,28.9,28.8c0,6.4,5.2,11.6,11.6,11.6c6.4,0,11.6-5.2,11.6-11.6C280.6,242.8,271.3,226.4,256.1,217.3z M140.6,177.3
		c-34.4,0-62.3-27.9-62.3-62.3c0-34.4,27.9-62.3,62.3-62.3c34.4,0,62.3,27.9,62.3,62.3C202.8,149.5,174.9,177.3,140.6,177.3z"/>
</g>
</svg>
