<?xml version="1.0" encoding="utf-8"?>
<!-- Generator: Adobe Illustrator 22.1.0, SVG Export Plug-In . SVG Version: 6.00 Build 0)  -->
<svg version="1.1" id="one-dot-one" xmlns="http://www.w3.org/2000/svg" xmlns:xlink="http://www.w3.org/1999/xlink" x="0px"
	 y="0px" viewBox="0 0 280.8 272" style="enable-background:new 0 0 280.8 272;" xml:space="preserve">
<style type="text/css">
	.st0{fill:#D74127;}
	.st1{fill:#FFFFFF;}
</style>
<path class="st0" d="M227.1,40.4h1.5c16,0,28.9-12.9,29-28.8c0,0,0,0,0,0c0-6.4,5.2-11.6,11.6-11.6c6.4,0,11.6,5.2,11.6,11.6l0,0
	c-0.2,17.7-9.5,34-24.6,43.2v188.4c0,0,0,0,0,0c0,16-13,28.9-28.9,28.9H53.6l0,0c-16,0-28.9-12.9-28.9-28.9V54.8
	C9.5,45.6,0.2,29.3,0,11.6C0,5.2,5.2,0,11.6,0C18,0,23.1,5.2,23.1,11.6c0,16,13,28.9,28.9,28.8h29.1v3.9c-3.2,0-5.8,3.5-5.8,7.8l0,0
	c0.2,3.4,3.1,5.9,6.4,5.7l0,0h17.9c3.5,0.3,6.6-2.3,7-5.8c0-4.3-2.6-7.8-5.8-7.8v-3.8h79.9v-5.7c-3.2,0-5.8-2.6-5.8-5.8
	c0-3.2,2.6-5.8,5.8-5.8h17.4c3.2,0,5.8,2.6,5.8,5.8c0,3.2-2.6,5.8-5.8,5.8v5.7H227.1L227.1,40.4z"/>
<path class="st1" d="M140.3,219.2c-34.4,0-62.3-27.9-62.3-62.3s27.9-62.3,62.3-62.3s62.3,27.9,62.3,62.3S174.7,219.2,140.3,219.2z
	 M86.7,157c0,29.6,24,53.6,53.6,53.7c29.7,0,53.7-24,53.7-53.7s-24-53.7-53.7-53.7c-29.7,0-53.7,24-53.7,53.7H86.7z"/>
<path class="st1" d="M140.5,191.7L140.5,191.7c-19.2,0-34.8-15.6-34.8-34.8s15.6-34.8,34.8-34.8c19.2,0,34.8,15.6,34.8,34.8
	S159.7,191.7,140.5,191.7z"/>
</svg>
