<svg id="Layer_1" data-name="Layer 1" xmlns="http://www.w3.org/2000/svg" viewBox="0 0 283.53 88"><defs><style>.cls-1{fill:#246595;}.cls-2{fill:#256695;}.cls-3{fill:#296897;}</style></defs><title>kedo-logo</title><path class="cls-1" d="M94.43,22.88c-.1,3.87.14,7.42,0,11.13-.15,4.79-2.71,7.41-7,7.39s-6.51-2.58-6.52-7.67c0-6.71,0-13.42,0-20.13,0-5,2.28-7.34,7.29-7.44,5.71-.11,11.42,0,17.13,0s11.14-.07,16.71,0c5,.08,7.63,2.42,7.71,6.66.08,4.51-2.53,7-7.78,7H94.38Z" transform="translate(-11.47 -6)"/><path class="cls-2" d="M147.62,94V6.92h3.72q15.36,0,30.71-.1a38.89,38.89,0,0,1,23.37,7.81,41,41,0,0,1,13.34,17.54c5.77,15.26,4.16,36-7.46,48.3a43.18,43.18,0,0,1-18.46,11.34C185.57,94.1,178.14,94,170.62,94Zm13-75V82c0,.91,25.11-.65,27.94-1.46,17.08-4.9,25.26-25,19.55-41.12a31.37,31.37,0,0,0-11.45-15C185.76,16.65,173.09,19,160.61,19Z" transform="translate(-11.47 -6)"/><path class="cls-3" d="M75.86,93.6H58.51C50.2,85.29,41.74,76.8,33.24,68.36c-2.7-2.69-5.52-5.26-8.83-8.39V93.55H11.47V6.14H24.28V33.39c5-5,9.49-9.62,14.13-14.09s9.41-8.74,14.17-13.13H69.73L66.84,9.05c-10.33,10.33-20.62,20.68-31,31a8.6,8.6,0,0,0-2.91,7.07A7.19,7.19,0,0,0,35,51.89C41.65,58.8,48.23,65.8,55,72.67S68.64,86.38,75.86,93.6Z" transform="translate(-11.47 -6)"/><path class="cls-2" d="M229.25,6.16h12.6V9.77c0,18.39.11,36.78-.07,55.16a14,14,0,0,0,7.91,13c5.35,2.73,11.88,3.2,17.78,2.32,7.17-1.07,14.84-6.88,14.73-14.8-.28-19.67-.12-39.34-.12-59.3a39,39,0,0,1,6.21-.15c2.12,0,4.24,0,6.63,0v4.31c0,17.25-.08,34.5.08,51.74A58.48,58.48,0,0,1,293.9,72a20.12,20.12,0,0,1-5.31,10.15A36,36,0,0,1,267.5,92.86c-8.05,1.21-17.49-.2-24.51-4.47l-.23-.14c-6.09-3.82-10.68-8.86-12.64-15.78A28.19,28.19,0,0,1,229,65.21Q229,35.93,229,6.63C229,6.51,229.13,6.4,229.25,6.16Z" transform="translate(-11.47 -6)"/><path class="cls-2" d="M94.88,63.44V80.87h3.76c10.6,0,21.2,0,31.8,0a6.84,6.84,0,0,1,5.26,2.07c2.6,2.68,1.81,7.65-1.43,9.58A9.38,9.38,0,0,1,129.21,94c-13.36-.06-26.72-.11-40.07,0a7.56,7.56,0,0,1-6.76-3.56A10.74,10.74,0,0,1,81,85q-.21-13.27,0-26.56a7.9,7.9,0,0,1,8.25-8c13.8,0,27.59,0,41.38,0A5.69,5.69,0,0,1,135.11,52a9.13,9.13,0,0,1,2.31,4.63,7.81,7.81,0,0,1-1.54,4.5,4.8,4.8,0,0,1-4.21,2.35c-2,0-4.06,0-6.1,0Z" transform="translate(-11.47 -6)"/></svg>