<?xml version="1.0" encoding="utf-8"?>
<!-- Generator: Adobe Illustrator 22.1.0, SVG Export Plug-In . SVG Version: 6.00 Build 0)  -->
<svg version="1.1" id="Layer_1" xmlns="http://www.w3.org/2000/svg" xmlns:xlink="http://www.w3.org/1999/xlink" x="0px" y="0px"
	 viewBox="0 0 540 538" style="enable-background:new 0 0 540 538;" xml:space="preserve">
<style type="text/css">
	.st0{fill:#216393;}
	.st1{fill:#FEFEFE;}
</style>
<path class="st0" d="M525.8,277.7c-4,116.9-90.9,215.4-203.7,241.4c-131.6,30.4-265-58.7-299.4-186.6
	c-10.3-38.2-11.5-78.5-3.4-117.3c3.1-15,7.6-29.7,13.8-43.7c39.4-89,122.1-149.7,215.8-157.6c23.2-2,47-0.7,71,4.2
	C440.7,42.5,530,154.2,525.8,277.7z"/>
<path class="st1" d="M428.4,182.6c0,53.8,0,107.5,0,161.3c0,12.1-6.1,18.2-18.3,18.2c-34.6,0-69.3,0.1-103.9-0.1c-3.5,0-6.3,1-9.1,3
	c-27.1,19.3-54.3,38.6-81.5,57.8c-1.9,1.4-3.7,3.6-6.6,2.2c-3.1-1.5-2.3-4.4-2.4-7c0-17-0.2-34,0.1-51c0.1-4.3-1.2-5.1-5.2-5.1
	c-23.9,0.2-47.8,0.1-71.7,0.1c-12.1,0-18.2-6.2-18.2-18.3c0-53.8,0-107.5,0-161.3c0-12.2,6.1-18.3,18.2-18.3c46.8,0,93.7,0,140.5,0
	h139.6C422.4,164.2,428.4,170.2,428.4,182.6z"/>
</svg>
