<svg id="one-dot-one" xmlns="http://www.w3.org/2000/svg" viewBox="0 0 265.99 266.14"><defs><style>.cls-1{fill:#f6f6f7;}.cls-2{isolation:isolate;}.cls-3{fill:#216393;}</style></defs><title>one-two-2</title><path class="cls-1" d="M5.83,69.38a5.78,5.78,0,0,1,5.78,5.78h5.78V46.26A28.89,28.89,0,0,1,46.26,17.34H74.07v3.83c-3.19,0-5.78,3.45-5.78,7.78a6.1,6.1,0,0,0,6.35,5.78H92.58A6.43,6.43,0,0,0,99.52,29c0-4.25-2.59-7.78-5.78-7.78V17.34h79.75V11.56a5.78,5.78,0,0,1,0-11.56h17.34a5.78,5.78,0,1,1,0,11.56h0v5.78h28.92a28.9,28.9,0,0,1,28.9,28.9h0V74h-3.84c0-3.19-3.44-5.78-7.77-5.78a6.08,6.08,0,0,0-5.78,6.35V92.52a6.43,6.43,0,0,0,5.78,7c4.25,0,7.77-2.59,7.77-5.78h3.84v79.8h5.78a5.78,5.78,0,0,1,11.56-.05v17.44a5.78,5.78,0,0,1-11.56,0h-5.78v28.87h0a28.89,28.89,0,0,1-28.74,29.05H192V245c3.19,0,5.78-3.45,5.78-7.78a6.1,6.1,0,0,0-6.35-5.78H173.49a6.44,6.44,0,0,0-7,5.78c0,4.25,2.6,7.78,5.78,7.78h0v3.83H92.52v5.78a5.78,5.78,0,1,1,0,11.56H75.19a5.78,5.78,0,1,1,0-11.56h0V248.8H46.26a28.89,28.89,0,0,1-28.92-28.87h0V192h3.83c0,3.19,3.45,5.78,7.78,5.78a6.1,6.1,0,0,0,5.78-6.35h0V173.46A6.43,6.43,0,0,0,29,166.52c-4.25,0-7.78,2.59-7.78,5.78H17.34V92.52H11.56A5.78,5.78,0,0,1,0,92.52V75.16a5.78,5.78,0,0,1,5.78-5.78Z"/><g id="_1.2" data-name=" 1.2"><g class="cls-2"><path class="cls-3" d="M102.79,105.28a39.41,39.41,0,0,1,1.12-6v-19a12.44,12.44,0,0,1,.11-1.46c.08-.58.14-1.06.19-1.46l-.07-1.2a4.81,4.81,0,0,0-2.17.75c-.35.2-.69.37-1,.52a2.27,2.27,0,0,1-.94.23q-1.35,0-1.35-5.69l.08-4.27a6.72,6.72,0,0,0,3-1.35A26.87,26.87,0,0,0,105.82,63a15.07,15.07,0,0,0,3-3.7,29.35,29.35,0,0,1,4.64.49c1.94.32,3,.58,3.07.78a16.39,16.39,0,0,1,.3,3.22,19.88,19.88,0,0,1-.38,3.59,31.69,31.69,0,0,0-.3,3.45c0,.89,0,1.92.15,3.06s.18,2,.23,2.4a44.28,44.28,0,0,1,.37,5.46c0,1,0,2.37-.15,4.27-.15,1.5-.22,3-.22,4.42,0,.65.05,1.67.15,3.07a22.57,22.57,0,0,1,.22,3.21q0,16.7-1.72,16.7l-.9-.3a50.05,50.05,0,0,0-5.76.37c-2.4.2-4.14.3-5.24.3a1.6,1.6,0,0,1-1-.23,1,1,0,0,1-.22-.74v-.6A63.33,63.33,0,0,1,102.79,105.28Zm.52-38.7a8.36,8.36,0,0,0-2.13,1.2,2.23,2.23,0,0,0-.71,1.79h.82l5.77-3.51a5.37,5.37,0,0,0-1.58.29l-.37-.67A9.38,9.38,0,0,1,103.31,66.58Zm5.92,3.18a25.34,25.34,0,0,0-6,2.28c-1.73.95-2.59,2-2.59,3.07A7.42,7.42,0,0,0,103,74.4c1.12-.47,2.2-1,3.25-1.46a19,19,0,0,1,3.37-1.42,11.23,11.23,0,0,0,3.11-1.24q1.68-.93,1.68-1.38A22.79,22.79,0,0,0,109.23,69.76Zm-6.82,1.87a12.58,12.58,0,0,0,1.8-.78,7.21,7.21,0,0,0,1.31-1.13,22.05,22.05,0,0,1,2-1.72,2.78,2.78,0,0,1,1.58-.67,5.73,5.73,0,0,0,2.54-.94c1.1-.62,1.65-1.06,1.65-1.31a14.33,14.33,0,0,0-4.12,1.35A68.67,68.67,0,0,0,101,70.85v1.34C101.19,72.09,101.67,71.91,102.41,71.63Zm5.69,38.29v1l1.58-.67a.68.68,0,0,1-.23.56,2.74,2.74,0,0,1-.86.41,1.57,1.57,0,0,0-.86.6h.82a31.44,31.44,0,0,0,3.26-.22c1.37-.15,2.06-.3,2.06-.45v-2.32a2.17,2.17,0,0,1-1.13.86,5.35,5.35,0,0,0-1.12.56l-.3-.37c.3-.25.71-.58,1.24-1a5.49,5.49,0,0,0,1.19-1.16,2.76,2.76,0,0,0,.49-1.46,22.42,22.42,0,0,1-9.73,2l-.6,3.21.6.68Zm-3-4.79a8.5,8.5,0,0,0,2.62-.49,3.63,3.63,0,0,0,2-1.16l4.19-2-.3-.3-3.89.6v-.3a5,5,0,0,1-1.43.45c-.85.2-1.67.38-2.47.53A4.52,4.52,0,0,0,105.11,105.13Zm.9,1.79a23,23,0,0,0,5.09-.75c2.09-.49,3.14-1,3.14-1.57v-1.27l-9.13,3.52ZM105.9,84a22.64,22.64,0,0,0,.26,2.36h.3l5.84-2.55a1.65,1.65,0,0,1,.63-.59l.64-.38a6.82,6.82,0,0,0-1.87.3c-.7.2-1.15.33-1.35.37a9.54,9.54,0,0,1-3.07.68c-.3,0-.45-.13-.45-.38,1.1-1.89,3.44-3.39,7-4.49l.37-.37a37.05,37.05,0,0,0-4.9,1.16c-2.37.67-3.56,1.28-3.56,1.83C105.78,82.27,105.82,83,105.9,84Zm6.28,14.78c-.67.3-1.39.59-2.17.86l-1.53.57c-.35.15-.84.32-1.46.52a4.77,4.77,0,0,0-1.24.52h.68a37.06,37.06,0,0,0,4.53-.59,17.22,17.22,0,0,0,3.55-.75V95.32a10.65,10.65,0,0,0-3.07,1.09A7.35,7.35,0,0,0,108.78,98a12.15,12.15,0,0,1,3.81-.9q.6,0,.6.75C113.19,98.17,112.86,98.46,112.18,98.76Zm-6.4,1.13,1.87-.49a8.21,8.21,0,0,0,2-.78l-3.52.67C105.91,99.29,105.78,99.49,105.78,99.89Zm.3-11.08.08.52c1.59-.1,3.94-1.09,7-3a8.19,8.19,0,0,0-2.39.45l-1.65.52c-1.3.4-2.19.65-2.69.75C106.21,88.11,106.08,88.36,106.08,88.81Zm3.78,3.63q3.11-1.38,3.33-1.83a21.29,21.29,0,0,0-2.84.44c-.2.06-.77.18-1.72.38a12.2,12.2,0,0,1-2.47.3v2.09A16.34,16.34,0,0,0,109.86,92.44Zm-.41,2.43a17.67,17.67,0,0,0-3.29.83V98l6.73-2.92a1.9,1.9,0,0,1,.6-.49,1.1,1.1,0,0,0,.53-.49C112.77,94.27,111.25,94.52,109.45,94.87Zm-1-21.44c-1.35.42-2,.86-2,1.31V79.3l1.79-.89c2.7-1.3,4-2.13,4-2.47a27.7,27.7,0,0,0-3.34.22c-1.22.15-1.9.22-2,.22a1.73,1.73,0,0,1,.71-1.49,6.33,6.33,0,0,1,2-.9,7.46,7.46,0,0,0,1.2-.52c.35-.2.52-.43.52-.68A11.06,11.06,0,0,0,108.48,73.43ZM112.67,90l1.57-.38.3-3.29q-.3.6-5.16,2.84c-.45.2-.93.43-1.43.68l-1.49.75V91A32.72,32.72,0,0,0,112.67,90Zm-5.61-2.92a1.54,1.54,0,0,0,.15.15c.1.1.17.15.22.15.6-.25,1.58-.59,3-1s2.43-.74,3.18-.94h.67a1.24,1.24,0,0,0,.08-.37c0-.5-.28-.75-.83-.75a7.45,7.45,0,0,0-2.47.82l-2.09,1a15.11,15.11,0,0,1-1.87.89Zm.67,7.41A25,25,0,0,0,110.8,94a33.87,33.87,0,0,0,3.44-.82v-2c-.6.15-3,1.23-7.18,3.22Zm5.76-32.64a2.48,2.48,0,0,1-.9,1l-2.09,1a34.12,34.12,0,0,1-3.07,1.5l.3.08a14.47,14.47,0,0,0,3.37-.6,11.16,11.16,0,0,1,3.44-.68l.3.3V62.84c-.1,0-.22-.08-.37-.23a.66.66,0,0,1-.23-.45,2,2,0,0,1,.08-.56,2,2,0,0,0,.07-.56C114.14,61,113.84,61.32,113.49,61.86Zm-2.17,5.51a12.75,12.75,0,0,0-3.59,2.13l2-.45a18.46,18.46,0,0,0,3.81-1.16,2.4,2.4,0,0,0,1.5-2A15.13,15.13,0,0,0,111.32,67.37Zm.38,10.25a37.42,37.42,0,0,1-4,2,15.76,15.76,0,0,0,4.12-.9c.3-.09.67-.21,1.12-.33a14,14,0,0,1,1.57-.34c0-.75-.05-1.87-.15-3.37a25.87,25.87,0,0,1-.22-3.37l.07-1-1.31.63a7.48,7.48,0,0,0-1.61,1l2.25.3v1A12,12,0,0,0,111,74.36c-.5.3-1.17.65-2,1a20.32,20.32,0,0,0,2.1-.15,20.16,20.16,0,0,1,2.09-.15c.45,0,.68.18.68.53C113.87,76.14,113.14,76.8,111.7,77.62Zm-2.1-15.76a14.11,14.11,0,0,0-.52,1.58A8.58,8.58,0,0,0,113,61.26a9.89,9.89,0,0,0-2.7-.37C110.07,60.89,109.85,61.22,109.6,61.86Zm1.83,19.43a5.82,5.82,0,0,0-2.05,1.53,12.32,12.32,0,0,0,2.5-.52,8.19,8.19,0,0,0,2.36-.75V80A23.49,23.49,0,0,0,111.43,81.29Z"/><path class="cls-3" d="M126.14,110.52c0-.85-.07-1.73-.07-2.62a12.1,12.1,0,0,1,.37-2.47,8.22,8.22,0,0,0,.3-1.73,1.2,1.2,0,0,0-.6-1.19l.6-.15q4.11.23,6.14.22a3,3,0,0,1,.86.26,3.69,3.69,0,0,0,1.46.27l1.35-.08a1.77,1.77,0,0,1,1.27.38,2.44,2.44,0,0,1,.37,1.64c0,.45-.12.68-.37.68l.07,3.66a4.66,4.66,0,0,1-.37,2.21,2,2,0,0,1-1.39.86c-.67.15-2,.33-3.92.53l-2.18.22a.63.63,0,0,0-.67-.37,6.29,6.29,0,0,0-.86.33,3.26,3.26,0,0,1-1.16.34.55.55,0,0,1-.26-.15.89.89,0,0,0-.56-.15A18.29,18.29,0,0,1,126.14,110.52Zm1.5-5.77a6,6,0,0,0-.08,1,5.42,5.42,0,0,0,.23,1.34,27,27,0,0,1,2.47-1.27,7.21,7.21,0,0,0,3-1.65v-.37h-5.54A5.9,5.9,0,0,1,127.64,104.75Zm.3,5.2a5.53,5.53,0,0,1,.15.64l1.5-.9c.74-.45,1.54-.9,2.39-1.34a3.72,3.72,0,0,1,1.16-.45,15.67,15.67,0,0,0,1.54-.49,1.57,1.57,0,0,0,.89-.71l-.75-.08a17.93,17.93,0,0,0-3.63.9,9.36,9.36,0,0,0-3.4,1.5A3.69,3.69,0,0,0,127.94,110Zm.75,1.61a3.27,3.27,0,0,1,.9-.3l.18,0a1,1,0,0,0,.34,0,8.69,8.69,0,0,0,4.15-.9,2.94,2.94,0,0,0,1.69-2.77l-1.13.45Q128.61,110.9,128.69,111.56ZM133,105.2c-.75.35-1.47.71-2.17,1.09s-1.08.68-1.12.93a18.94,18.94,0,0,1,3-.9c1-.19,1.83-.42,2.66-.67s1.23-.5,1.23-.75a1.15,1.15,0,0,0-.15-.45l-1.65-.67-.29.67Z"/><path class="cls-3" d="M142.94,114.41a.45.45,0,0,1-.26-.38c0-.1.08-.22.23-.37a70.5,70.5,0,0,0,7.78-11.38q1-2.16,4.72-8.53.45-.75,2.58-4.57t3.41-6.66a2.27,2.27,0,0,0,.67-1.79,22.31,22.31,0,0,0-.56-4.12,20.35,20.35,0,0,0-1.65-4.87c-.72-1.44-1.63-2.17-2.73-2.17a6.9,6.9,0,0,0-3.63,1.13,39.78,39.78,0,0,0-4,2.84,3.43,3.43,0,0,0-1.87,1.87,3.48,3.48,0,0,1-.71,1,1.47,1.47,0,0,1-1,.3,23.23,23.23,0,0,1-.9-3.59,26.29,26.29,0,0,0-.48-2.59,6.42,6.42,0,0,0-.86-1.91,1.35,1.35,0,0,1,.26-.86,3.78,3.78,0,0,1,.86-.74,8.33,8.33,0,0,0,1.12-.94,11,11,0,0,1,5.8-4.75A23,23,0,0,1,160,59.92a11.93,11.93,0,0,1,6.89,2.58,24.38,24.38,0,0,1,5.84,5.8c.05.25.12.77.22,1.57A14.29,14.29,0,0,0,174,73.24a4.48,4.48,0,0,1,.08,1.35,27.64,27.64,0,0,1-.6,4.64L173,81.32l-3.52,10.56c-1.2,2.14-2.6,4.48-4.19,7s-2.77,4.28-3.52,5.27c1.9,0,3.74-.07,5.54-.22,2.29-.1,4.12-.15,5.46-.15a3.46,3.46,0,0,1,2.55.67,8.21,8.21,0,0,0-.08,1.28c0,.64,0,1.62.15,2.91a19.22,19.22,0,0,1,.23,3,4.71,4.71,0,0,1-.23,1.68c-.15.38-.52.56-1.12.56a11,11,0,0,1-1.53-.11,12.12,12.12,0,0,0-1.31-.11,16.88,16.88,0,0,0-2.77-.22,13.87,13.87,0,0,0-1.46.07,3.75,3.75,0,0,0-1.31.37q-2.47,0-6.81.15c-3.3.1-6.09.15-8.39.15l-6.06-.07a2.84,2.84,0,0,1,.9-.83,5.65,5.65,0,0,1,1.08-.37,9.89,9.89,0,0,0,1.24-.37c.65,0,1.67.07,3.07.07,2.09,0,4.29-.06,6.58-.19s3.92-.23,4.87-.33v-.45a11.8,11.8,0,0,1,.9-1.09,5.19,5.19,0,0,0,1-1.53,27.58,27.58,0,0,1-3.25,1.68,8.39,8.39,0,0,1-3,.94.93.93,0,0,1-.52-.11,1.86,1.86,0,0,1-.38-.57l4.2-4.26a.68.68,0,0,0,.33-.11l.34-.19-.15-.3a8.45,8.45,0,0,0-3.48.75,28.18,28.18,0,0,0-3.86,2.17,43.31,43.31,0,0,1-4.15,2.21,8.4,8.4,0,0,1-3.41.71,1.91,1.91,0,0,0-1.19.41,25.89,25.89,0,0,0-2.17,2.13l-.3.08A1,1,0,0,1,142.94,114.41Zm7.41-43.9a35.1,35.1,0,0,1,5.21-2c1.79-.6,3.09-1.08,3.89-1.43a1.3,1.3,0,0,0-1-.37,25.15,25.15,0,0,0-5.43,1.53,47,47,0,0,0-5.88,2.36c-.25.15-.37.53-.37,1.12a14.93,14.93,0,0,0,.07,1.8A9.14,9.14,0,0,1,150.35,70.51Zm-1-1.8a3.82,3.82,0,0,0,.94-.71,4.49,4.49,0,0,1,1.42-.9,62.3,62.3,0,0,1,8.08-1.64,7.57,7.57,0,0,0,2.25-.6,12.67,12.67,0,0,1,3.07-.6l.07.6q0,.23-.3.3l-3.81,1.57-.38.37a13.22,13.22,0,0,0,2.47-.52,23.1,23.1,0,0,1,4.34-.82,1.59,1.59,0,0,1,.6.07,1.91,1.91,0,0,0-1.94-1,2.26,2.26,0,0,0-.71-1.24q-.72-.78-1.17-.78a.84.84,0,0,0-.41.18.83.83,0,0,1-.33.19,2.48,2.48,0,0,1-.9-.41,13.42,13.42,0,0,1-1.27-.86.93.93,0,0,0-.68.3,48.12,48.12,0,0,0-4.64,1.94c-1.9.85-3.53,1.53-4.9,2a29.36,29.36,0,0,1-4.31,1.2L148.22,69A2.34,2.34,0,0,0,149.38,68.71Zm3.74-6.17a8.59,8.59,0,0,0-4.6,3.29,4,4,0,0,0,1.76-.37c.52-.25,1.24-.65,2.13-1.2a16,16,0,0,1,1.76-1,3.32,3.32,0,0,1,1.46-.34v.3a4.64,4.64,0,0,1,2.17-.9,5.33,5.33,0,0,0,2-.75l-.52-.07A19.2,19.2,0,0,0,153.12,62.54ZM158,104.45c-1,.6-2.51,1.45-4.6,2.55l-2,1a13.87,13.87,0,0,0-2.85,2.54,12.94,12.94,0,0,0,3.11-1q1.45-.68,3.63-2c1.79-1,3-1.62,3.52-1.87a2.07,2.07,0,0,1,.37-1.35l7.71-10.92v-.45a36.87,36.87,0,0,0-4.9,2.24A47.29,47.29,0,0,0,156.9,98v.37a7.58,7.58,0,0,0,1.73-.37,15,15,0,0,1,2.92-.6c.59,0,.89.2.89.6s-.67,1.17-2,2a35.85,35.85,0,0,1-4.41,2.35,10.14,10.14,0,0,1-3.22,1.09,2.15,2.15,0,0,0-1.72,1c.34-.35,1.69-.73,4-1.16a36.51,36.51,0,0,1,4.34-.63C159.45,103.26,159,103.85,158,104.45Zm-8.87,3.6a11.39,11.39,0,0,0,3.82-1.61,11.84,11.84,0,0,0,3.59-2.59l-.45-.07a11.4,11.4,0,0,0-3.44.9,24.91,24.91,0,0,1-2.55.75l.38.67h-.68l-1,2Zm8.53-14.9-1.12.38a25.55,25.55,0,0,0-2.09,4.34l-2.4,5,3.89-1.65a3.38,3.38,0,0,1,1.72-1.12c.1,0,.38-.16.83-.33a1.85,1.85,0,0,0,1-.79,16.39,16.39,0,0,1-3.22.3l-.82-.45a.71.71,0,0,1-.15-.38c0-.54.57-1.14,1.72-1.79s2.79-1.47,4.94-2.47a11.94,11.94,0,0,0,2.69-1.35c-.4.1-1,.23-1.72.38s-1.34.25-1.79.3-.84-.12-1.46-.19l-1.46-.19Zm2.47-.3a25.53,25.53,0,0,0,8-1.65,6.62,6.62,0,0,1,.19-1.87,7.83,7.83,0,0,1,.64-1.42,7,7,0,0,0,1.12-2.17,9.72,9.72,0,0,1-3.22,3l-8.38,3.82A8.09,8.09,0,0,0,160.12,92.85Zm-1.34-1.65h.37a18,18,0,0,0,4.3-1.83,27.28,27.28,0,0,0,4.08-2.28,1.47,1.47,0,0,0-.67-.15,16,16,0,0,0-4,.82,9.88,9.88,0,0,1-1.65.38l-1-.08A14.75,14.75,0,0,0,158.78,91.2Zm5.31,14.86a3.3,3.3,0,0,0-.75.15,2.12,2.12,0,0,0-.67.49c-.45.4-1.09,1-1.91,1.87s-1.36,1.42-1.61,1.72v.3q.75-.3,1.95-.9c.79-.4,1.44-.75,1.94-1a12.6,12.6,0,0,0,1.42-1.12,3,3,0,0,1,1.8-.9.46.46,0,0,0-.37-.48,3.65,3.65,0,0,0-1-.11ZM160,68.86a1.05,1.05,0,0,0,.6.11,7.67,7.67,0,0,0,3.74-1.27,25.8,25.8,0,0,0-2.58.11,7.15,7.15,0,0,0-1.91.49C159.82,68.6,159.87,68.79,160,68.86Zm7,15.31c-3.7,1.7-5.54,2.67-5.54,2.92a27.09,27.09,0,0,0,4.67-.75,24.41,24.41,0,0,0,4.38-1.5V82.52Zm-5-12.54a4.71,4.71,0,0,1,.15,1,13.89,13.89,0,0,0,2-1,27.32,27.32,0,0,0,3.21-2l-1.12-.08a14.31,14.31,0,0,0-2.69.34c-1.1.22-1.65.46-1.65.71A4.63,4.63,0,0,0,161.92,71.63ZM169.1,79a20.22,20.22,0,0,0-5.38,2.92l-1.35,3.52a49.7,49.7,0,0,0,7.71-4.12c-.5.1-1.92.25-4.27.45a22.49,22.49,0,0,0,4.53-1.94,5.73,5.73,0,0,0,2.36-2.77C172.4,77.56,171.2,78.21,169.1,79Zm-.67-8.53a17,17,0,0,1-2.92,1.42c-.95.4-1.67.74-2.17,1s-.75.59-.75.94a.43.43,0,0,0,.08.3L164,74a10.28,10.28,0,0,1,1.31-.11,12.81,12.81,0,0,0,3.29-.6,20.26,20.26,0,0,1,3.22-.52,10.12,10.12,0,0,0-.94-3.75c-.62-1.49-1.31-2.24-2.05-2.24L163.34,69a12.83,12.83,0,0,0,2.77-.37,18,18,0,0,1,2.7-.3c.45,0,.67.2.67.6A1.9,1.9,0,0,1,168.43,70.47Zm-5.31,5.35a1.06,1.06,0,0,0,.22.56,44.37,44.37,0,0,1,5.47-2.17l-1.2-.07c-3,0-4.47.37-4.57,1.12A4,4,0,0,0,163.12,75.82ZM169,78.11c1.49-.9,2.42-1.43,2.77-1.58-.6.15-1.55.33-2.85.53-.4.1-1.2.26-2.39.48a24.88,24.88,0,0,0-3.15.79l.38,2.32Q164.83,80.65,169,78.11Zm-3.15-1.73-1.79.68a21.83,21.83,0,0,0,2.8-.3,18.9,18.9,0,0,0,3.63-.9q1.65-.6,1.65-1.35l-.08-.67Q169.64,75,165.81,76.38Zm3.29,29.87c-.64.55-1.57,1.45-2.76,2.69l-2,2h.6a48.88,48.88,0,0,1,6.22-2.91,14.8,14.8,0,0,0,1.76-.83.92.92,0,0,0,.48-.82c0-.3-.3-.54-.9-.71a5.29,5.29,0,0,0-1.49-.26A3,3,0,0,0,169.1,106.25Zm3.34,5.65c.62.18,1.06.29,1.31.34a4.14,4.14,0,0,0-.12-.9,4.57,4.57,0,0,1-.11-.75,4.73,4.73,0,0,1-.22-1.5,3.09,3.09,0,0,1,.07-.74c-.15.14-.78.63-1.91,1.45s-2,1.44-2.65,1.84A16.57,16.57,0,0,1,172.44,111.9Z"/></g><g class="cls-2"><path d="M73.65,152.68a15.31,15.31,0,0,1-.86,5.26,11.87,11.87,0,0,1-2.44,4,10.92,10.92,0,0,1-3.77,2.58,13.38,13.38,0,0,1-9.7,0A10.88,10.88,0,0,1,53.12,162a11.73,11.73,0,0,1-2.45-4,16.1,16.1,0,0,1,0-10.5,11.73,11.73,0,0,1,2.45-4,11,11,0,0,1,3.76-2.59,12.48,12.48,0,0,1,4.83-.92,12.76,12.76,0,0,1,4.87.91,10.81,10.81,0,0,1,3.77,2.59,11.91,11.91,0,0,1,2.44,4.05A15.28,15.28,0,0,1,73.65,152.68Zm-1.87,0a14.09,14.09,0,0,0-.73-4.7,10.1,10.1,0,0,0-2-3.54,8.7,8.7,0,0,0-3.18-2.22,10.69,10.69,0,0,0-4.12-.77,10.54,10.54,0,0,0-4.07.77,8.83,8.83,0,0,0-3.19,2.22A10.15,10.15,0,0,0,52.38,148a15.56,15.56,0,0,0,0,9.42,10.2,10.2,0,0,0,2.07,3.53,8.93,8.93,0,0,0,3.19,2.21,10.73,10.73,0,0,0,4.07.76,10.87,10.87,0,0,0,4.12-.76A8.8,8.8,0,0,0,69,160.93a10.14,10.14,0,0,0,2-3.53A14.13,14.13,0,0,0,71.78,152.68Z"/><path d="M78.69,171.43V147.6h.92a.71.71,0,0,1,.38.1.44.44,0,0,1,.15.35l.16,2.72A9.38,9.38,0,0,1,83,148.24a6.73,6.73,0,0,1,3.51-.94,6.12,6.12,0,0,1,5.06,2.25q1.8,2.25,1.8,6.74a12.58,12.58,0,0,1-.5,3.6,8.64,8.64,0,0,1-1.48,2.9,7,7,0,0,1-2.4,1.94,7.27,7.27,0,0,1-3.28.71,6.83,6.83,0,0,1-3.11-.66,6.21,6.21,0,0,1-2.26-1.94v8.59Zm7.38-22.76a5.72,5.72,0,0,0-3.17.91,8.59,8.59,0,0,0-2.52,2.54v9.23a6,6,0,0,0,2.23,2.14,6.73,6.73,0,0,0,5.53,0,5.33,5.33,0,0,0,2-1.6,7.17,7.17,0,0,0,1.18-2.47,11.73,11.73,0,0,0,.4-3.18c0-2.62-.48-4.54-1.44-5.78A5,5,0,0,0,86.07,148.67Z"/><path d="M107.32,149.8a.44.44,0,0,1-.39.25,1,1,0,0,1-.51-.23,7.72,7.72,0,0,0-.81-.49,7.08,7.08,0,0,0-1.24-.5,6.58,6.58,0,0,0-1.79-.22,5.14,5.14,0,0,0-1.75.28,4.2,4.2,0,0,0-1.34.73,3.42,3.42,0,0,0-.87,1.07,2.84,2.84,0,0,0-.31,1.28,2.12,2.12,0,0,0,.43,1.37,3.55,3.55,0,0,0,1.11.94,8.42,8.42,0,0,0,1.57.67l1.79.56c.62.19,1.21.4,1.8.63a6.88,6.88,0,0,1,1.56.86,4.05,4.05,0,0,1,1.12,1.25,3.64,3.64,0,0,1,.42,1.81,5.59,5.59,0,0,1-.41,2.14,4.93,4.93,0,0,1-1.21,1.72,5.74,5.74,0,0,1-1.93,1.14,7.38,7.38,0,0,1-2.62.43,8,8,0,0,1-3.2-.59,9,9,0,0,1-2.41-1.55l.41-.6a.56.56,0,0,1,.19-.21.51.51,0,0,1,.3-.08,1,1,0,0,1,.57.29,6.89,6.89,0,0,0,.88.61A6.79,6.79,0,0,0,100,164a6,6,0,0,0,2,.28,5.6,5.6,0,0,0,2-.31,3.91,3.91,0,0,0,1.42-.84,3.5,3.5,0,0,0,.86-1.25,4,4,0,0,0,.29-1.51,2.39,2.39,0,0,0-.43-1.47,3.56,3.56,0,0,0-1.11-1,7.82,7.82,0,0,0-1.57-.69l-1.8-.56c-.62-.19-1.22-.4-1.8-.62a6.72,6.72,0,0,1-1.57-.85,4.18,4.18,0,0,1-1.12-1.25,3.64,3.64,0,0,1-.42-1.83,4.19,4.19,0,0,1,.41-1.8,4.51,4.51,0,0,1,1.16-1.53,5.8,5.8,0,0,1,1.83-1,7.06,7.06,0,0,1,2.42-.39,8.17,8.17,0,0,1,2.86.47,7,7,0,0,1,2.29,1.42Z"/><path d="M130.47,147.32a5.9,5.9,0,0,1,2.48.53,5.75,5.75,0,0,1,2,1.55,7.54,7.54,0,0,1,1.33,2.52,11.1,11.1,0,0,1,.49,3.47,1.09,1.09,0,0,1-.09.53.37.37,0,0,1-.33.14H124.67a12.67,12.67,0,0,0,.43,3.49,7.24,7.24,0,0,0,1.2,2.51,5.05,5.05,0,0,0,1.87,1.52,5.73,5.73,0,0,0,2.44.51,7,7,0,0,0,2.14-.29,7.82,7.82,0,0,0,1.49-.64,6.88,6.88,0,0,0,.94-.63.93.93,0,0,1,.51-.3.46.46,0,0,1,.39.18l.43.53a4.66,4.66,0,0,1-1.07,1,7.18,7.18,0,0,1-1.45.79,9.79,9.79,0,0,1-1.69.52,8.44,8.44,0,0,1-1.81.2,6.61,6.61,0,0,1-4-1.22,7.29,7.29,0,0,1-2.5-3.65,6.09,6.09,0,0,1-1.11,2.3,6.57,6.57,0,0,1-1.7,1.52,7,7,0,0,1-2,.84,8.78,8.78,0,0,1-2,.26,7.51,7.51,0,0,1-2.07-.27,4.73,4.73,0,0,1-1.67-.86,4,4,0,0,1-1.11-1.51,5.45,5.45,0,0,1-.41-2.21,3.87,3.87,0,0,1,.64-2.13,5.43,5.43,0,0,1,2-1.76,12.8,12.8,0,0,1,3.49-1.24,26.64,26.64,0,0,1,5.12-.55v-1.22A6,6,0,0,0,122,150a3.73,3.73,0,0,0-3.12-1.34,5.83,5.83,0,0,0-2.17.36,8.78,8.78,0,0,0-1.51.79,9,9,0,0,0-1,.79,1.07,1.07,0,0,1-.65.36.53.53,0,0,1-.32-.09.78.78,0,0,1-.21-.23l-.3-.51a10.17,10.17,0,0,1,2.84-2.09,7.69,7.69,0,0,1,3.37-.71,5.07,5.07,0,0,1,3.5,1.14,5.59,5.59,0,0,1,1.68,3.13,7.13,7.13,0,0,1,2.42-3.11A6.55,6.55,0,0,1,130.47,147.32Zm-7.37,8.78a27.74,27.74,0,0,0-4.33.44,11.59,11.59,0,0,0-3,.94,4.41,4.41,0,0,0-1.73,1.37,2.92,2.92,0,0,0-.56,1.72,4.45,4.45,0,0,0,.29,1.69,2.94,2.94,0,0,0,.82,1.14,3.45,3.45,0,0,0,1.26.66,5.67,5.67,0,0,0,1.59.21,6.17,6.17,0,0,0,2.2-.39,5.17,5.17,0,0,0,1.79-1.14,5.31,5.31,0,0,0,1.21-1.85,6.5,6.5,0,0,0,.45-2.49Zm7.34-7.52a5.41,5.41,0,0,0-2.29.46,5,5,0,0,0-1.75,1.29,6.2,6.2,0,0,0-1.15,2,9.58,9.58,0,0,0-.54,2.63h10.57a9.4,9.4,0,0,0-.35-2.7,6.29,6.29,0,0,0-1-2,4.21,4.21,0,0,0-1.53-1.26A4.44,4.44,0,0,0,130.44,148.58Z"/><path d="M146.09,165.49a3.78,3.78,0,0,1-2.78-1,4.17,4.17,0,0,1-1-3.06v-12H139.8a.48.48,0,0,1-.32-.11.35.35,0,0,1-.13-.3v-.65l3-.21.42-6.3a.55.55,0,0,1,.13-.29.41.41,0,0,1,.31-.12H144v6.72h5.53v1.26H144v11.94a3.88,3.88,0,0,0,.18,1.25,2.52,2.52,0,0,0,.51.86,2.15,2.15,0,0,0,.77.49,2.76,2.76,0,0,0,1,.16,2.85,2.85,0,0,0,1.1-.19,4.84,4.84,0,0,0,.79-.4,5.23,5.23,0,0,0,.55-.41.62.62,0,0,1,.34-.19.39.39,0,0,1,.28.18l.46.74a4.88,4.88,0,0,1-1.71,1.2A5.31,5.31,0,0,1,146.09,165.49Z"/><path d="M153.91,165.21V147.6h.92a.48.48,0,0,1,.53.45l.16,2.65a10,10,0,0,1,2.8-2.45,7,7,0,0,1,3.57-.93,6.57,6.57,0,0,1,2.56.46,4.81,4.81,0,0,1,1.83,1.33,5.77,5.77,0,0,1,1.09,2.09,9.36,9.36,0,0,1,.37,2.76v11.25h-1.68V154a6,6,0,0,0-1.13-3.89,4.19,4.19,0,0,0-3.46-1.4,6.08,6.08,0,0,0-3.22.89,9.3,9.3,0,0,0-2.66,2.45v13.2Z"/><path d="M176,141.54a1.31,1.31,0,0,1-.13.59,2.09,2.09,0,0,1-.35.49,1.51,1.51,0,0,1-.49.33,1.47,1.47,0,0,1-1.21,0,1.63,1.63,0,0,1-.49-.33,2,2,0,0,1-.34-.49,1.45,1.45,0,0,1-.12-.59,1.54,1.54,0,0,1,.12-.61,1.69,1.69,0,0,1,.34-.51,1.63,1.63,0,0,1,.49-.33,1.47,1.47,0,0,1,1.21,0,1.51,1.51,0,0,1,.49.33,1.71,1.71,0,0,1,.35.51A1.39,1.39,0,0,1,176,141.54Zm-.74,6.06v17.61h-1.68V147.6Z"/><path d="M181.45,165.21V147.6h.92a.48.48,0,0,1,.53.45l.16,2.65a10.05,10.05,0,0,1,2.81-2.45,7,7,0,0,1,3.56-.93,6.57,6.57,0,0,1,2.56.46,4.66,4.66,0,0,1,1.83,1.33,6,6,0,0,1,1.1,2.09,9.7,9.7,0,0,1,.37,2.76v11.25h-1.68V154a6.07,6.07,0,0,0-1.13-3.89,4.23,4.23,0,0,0-3.47-1.4,6.08,6.08,0,0,0-3.22.89,9.44,9.44,0,0,0-2.66,2.45v13.2Z"/><path d="M206.4,147.3a7.67,7.67,0,0,1,2.13.29,6.56,6.56,0,0,1,1.76.79h4.51V149c0,.29-.17.45-.5.47l-2.67.2a5,5,0,0,1,.76,1.51,5.85,5.85,0,0,1,.27,1.8,5.74,5.74,0,0,1-.46,2.31,5.16,5.16,0,0,1-1.28,1.76,6,6,0,0,1-2,1.15,7.56,7.56,0,0,1-2.54.4,7.76,7.76,0,0,1-2.76-.46,3.66,3.66,0,0,0-1.17,1,2,2,0,0,0-.43,1.13,1.39,1.39,0,0,0,.53,1.17A3.51,3.51,0,0,0,204,162a11.3,11.3,0,0,0,2,.24l2.28.12c.77,0,1.54.11,2.28.22a6.89,6.89,0,0,1,2,.56,3.4,3.4,0,0,1,1.41,1.11,3.15,3.15,0,0,1,.53,1.9,4.34,4.34,0,0,1-.55,2.11,5.51,5.51,0,0,1-1.58,1.78,8.36,8.36,0,0,1-2.5,1.25,10.89,10.89,0,0,1-3.29.47,12.64,12.64,0,0,1-3.26-.38,7.66,7.66,0,0,1-2.34-1,4.48,4.48,0,0,1-1.43-1.49,3.63,3.63,0,0,1-.48-1.81,3.45,3.45,0,0,1,.92-2.4,6.06,6.06,0,0,1,2.53-1.56,3.28,3.28,0,0,1-1.4-.87,2.49,2.49,0,0,1-.38-2.35,2.93,2.93,0,0,1,.42-.8,4.82,4.82,0,0,1,.68-.76,5.4,5.4,0,0,1,.93-.63,5.24,5.24,0,0,1-1.95-1.93,5.45,5.45,0,0,1-.7-2.81,5.73,5.73,0,0,1,.45-2.31,5.14,5.14,0,0,1,1.27-1.78,5.82,5.82,0,0,1,2-1.15A7.86,7.86,0,0,1,206.4,147.3Zm6.52,19.09a2,2,0,0,0-.43-1.33,2.88,2.88,0,0,0-1.16-.79,6.93,6.93,0,0,0-1.67-.4c-.63-.08-1.29-.13-2-.17l-2.08-.1a16.12,16.12,0,0,1-1.95-.22,8.93,8.93,0,0,0-1.24.61,4.32,4.32,0,0,0-1,.78,3.16,3.16,0,0,0-.64,1,2.85,2.85,0,0,0,.17,2.58,3.45,3.45,0,0,0,1.16,1.15,6.55,6.55,0,0,0,1.89.77,10.39,10.39,0,0,0,2.56.28,10,10,0,0,0,2.51-.3,6.8,6.8,0,0,0,2-.85,4.34,4.34,0,0,0,1.35-1.31A3,3,0,0,0,212.92,166.39Zm-6.52-9a5.73,5.73,0,0,0,2-.33,4.07,4.07,0,0,0,1.49-.91,3.78,3.78,0,0,0,.91-1.39,5.36,5.36,0,0,0,0-3.62,3.78,3.78,0,0,0-.93-1.41,4.09,4.09,0,0,0-1.48-.9,6.38,6.38,0,0,0-4,0,4.17,4.17,0,0,0-1.5.9,4,4,0,0,0-.93,1.41,5.28,5.28,0,0,0,0,3.62,4,4,0,0,0,.93,1.39,4.19,4.19,0,0,0,1.5.91A5.67,5.67,0,0,0,206.4,157.42Z"/></g></g></svg>