<?xml version="1.0" encoding="utf-8"?>
<!-- Generator: Adobe Illustrator 22.1.0, SVG Export Plug-In . SVG Version: 6.00 Build 0)  -->
<svg version="1.1" id="one-dot-one" xmlns="http://www.w3.org/2000/svg" xmlns:xlink="http://www.w3.org/1999/xlink" x="0px"
	 y="0px" viewBox="0 0 265.3 265.4" style="enable-background:new 0 0 265.3 265.4;" xml:space="preserve">
<style type="text/css">
	.st0{fill:#F6F6F7;stroke:#8F9093;stroke-miterlimit:10;}
	.st1{fill:#216393;}
	.st2{font-family:'CabinSketch';}
	.st3{font-size:74.85px;}
	.st4{font-family:'Lato-Light';}
	.st5{font-size:35.38px;}
</style>
<path class="st0" d="M5.8,69.2c3.2,0,5.8,2.6,5.8,5.8c0,0,0,0,0,0h5.8V46.1c0-15.9,12.9-28.8,28.8-28.9h0h27.7v3.8
	c-3.2,0-5.8,3.4-5.8,7.8c0.2,3.3,3,5.9,6.3,5.8h17.9c3.5,0.3,6.6-2.3,6.9-5.8c0-4.2-2.6-7.8-5.8-7.8v-3.8H173v-5.8
	c-3.2-0.1-5.7-2.8-5.5-6c0.1-3,2.5-5.4,5.5-5.5h17.3c3.2-0.1,5.9,2.3,6,5.5c0.1,3.2-2.3,5.9-5.5,6c-0.2,0-0.3,0-0.5,0l0,0v5.8h28.8
	c15.9,0,28.8,12.9,28.8,28.8l0,0l0,0v27.7h-3.8c0-3.2-3.4-5.8-7.8-5.8c-3.3,0.2-5.9,3-5.8,6.3v17.9c-0.3,3.5,2.3,6.6,5.8,6.9
	c4.2,0,7.8-2.6,7.8-5.8h3.8V173h5.8c-0.1-3.2,2.3-5.9,5.5-6s5.9,2.3,6,5.5c0,0.2,0,0.3,0,0.5v17.4c-0.1,3.2-2.8,5.7-6,5.5
	c-3-0.1-5.4-2.5-5.5-5.5H248v28.8l0,0c0.1,15.9-12.7,28.9-28.6,29c0,0,0,0,0,0h-27.9v-3.8c3.2,0,5.8-3.4,5.8-7.8
	c-0.2-3.3-3-5.9-6.3-5.8H173c-3.5-0.3-6.6,2.3-6.9,5.8c0,4.2,2.6,7.8,5.8,7.8l0,0v3.8H92.3v5.8c3.2,0,5.8,2.6,5.8,5.8
	s-2.6,5.8-5.8,5.8H75c-3.2,0-5.8-2.6-5.8-5.8s2.6-5.8,5.8-5.8l0,0l0,0v-5.8H46.1c-15.9,0-28.8-12.9-28.8-28.8c0,0,0,0,0,0l0,0v-27.9
	h3.8c0,3.2,3.4,5.8,7.8,5.8c3.3-0.2,5.9-3,5.8-6.3l0,0V173c0.3-3.5-2.3-6.6-5.8-6.9c-4.2,0-7.8,2.6-7.8,5.8h-3.8V92.3h-5.8
	c-0.1,3.2-2.8,5.7-6,5.5c-3-0.1-5.4-2.5-5.5-5.5V75C0,71.8,2.6,69.2,5.8,69.2L5.8,69.2z"/>
<text transform="matrix(1 0 0 1 95.99 112.18)" class="st1 st2 st3">1.1</text>
<text transform="matrix(1 0 0 1 65.85 164.85)" class="st4 st5">Overblik</text>
</svg>
