<?xml version="1.0" encoding="utf-8"?>
<!-- Generator: Adobe Illustrator 22.1.0, SVG Export Plug-In . SVG Version: 6.00 Build 0)  -->
<svg version="1.1" id="one-dot-one" xmlns="http://www.w3.org/2000/svg" xmlns:xlink="http://www.w3.org/1999/xlink" x="0px"
	 y="0px" viewBox="0 0 266 266.1" style="enable-background:new 0 0 266 266.1;" xml:space="preserve">
<style type="text/css">
	.st0{fill:#F6F6F7;}
	.st1{display:none;fill:#F6F6F7;stroke:#8F9093;stroke-miterlimit:10;}
	.st2{fill:#216393;}
	.st3{font-family:'CabinSketch-Bold';}
	.st4{font-size:74.85px;}
	.st5{font-family:'Lato-Light';}
	.st6{font-size:35.38px;}
</style>
<path class="st0" d="M5.8,69.4c3.2,0,5.8,2.6,5.8,5.8h5.8V46.3c0-16,12.9-28.9,28.9-28.9l0,0h27.8v3.8c-3.2,0-5.8,3.4-5.8,7.8
	c0.2,3.3,3,5.9,6.3,5.8h17.9c3.5,0.3,6.6-2.3,6.9-5.8c0-4.3-2.6-7.8-5.8-7.8v-3.8h79.7v-5.8c-3.2,0-5.8-2.6-5.8-5.8s2.6-5.8,5.8-5.8
	h17.3c3.2,0,5.8,2.6,5.8,5.8s-2.6,5.8-5.8,5.8l0,0v5.8h28.9c16,0,28.9,12.9,28.9,28.9c0,0,0,0,0,0l0,0V74h-3.8
	c0-3.2-3.4-5.8-7.8-5.8c-3.3,0.2-5.9,3-5.8,6.3v17.9c-0.3,3.5,2.3,6.6,5.8,6.9c4.3,0,7.8-2.6,7.8-5.8h3.8v79.8h5.8
	c0-3.2,2.6-5.8,5.8-5.8c3.2,0,5.8,2.6,5.8,5.8c0,0,0,0,0,0v17.4c0,3.2-2.6,5.8-5.8,5.8c-3.2,0-5.7-2.6-5.8-5.8h-5.8v28.9l0,0
	c0.1,16-12.8,29-28.7,29.1c0,0-0.1,0-0.1,0H192V245c3.2,0,5.8-3.4,5.8-7.8c-0.2-3.3-3-5.9-6.3-5.8h-17.9c-3.5-0.3-6.6,2.3-6.9,5.8
	c0,4.3,2.6,7.8,5.8,7.8l0,0v3.8H92.5v5.8c3.2,0,5.8,2.6,5.8,5.8c0,3.2-2.6,5.8-5.8,5.8H75.2c-3.2,0-5.8-2.6-5.8-5.8
	c0-3.2,2.6-5.8,5.8-5.8c0,0,0,0,0,0l0,0v-5.8H46.3c-16,0-28.9-12.9-28.9-28.9c0,0,0,0,0,0l0,0l0,0v-28h3.8c0,3.2,3.4,5.8,7.8,5.8
	c3.3-0.2,5.9-3,5.8-6.3l0,0v-17.9c0.3-3.5-2.3-6.6-5.8-6.9c-4.3,0-7.8,2.6-7.8,5.8h-3.8V92.5h-5.8c0,3.2-2.6,5.8-5.8,5.8
	c-3.2,0-5.7-2.6-5.8-5.8V75.2C0,72,2.6,69.4,5.8,69.4L5.8,69.4z"/>
<title>one-two</title>
<g id="_1.2">
	<path class="st1" d="M6.2,69.5c3.2,0,5.8,2.6,5.8,5.8h5.8V46.5c0-15.9,12.9-28.8,28.8-28.9h0h27.7v3.8c-3.2,0-5.8,3.4-5.8,7.8
		c0.2,3.3,3,5.9,6.3,5.8h17.9c3.5,0.3,6.6-2.3,6.9-5.8c0-4.2-2.6-7.8-5.8-7.8v-3.9h79.5v-5.8c-3.2-0.1-5.7-2.8-5.5-6
		c0.1-3,2.5-5.4,5.5-5.5h17.3c3.2-0.1,5.9,2.3,6,5.5c0.1,3.2-2.3,5.9-5.5,6c-0.2,0-0.3,0-0.5,0l0,0v5.8h28.8
		c15.9,0,28.8,12.9,28.8,28.8l0,0l0,0v27.7h-3.8c0-3.2-3.4-5.8-7.8-5.8c-3.3,0.2-5.9,3-5.8,6.3v17.9c-0.3,3.5,2.3,6.6,5.8,6.9
		c4.2,0,7.8-2.6,7.8-5.8h3.8v79.6h5.8c-0.1-3.2,2.3-5.9,5.5-6s5.9,2.3,6,5.5c0,0.2,0,0.3,0,0.5v17.4c-0.1,3.2-2.8,5.7-6,5.5
		c-3-0.1-5.4-2.5-5.5-5.5h-5.8v28.8l0,0c0.1,15.9-12.7,28.9-28.6,29c0,0,0,0,0,0h-27.9v-3.8c3.2,0,5.8-3.4,5.8-7.8
		c-0.2-3.3-3-5.9-6.3-5.8h-17.9c-3.5-0.3-6.6,2.3-6.9,5.8c0,4.2,2.6,7.8,5.8,7.8l0,0v3.8H92.6v5.8c3.2,0,5.8,2.6,5.8,5.8
		s-2.6,5.8-5.8,5.8H75.3c-3.2,0-5.8-2.6-5.8-5.8s2.6-5.8,5.8-5.8l0,0l0,0v-5.8H46.5c-15.9,0-28.8-12.9-28.8-28.8c0,0,0,0,0,0l0,0
		v-27.9h3.8c0,3.2,3.4,5.8,7.8,5.8c3.3-0.2,5.9-3,5.8-6.3l0,0v-17.9c0.3-3.5-2.3-6.6-5.8-6.9c-4.2,0-7.8,2.6-7.8,5.8h-3.8V92.6h-5.8
		c-0.1,3.2-2.8,5.7-6,5.5c-3-0.1-5.4-2.5-5.5-5.5V75.3C0.4,72.1,2.9,69.6,6.2,69.5L6.2,69.5z"/>
	<text transform="matrix(1 0 0 1 95.4539 112.5367)" class="st2 st3 st4">1.2</text>
	<text transform="matrix(1 0 0 1 47.614 165.2067)" class="st5 st6">Opsætning</text>
</g>
</svg>
