<svg id="one-dot-one" xmlns="http://www.w3.org/2000/svg" viewBox="0 0 266.28 266.47"><defs><style>.cls-1{fill:#f6f6f7;stroke:#8f9093;stroke-miterlimit:10;}.cls-2{isolation:isolate;}.cls-3{fill:#216393;}</style></defs><title>one-one-2</title><path class="cls-1" d="M5.82,69.2A5.76,5.76,0,0,1,11.58,75h5.77V46.14A28.82,28.82,0,0,1,46.14,17.29H73.88v3.83c-3.18,0-5.77,3.44-5.77,7.75a6.09,6.09,0,0,0,6.34,5.77H92.33a6.41,6.41,0,0,0,6.93-5.77c0-4.24-2.58-7.75-5.76-7.75V17.29H173V11.53A5.77,5.77,0,0,1,173,0h17.29a5.77,5.77,0,1,1,.48,11.53h-.48v5.76h28.85A28.82,28.82,0,0,1,248,46.11h0V73.82h-3.83c0-3.18-3.43-5.76-7.75-5.76a6.06,6.06,0,0,0-5.76,6.33V92.28a6.42,6.42,0,0,0,5.76,6.93c4.24,0,7.75-2.59,7.75-5.77H248V173h5.76a5.77,5.77,0,0,1,11.53-.53,3.84,3.84,0,0,1,0,.48v17.39a5.77,5.77,0,0,1-11.53,0H248v28.8h0a28.82,28.82,0,0,1-28.64,29H191.46v-3.82c3.18,0,5.76-3.44,5.76-7.76a6.06,6.06,0,0,0-6.33-5.76H173a6.41,6.41,0,0,0-6.93,5.76c0,4.24,2.59,7.76,5.77,7.76h0v3.82H92.28v5.77a5.76,5.76,0,1,1,0,11.52H75a5.76,5.76,0,0,1,0-11.52h0v-5.77H46.14A28.81,28.81,0,0,1,17.3,219.39h0V191.46h3.82c0,3.18,3.44,5.76,7.76,5.76a6.08,6.08,0,0,0,5.76-6.33h0V173a6.41,6.41,0,0,0-5.76-6.93c-4.24,0-7.76,2.59-7.76,5.77H17.3V92.28H11.53A5.77,5.77,0,0,1,0,92.28V75A5.78,5.78,0,0,1,5.77,69.2Z" transform="translate(0.5 0.51)"/><g class="cls-2"><path class="cls-3" d="M103.33,104.92a38.3,38.3,0,0,1,1.12-6v-19a12.44,12.44,0,0,1,.11-1.46c.07-.57.14-1.06.19-1.46l-.08-1.2a4.85,4.85,0,0,0-2.17.75c-.35.2-.68.38-1,.53a2.18,2.18,0,0,1-.93.22q-1.35,0-1.35-5.69l.07-4.26a6.74,6.74,0,0,0,3-1.35,29.22,29.22,0,0,0,4.12-3.33,15,15,0,0,0,3-3.71,29.13,29.13,0,0,1,4.64.49c2,.32,3,.59,3.07.78a16.46,16.46,0,0,1,.3,3.22,20,20,0,0,1-.37,3.6,31.37,31.37,0,0,0-.3,3.44c0,.9,0,1.92.15,3.07S117,75.5,117,76a44.44,44.44,0,0,1,.38,5.47q0,1.42-.15,4.26c-.15,1.5-.23,3-.23,4.42,0,.65,0,1.67.15,3.07a22.7,22.7,0,0,1,.23,3.22q0,16.69-1.72,16.69l-.9-.3a50.35,50.35,0,0,0-5.77.37c-2.39.2-4.14.3-5.24.3a1.58,1.58,0,0,1-1-.22,1,1,0,0,1-.23-.75v-.6A64.39,64.39,0,0,1,103.33,104.92Zm.52-38.7a8.36,8.36,0,0,0-2.13,1.2,2.21,2.21,0,0,0-.72,1.8h.83l5.76-3.52A5.05,5.05,0,0,0,106,66l-.37-.68A9.38,9.38,0,0,1,103.85,66.22Zm5.91,3.18a25.52,25.52,0,0,0-6,2.29c-1.72,1-2.58,2-2.58,3.07a7.42,7.42,0,0,0,2.28-.72c1.12-.47,2.21-1,3.26-1.46a19.63,19.63,0,0,1,3.37-1.42,11.44,11.44,0,0,0,3.1-1.23c1.13-.63,1.69-1.09,1.69-1.39A22.94,22.94,0,0,0,109.76,69.4ZM103,71.27a12.58,12.58,0,0,0,1.8-.78,7.81,7.81,0,0,0,1.31-1.12,21,21,0,0,1,2-1.73,2.82,2.82,0,0,1,1.57-.67,5.76,5.76,0,0,0,2.55-.94c1.09-.62,1.64-1,1.64-1.3a14.16,14.16,0,0,0-4.11,1.34,67.14,67.14,0,0,0-8.16,4.42v1.35C101.73,71.74,102.2,71.55,103,71.27Zm5.69,38.29v1l1.57-.67a.69.69,0,0,1-.22.56,3.27,3.27,0,0,1-.86.41,1.54,1.54,0,0,0-.86.6h.82a31.79,31.79,0,0,0,3.25-.23c1.38-.15,2.06-.3,2.06-.45v-2.32a2.14,2.14,0,0,1-1.12.86,5.25,5.25,0,0,0-1.12.57l-.3-.38c.3-.25.71-.57,1.23-1a5.81,5.81,0,0,0,1.2-1.16,2.88,2.88,0,0,0,.49-1.46,22.6,22.6,0,0,1-9.73,2l-.6,3.22.6.67Zm-3-4.79a8.55,8.55,0,0,0,2.62-.49,3.64,3.64,0,0,0,1.94-1.16l4.19-1.94-.3-.3-3.89.6v-.3a4.87,4.87,0,0,1-1.42.45c-.85.2-1.67.37-2.47.52A4.52,4.52,0,0,0,105.65,104.77Zm.89,1.8a23,23,0,0,0,5.09-.75c2.1-.5,3.15-1,3.15-1.57V103l-9.13,3.52Zm-.11-22.95c.08,1,.16,1.81.26,2.36h.3l5.84-2.54a1.63,1.63,0,0,1,.64-.6l.63-.38a6.88,6.88,0,0,0-1.87.3l-1.35.38a9.44,9.44,0,0,1-3.06.67c-.3,0-.45-.12-.45-.37,1.09-1.9,3.44-3.39,7-4.49l.38-.38a36.69,36.69,0,0,0-4.9,1.16c-2.38.68-3.56,1.29-3.56,1.84C106.32,81.92,106.36,82.6,106.43,83.62Zm6.29,14.79c-.68.3-1.4.58-2.17.86s-1.29.46-1.54.56-.83.32-1.46.52a4.74,4.74,0,0,0-1.23.53H107a37.42,37.42,0,0,0,4.53-.6,17.23,17.23,0,0,0,3.56-.75V95A10.88,10.88,0,0,0,112,96.05a7.43,7.43,0,0,0-2.7,1.61,12.2,12.2,0,0,1,3.82-.9q.6,0,.6.75C113.73,97.81,113.39,98.11,112.72,98.41Zm-6.4,1.12,1.87-.49a7.74,7.74,0,0,0,2-.78l-3.52.67C106.44,98.93,106.32,99.13,106.32,99.53Zm.3-11.08.07.53c1.6-.1,3.94-1.1,7-3a8.25,8.25,0,0,0-2.4.45l-1.64.53c-1.3.4-2.2.64-2.7.74C106.74,87.75,106.62,88,106.62,88.45Zm3.78,3.63q3.1-1.38,3.33-1.83a20.34,20.34,0,0,0-2.85.45l-1.72.37a12.2,12.2,0,0,1-2.47.3v2.1A16.08,16.08,0,0,0,110.4,92.08ZM110,94.52a18.21,18.21,0,0,0-3.3.82v2.32l6.74-2.92a1.9,1.9,0,0,1,.6-.49,1.06,1.06,0,0,0,.52-.48Q112.68,94,110,94.52Zm-1-21.45c-1.34.43-2,.86-2,1.31V79l1.8-.9q4-2,4-2.47a27.42,27.42,0,0,0-3.33.22c-1.22.15-1.91.23-2.06.23a1.76,1.76,0,0,1,.71-1.5,6.51,6.51,0,0,1,2-.9,6.55,6.55,0,0,0,1.19-.52c.35-.2.53-.42.53-.67A11.41,11.41,0,0,0,109,73.07Zm4.2,16.58,1.57-.37.3-3.3q-.3.6-5.17,2.85c-.45.2-.92.42-1.42.67l-1.5.75v.37A32.68,32.68,0,0,0,113.21,89.65Zm-5.62-2.92.15.15c.1.1.18.15.23.15.59-.25,1.58-.59,3-1s2.44-.74,3.18-.94h.68a1.13,1.13,0,0,0,.07-.37c0-.5-.27-.75-.82-.75a7.71,7.71,0,0,0-2.47.82c-1.2.55-1.9.88-2.1,1a13.17,13.17,0,0,1-1.87.9Zm.68,7.41a24,24,0,0,0,3.06-.52c1.7-.35,2.85-.63,3.45-.83V90.85q-.9.23-7.19,3.22ZM114,61.51a2.43,2.43,0,0,1-.9,1L111,63.53A32.54,32.54,0,0,1,108,65l.3.08a14.41,14.41,0,0,0,3.36-.6,11.22,11.22,0,0,1,3.45-.67l.3.3V62.48a.66.66,0,0,1-.38-.22.64.64,0,0,1-.22-.45,2.12,2.12,0,0,1,.07-.57,2,2,0,0,0,.08-.56C114.68,60.68,114.38,61,114,61.51ZM111.86,67a12.42,12.42,0,0,0-3.59,2.13l1.94-.45A17.79,17.79,0,0,0,114,67.53a2.41,2.41,0,0,0,1.5-2A15,15,0,0,0,111.86,67Zm.37,10.25a36.64,36.64,0,0,1-4,2,15.71,15.71,0,0,0,4.11-.9L113.5,78c.45-.12,1-.24,1.58-.34,0-.74,0-1.87-.15-3.36a26,26,0,0,1-.23-3.37l.08-1-1.31.64a6.89,6.89,0,0,0-1.61,1l2.24.3v1a11.51,11.51,0,0,0-2.54,1.2,21.18,21.18,0,0,1-2,1,17.55,17.55,0,0,0,2.09-.15c.9-.09,1.6-.14,2.1-.14s.67.17.67.52C114.4,75.78,113.68,76.44,112.23,77.26Zm-2.09-15.75a14.49,14.49,0,0,0-.53,1.57,8.47,8.47,0,0,0,3.89-2.17,9.4,9.4,0,0,0-2.69-.38C110.61,60.53,110.39,60.86,110.14,61.51ZM112,80.93a6,6,0,0,0-2.06,1.53,11.54,11.54,0,0,0,2.51-.52,8.35,8.35,0,0,0,2.36-.75V79.62A24.37,24.37,0,0,0,112,80.93Z" transform="translate(0.5 0.51)"/><path class="cls-3" d="M126.68,110.16c-.05-.85-.08-1.72-.08-2.62a12.38,12.38,0,0,1,.38-2.47,8.16,8.16,0,0,0,.3-1.72,1.21,1.21,0,0,0-.6-1.2l.6-.15q4.11.23,6.14.23a2.83,2.83,0,0,1,.86.26,3.88,3.88,0,0,0,1.46.26l1.34-.08a1.8,1.8,0,0,1,1.28.38,2.52,2.52,0,0,1,.37,1.64c0,.45-.13.68-.37.68l.07,3.67a4.77,4.77,0,0,1-.37,2.2,2,2,0,0,1-1.39.86,37.6,37.6,0,0,1-3.93.53l-2.17.22a.63.63,0,0,0-.67-.37,5.71,5.71,0,0,0-.86.34,3.47,3.47,0,0,1-1.16.33.61.61,0,0,1-.27-.15.87.87,0,0,0-.56-.15A18,18,0,0,1,126.68,110.16Zm1.5-5.76a5.77,5.77,0,0,0-.08,1,5.41,5.41,0,0,0,.23,1.35,24.89,24.89,0,0,1,2.46-1.28,7.18,7.18,0,0,0,3-1.64v-.38h-5.54A7.4,7.4,0,0,1,128.18,104.4Zm.29,5.2a5.65,5.65,0,0,1,.15.63l1.5-.89q1.13-.68,2.4-1.35a3.61,3.61,0,0,1,1.16-.45,13.18,13.18,0,0,0,1.53-.49,1.56,1.56,0,0,0,.9-.71l-.75-.07a17.62,17.62,0,0,0-3.63.9,9.14,9.14,0,0,0-3.4,1.49A3.74,3.74,0,0,0,128.47,109.6Zm.75,1.61a2.94,2.94,0,0,1,.9-.3l.19,0a1,1,0,0,0,.34,0,8.72,8.72,0,0,0,4.15-.9,2.94,2.94,0,0,0,1.68-2.77l-1.12.45Q129.15,110.54,129.22,111.21Zm4.34-6.36c-.74.34-1.47.71-2.17,1.08s-1.07.69-1.12.94a19.59,19.59,0,0,1,3-.9c.94-.2,1.83-.43,2.65-.68s1.24-.49,1.24-.74a1.15,1.15,0,0,0-.15-.45l-1.65-.68-.3.68Z" transform="translate(0.5 0.51)"/><path class="cls-3" d="M148.83,104.92a39,39,0,0,1,1.13-6v-19a10.59,10.59,0,0,1,.11-1.46c.07-.57.14-1.06.18-1.46l-.07-1.2a4.85,4.85,0,0,0-2.17.75c-.35.2-.69.38-1,.53a2.25,2.25,0,0,1-.94.22q-1.34,0-1.34-5.69l.07-4.26a6.74,6.74,0,0,0,3-1.35,28.6,28.6,0,0,0,4.11-3.33,14.86,14.86,0,0,0,3-3.71,29.13,29.13,0,0,1,4.64.49c1.95.32,3,.59,3.07.78a16.46,16.46,0,0,1,.3,3.22,20,20,0,0,1-.37,3.6,31.37,31.37,0,0,0-.3,3.44c0,.9.05,1.92.15,3.07s.17,1.94.22,2.39a44.44,44.44,0,0,1,.38,5.47c0,1-.06,2.37-.16,4.26-.14,1.5-.22,3-.22,4.42,0,.65.05,1.67.15,3.07a22.7,22.7,0,0,1,.23,3.22q0,16.69-1.73,16.69l-.89-.3a50.35,50.35,0,0,0-5.77.37c-2.39.2-4.14.3-5.24.3a1.62,1.62,0,0,1-1.05-.22,1,1,0,0,1-.22-.75v-.6A63.33,63.33,0,0,1,148.83,104.92Zm.53-38.7a8.64,8.64,0,0,0-2.14,1.2,2.24,2.24,0,0,0-.71,1.8h.83l5.76-3.52a5.05,5.05,0,0,0-1.57.3l-.38-.68A9.51,9.51,0,0,1,149.36,66.22Zm5.91,3.18a25.35,25.35,0,0,0-6,2.29c-1.72,1-2.58,2-2.58,3.07A7.42,7.42,0,0,0,149,74c1.12-.47,2.21-1,3.26-1.46a19.72,19.72,0,0,1,3.36-1.42,11.37,11.37,0,0,0,3.11-1.23c1.12-.63,1.68-1.09,1.68-1.39A23,23,0,0,0,155.27,69.4Zm-6.81,1.87a11.91,11.91,0,0,0,1.79-.78,7.27,7.27,0,0,0,1.32-1.12,21,21,0,0,1,2-1.73,2.82,2.82,0,0,1,1.57-.67,5.76,5.76,0,0,0,2.55-.94c1.09-.62,1.64-1,1.64-1.3a14.07,14.07,0,0,0-4.11,1.34A67.14,67.14,0,0,0,147,70.49v1.35C147.24,71.74,147.71,71.55,148.46,71.27Zm5.69,38.29v1l1.57-.67a.72.72,0,0,1-.22.56,3.38,3.38,0,0,1-.87.41,1.57,1.57,0,0,0-.86.6h.83a32,32,0,0,0,3.25-.23c1.37-.15,2.06-.3,2.06-.45v-2.32a2.14,2.14,0,0,1-1.12.86,5,5,0,0,0-1.12.57l-.3-.38c.3-.25.71-.57,1.23-1a6.08,6.08,0,0,0,1.2-1.16,2.88,2.88,0,0,0,.49-1.46,22.61,22.61,0,0,1-9.74,2l-.59,3.22.59.67Zm-3-4.79a8.5,8.5,0,0,0,2.62-.49,3.63,3.63,0,0,0,1.95-1.16l4.19-1.94-.3-.3-3.89.6v-.3a4.87,4.87,0,0,1-1.42.45c-.85.2-1.67.37-2.47.52A4.52,4.52,0,0,0,151.15,104.77Zm.9,1.8a23,23,0,0,0,5.09-.75c2.1-.5,3.15-1,3.15-1.57V103l-9.14,3.52Zm-.11-22.95A22.31,22.31,0,0,0,152.2,86h.3l5.84-2.54a1.63,1.63,0,0,1,.64-.6l.63-.38a6.88,6.88,0,0,0-1.87.3l-1.35.38a9.43,9.43,0,0,1-3.07.67c-.3,0-.44-.12-.44-.37,1.09-1.9,3.44-3.39,7-4.49l.38-.38a37.08,37.08,0,0,0-4.91,1.16c-2.37.68-3.55,1.29-3.55,1.84C151.83,81.92,151.86,82.6,151.94,83.62Zm6.29,14.79c-.68.3-1.4.58-2.17.86s-1.29.46-1.54.56-.83.32-1.46.52a4.74,4.74,0,0,0-1.23.53h.67a37.42,37.42,0,0,0,4.53-.6,17,17,0,0,0,3.55-.75V95a11,11,0,0,0-3.06,1.09,7.43,7.43,0,0,0-2.7,1.61,12.2,12.2,0,0,1,3.82-.9q.6,0,.6.75C159.24,97.81,158.9,98.11,158.23,98.41Zm-6.4,1.12L153.7,99a7.74,7.74,0,0,0,2-.78l-3.52.67C152,98.93,151.83,99.13,151.83,99.53Zm.3-11.08.07.53c1.6-.1,3.94-1.1,7-3a8.25,8.25,0,0,0-2.4.45L155.2,87c-1.3.4-2.2.64-2.7.74C152.25,87.75,152.13,88,152.13,88.45Zm3.78,3.63q3.1-1.38,3.33-1.83a20.34,20.34,0,0,0-2.85.45l-1.72.37a12.2,12.2,0,0,1-2.47.3v2.1A16.25,16.25,0,0,0,155.91,92.08Zm-.41,2.44a18.21,18.21,0,0,0-3.3.82v2.32l6.74-2.92a1.9,1.9,0,0,1,.6-.49,1.06,1.06,0,0,0,.52-.48Q158.19,94,155.5,94.52Zm-1-21.45c-1.35.43-2,.86-2,1.31V79l1.8-.9q4-2,4-2.47a27.42,27.42,0,0,0-3.33.22c-1.22.15-1.91.23-2.06.23a1.76,1.76,0,0,1,.71-1.5,6.33,6.33,0,0,1,2-.9,6.66,6.66,0,0,0,1.2-.52c.35-.2.53-.42.53-.67A11.41,11.41,0,0,0,154.52,73.07Zm4.19,16.58,1.58-.37.29-3.3q-.3.6-5.16,2.85c-.45.2-.92.42-1.42.67l-1.5.75v.37A32.49,32.49,0,0,0,158.71,89.65Zm-5.61-2.92.15.15c.1.1.17.15.22.15.6-.25,1.59-.59,3-1s2.43-.74,3.18-.94h.68a1.48,1.48,0,0,0,.07-.37c0-.5-.28-.75-.82-.75a7.63,7.63,0,0,0-2.47.82c-1.2.55-1.9.88-2.1,1a13.17,13.17,0,0,1-1.87.9Zm.67,7.41a23.73,23.73,0,0,0,3.07-.52c1.7-.35,2.85-.63,3.45-.83V90.85q-.9.23-7.19,3.22Zm5.77-32.63a2.43,2.43,0,0,1-.9,1l-2.1,1.05A31.39,31.39,0,0,1,153.47,65l.3.08a14.47,14.47,0,0,0,3.37-.6,11.22,11.22,0,0,1,3.44-.67l.3.3V62.48a.81.81,0,0,1-.59-.67,2.12,2.12,0,0,1,.07-.57,2,2,0,0,0,.07-.56C160.18,60.68,159.88,61,159.54,61.51ZM157.37,67a12.7,12.7,0,0,0-3.6,2.13l1.95-.45a17.79,17.79,0,0,0,3.82-1.16,2.4,2.4,0,0,0,1.49-2A15,15,0,0,0,157.37,67Zm.37,10.25a35.82,35.82,0,0,1-4,2,15.76,15.76,0,0,0,4.12-.9L159,78c.45-.12,1-.24,1.57-.34,0-.74-.05-1.87-.15-3.36a27.88,27.88,0,0,1-.22-3.37l.08-1-1.31.64a6.69,6.69,0,0,0-1.61,1l2.24.3v1a11.31,11.31,0,0,0-2.54,1.2,22.48,22.48,0,0,1-2,1,17.82,17.82,0,0,0,2.09-.15c.9-.09,1.6-.14,2.1-.14s.67.17.67.52C159.91,75.78,159.19,76.44,157.74,77.26Zm-2.1-15.75a14.07,14.07,0,0,0-.52,1.57A8.53,8.53,0,0,0,159,60.91a9.45,9.45,0,0,0-2.69-.38C156.12,60.53,155.89,60.86,155.64,61.51Zm1.84,19.42a5.9,5.9,0,0,0-2.06,1.53,11.54,11.54,0,0,0,2.51-.52,8.35,8.35,0,0,0,2.36-.75V79.62A24.37,24.37,0,0,0,157.48,80.93Z" transform="translate(0.5 0.51)"/></g><g class="cls-2"><path d="M91.89,152.33a15.15,15.15,0,0,1-.87,5.26,11.67,11.67,0,0,1-2.44,4,10.56,10.56,0,0,1-3.77,2.58,13.22,13.22,0,0,1-9.69,0,10.65,10.65,0,0,1-3.77-2.58,11.84,11.84,0,0,1-2.45-4,16.31,16.31,0,0,1,0-10.51,11.84,11.84,0,0,1,2.45-4,10.81,10.81,0,0,1,3.77-2.59,12.23,12.23,0,0,1,4.83-.92,12.49,12.49,0,0,1,4.86.91A10.59,10.59,0,0,1,88.58,143a11.81,11.81,0,0,1,2.44,4A15.06,15.06,0,0,1,91.89,152.33Zm-1.88,0a14.38,14.38,0,0,0-.72-4.71,10.25,10.25,0,0,0-2-3.54,8.7,8.7,0,0,0-3.18-2.22,10.72,10.72,0,0,0-4.12-.77,10.55,10.55,0,0,0-4.08.77,8.88,8.88,0,0,0-3.18,2.22,10.15,10.15,0,0,0-2.07,3.54,15.36,15.36,0,0,0,0,9.42,10.11,10.11,0,0,0,2.07,3.53,8.85,8.85,0,0,0,3.18,2.21,10.55,10.55,0,0,0,4.08.76,10.72,10.72,0,0,0,4.12-.76,8.68,8.68,0,0,0,3.18-2.21,10.21,10.21,0,0,0,2-3.53A14.38,14.38,0,0,0,90,152.33Z" transform="translate(0.5 0.51)"/><path d="M103.42,164.85h-1.48l-7.43-17.6h1.32a.57.57,0,0,1,.4.13.83.83,0,0,1,.22.29l5.81,13.89a5.48,5.48,0,0,1,.26.78l.18.74.18-.75a6.35,6.35,0,0,1,.26-.77L109,147.67a.83.83,0,0,1,.24-.31.61.61,0,0,1,.36-.11h1.27Z" transform="translate(0.5 0.51)"/><path d="M120.48,147a7.32,7.32,0,0,1,2.75.52,6.22,6.22,0,0,1,2.19,1.49,6.94,6.94,0,0,1,1.45,2.42,9.51,9.51,0,0,1,.52,3.29,1,1,0,0,1-.11.53.46.46,0,0,1-.36.14H114.21v.34a12.13,12.13,0,0,0,.46,3.48,7.33,7.33,0,0,0,1.31,2.52,5.35,5.35,0,0,0,2.06,1.53,6.78,6.78,0,0,0,2.68.52,7.78,7.78,0,0,0,2.3-.3,8.35,8.35,0,0,0,1.64-.65,8.2,8.2,0,0,0,1-.66,1.23,1.23,0,0,1,.57-.29.4.4,0,0,1,.35.18l.46.56a4.6,4.6,0,0,1-1.12,1,8.12,8.12,0,0,1-1.56.78,11,11,0,0,1-1.84.52,10.05,10.05,0,0,1-2,.2,8.35,8.35,0,0,1-3.29-.63,7,7,0,0,1-2.55-1.83,8.36,8.36,0,0,1-1.65-3,12.78,12.78,0,0,1-.58-4,10.89,10.89,0,0,1,.54-3.5,8.12,8.12,0,0,1,1.56-2.76,7.21,7.21,0,0,1,2.49-1.81A8.19,8.19,0,0,1,120.48,147Zm0,1.26a6.51,6.51,0,0,0-2.44.43,5.42,5.42,0,0,0-1.86,1.22,6.13,6.13,0,0,0-1.27,1.91,8.58,8.58,0,0,0-.64,2.49h11.58a7.74,7.74,0,0,0-.39-2.54,5.44,5.44,0,0,0-1.09-1.9,4.63,4.63,0,0,0-1.7-1.19A5.55,5.55,0,0,0,120.5,148.22Z" transform="translate(0.5 0.51)"/><path d="M131.92,164.85v-17.6h.89a.63.63,0,0,1,.43.12.61.61,0,0,1,.15.43l.14,3.71a8.43,8.43,0,0,1,2.26-3.35,5.19,5.19,0,0,1,3.49-1.21,5.7,5.7,0,0,1,1.47.17,5.55,5.55,0,0,1,1.27.48l-.23,1.17a.31.31,0,0,1-.35.28.88.88,0,0,1-.3-.07l-.49-.16a5.72,5.72,0,0,0-.72-.16,6.78,6.78,0,0,0-1-.07,4.56,4.56,0,0,0-3.28,1.24,9,9,0,0,0-2.08,3.57v11.45Z" transform="translate(0.5 0.51)"/><path d="M146.14,164.85V139.11h1.68l0,11.22a9.13,9.13,0,0,1,2.71-2.46A6.76,6.76,0,0,1,154,147a6.16,6.16,0,0,1,5,2.24q1.81,2.25,1.81,6.73a12.58,12.58,0,0,1-.5,3.6,8.56,8.56,0,0,1-1.49,2.9,7.11,7.11,0,0,1-2.41,1.94,7.34,7.34,0,0,1-3.29.71,6.57,6.57,0,0,1-3.17-.72,6.43,6.43,0,0,1-2.28-2.11l-.11,2.16a.43.43,0,0,1-.47.44Zm7.39-16.54a5.77,5.77,0,0,0-3.17.9,9,9,0,0,0-2.54,2.51V161a5.9,5.9,0,0,0,2.24,2.13,6.15,6.15,0,0,0,2.81.61,6.31,6.31,0,0,0,2.73-.56,5.35,5.35,0,0,0,2-1.6,7.24,7.24,0,0,0,1.19-2.48,12.14,12.14,0,0,0,.4-3.18c0-2.61-.49-4.54-1.46-5.77A5,5,0,0,0,153.53,148.31Z" transform="translate(0.5 0.51)"/><path d="M167.46,139.11v25.74h-1.68V139.11Z" transform="translate(0.5 0.51)"/><path d="M176.61,141.18a1.31,1.31,0,0,1-.14.59,1.72,1.72,0,0,1-.34.49,1.77,1.77,0,0,1-.5.34,1.56,1.56,0,0,1-1.2,0,1.92,1.92,0,0,1-.5-.34,1.51,1.51,0,0,1-.33-.49,1.45,1.45,0,0,1-.13-.59,1.59,1.59,0,0,1,.13-.61,1.56,1.56,0,0,1,.33-.5,1.55,1.55,0,0,1,1.7-.34,1.43,1.43,0,0,1,.5.34,1.77,1.77,0,0,1,.34.5A1.43,1.43,0,0,1,176.61,141.18Zm-.75,6.07v17.6h-1.68v-17.6Z" transform="translate(0.5 0.51)"/><path d="M184,139.11V154.8h.81a1.49,1.49,0,0,0,.47-.07,1.22,1.22,0,0,0,.48-.34l7.06-6.7a2.24,2.24,0,0,1,.4-.32,1,1,0,0,1,.52-.12h1.49l-7.77,7.38-.33.32a1.83,1.83,0,0,1-.36.26,1.93,1.93,0,0,1,.48.33l.41.43,8.15,8.88h-1.47a.92.92,0,0,1-.44-.1,1.33,1.33,0,0,1-.39-.31l-7.39-7.92a2,2,0,0,0-.55-.44,2.08,2.08,0,0,0-.78-.11H184v8.88h-1.68V139.11Z" transform="translate(0.5 0.51)"/></g></svg>