<svg id="top" xmlns="http://www.w3.org/2000/svg" viewBox="0 0 280.76 272.05"><defs><style>.cls-1{fill:#d74127;}</style></defs><title>top-red</title><path class="cls-1" d="M1084.6,619.18V430.81a28.92,28.92,0,0,0-28.92-28.92H882.07a28.93,28.93,0,0,0-29,28.9h0V619.18a51.19,51.19,0,0,0-24.59,43.19,11.57,11.57,0,1,0,23.14,0h0a28.92,28.92,0,0,1,29-28.84h30.45v5.7a5.79,5.79,0,0,0,0,11.57h17.36a5.79,5.79,0,0,0,0-11.57v-5.7h79.86v-3.84c-3.19,0-5.78-3.45-5.78-7.79a6.43,6.43,0,0,1,7-5.78h18a6.09,6.09,0,0,1,6.43,5.73c0,4.26-2.59,7.78-5.78,7.78v3.9h29.13a28.91,28.91,0,0,1,28.94,28.84,11.57,11.57,0,0,0,23.14,0A51.14,51.14,0,0,0,1084.6,619.18ZM969,579.24A62.26,62.26,0,1,1,1031.27,517,62.26,62.26,0,0,1,969,579.24Z" transform="translate(-828.53 -401.89)"/><path class="cls-1" d="M969,463.29A53.7,53.7,0,1,0,1022.68,517h-.13A53.69,53.69,0,0,0,969,463.29Zm-.16,88.48a34.79,34.79,0,0,1,0-69.57h0a34.79,34.79,0,1,1,0,69.57Z" transform="translate(-828.53 -401.89)"/></svg>